<?xml version="1.0" standalone="no"?>
<!DOCTYPE svg PUBLIC "-//W3C//DTD SVG 1.1//EN" "http://www.w3.org/Graphics/SVG/1.1/DTD/svg11.dtd" >
<svg xmlns="http://www.w3.org/2000/svg" xmlns:xlink="http://www.w3.org/1999/xlink" version="1.1">
<metadata>
Created by FontForge 20150824 at Wed Nov  9 22:06:12 2016
 By Everything Fonts
Copyright (c) 2010 by Pablo Impallari. All rights reserved.
</metadata>
<defs>
<font id="Lobster1.4" horiz-adv-x="505" >
  <font-face 
    font-family="Lobster 1.4"
    font-weight="400"
    font-stretch="normal"
    units-per-em="1000"
    panose-1="2 0 5 6 0 0 0 2 0 3"
    ascent="800"
    descent="-200"
    x-height="500"
    cap-height="750"
    bbox="-209 -250 1186 1000"
    underline-thickness="50"
    underline-position="-100"
    unicode-range="U+0020-FB04"
  />
<missing-glyph horiz-adv-x="385" 
 />
    <glyph glyph-name="E_x" unicode="Ex" horiz-adv-x="797" 
d="M455 462h141l32 -178c59 64 95 123 95 159c0 4 0 8 -1 12c-6 -1 -12 -2 -17 -2c-35 0 -47 25 -47 56c0 30 25 47 56 47c45 0 68 -40 68 -89c0 -65 -45 -134 -143 -238l9 -50c7 -38 15 -88 59 -88c39 0 75 38 90 88h42c-57 -163 -152 -185 -206 -185
c-63 0 -93 39 -115 132c-73 -84 -208 -142 -321 -142c-104 0 -190 50 -190 174c0 105 70 231 185 259c-43 31 -61 75 -61 120c0 103 91 215 219 215c79 0 143 -43 143 -125c0 -60 -34 -104 -74 -104c-17 0 -33 8 -47 27c25 8 44 53 44 87c0 41 -28 56 -55 56
c-59 0 -102 -71 -102 -141c0 -58 29 -115 101 -134c-107 -24 -179 -147 -179 -239c0 -72 44 -102 102 -102c72 0 164 45 222 111z" />
    <glyph glyph-name="F_i" unicode="Fi" horiz-adv-x="726" 
d="M349 450h126l-16 -74h-126l-81 -376h-144l144 668h-11c-81 0 -139 -41 -139 -207c0 -51 13 -59 14 -68c-69 0 -107 25 -107 97c0 133 94 260 341 260c68 0 141 -20 231 -20c43 0 91 5 145 19c-14 -71 -44 -155 -124 -155c-82 0 -127 34 -210 56zM527 500h144l-72 -340
c-3 -13 -4 -23 -4 -32c0 -28 13 -37 41 -37c39 0 75 38 90 88h42c-57 -163 -156 -185 -210 -185c-60 0 -107 36 -107 120c0 19 3 41 8 65z" />
    <glyph glyph-name="IJ" unicode="IJ" horiz-adv-x="663" 
d="M397 748l-147 -690c41 -6 67 -30 67 -64c0 -11 -3 -22 -7 -33c-16 16 -33 23 -49 23c-36 0 -65 -33 -65 -73c0 -39 27 -68 71 -68c40 0 70 23 92 123l164 751l150 33l-150 -710c-29 -138 -95 -247 -250 -247c-113 0 -161 58 -161 137c0 27 5 50 16 70h-34l145 679
c-87 -36 -140 -111 -140 -218c0 -51 13 -59 14 -68c-69 0 -107 25 -107 97c0 133 184 260 351 260c14 0 27 -1 40 -2z" />
    <glyph glyph-name="T_h" unicode="Th" horiz-adv-x="971" 
d="M99 460c0 -51 13 -59 14 -68c-69 0 -107 25 -107 97c0 133 105 260 352 260c46 0 168 -26 270 -26c49 0 93 6 121 24c-24 -44 -38 -73 -84 -301c43 49 87 58 119 58c64 0 111 -33 111 -113c0 -81 -48 -202 -48 -258c0 -25 10 -42 40 -42c44 0 62 36 84 88h42
c-56 -164 -133 -185 -186 -185c-87 0 -118 56 -118 113c0 68 45 191 45 255c0 33 -12 51 -36 51c-35 0 -61 -39 -76 -86c-17 -87 -37 -194 -61 -327h-144l137 638c-41 3 -86 11 -132 17l-141 -655h-144l143 664c-112 -4 -201 -47 -201 -204z" />
    <glyph glyph-name="T_i" unicode="Ti" horiz-adv-x="744" 
d="M157 0l144 671c-14 2 -27 3 -40 3c-92 0 -162 -49 -162 -214c0 -51 13 -59 14 -68c-69 0 -107 25 -107 97c0 133 94 260 341 260c41 0 159 -16 257 -16c46 0 88 3 115 14c8 -25 11 -47 11 -66c0 -81 -67 -100 -103 -100c-46 0 -104 27 -189 56l-137 -637h-144zM545 500
h144l-72 -340c-3 -13 -4 -23 -4 -32c0 -28 13 -37 41 -37c39 0 75 38 90 88h42c-57 -163 -156 -185 -210 -185c-60 0 -107 36 -107 120c0 19 3 41 8 65z" />
    <glyph glyph-name="a_x" unicode="ax" horiz-adv-x="899" 
d="M336 500h144l-72 -340c-2 -9 -3 -17 -3 -25c0 -25 10 -44 43 -44c52 0 118 43 160 94l-58 315h141l39 -216c59 64 95 123 95 159c0 4 0 8 -1 12c-6 -1 -12 -2 -17 -2c-35 0 -47 25 -47 56c0 30 25 47 56 47c45 0 68 -40 68 -89c0 -65 -45 -134 -143 -238l9 -50
c7 -38 15 -88 59 -88c39 0 75 38 90 88h42c-57 -163 -152 -185 -206 -185c-63 0 -93 39 -116 134c-75 -95 -154 -134 -235 -134c-55 0 -104 35 -114 94c-31 -47 -78 -94 -150 -94c-68 0 -133 42 -133 161c0 135 83 350 257 350c57 0 81 -22 81 -51v-7zM275 443
c-85 0 -140 -180 -140 -274c0 -77 32 -78 50 -78c29 0 71 30 83 88l48 226c0 12 -9 38 -41 38z" />
    <glyph glyph-name="a_z" unicode="az" horiz-adv-x="906" 
d="M336 500h144l-72 -340c-3 -13 -4 -23 -4 -32c0 -28 13 -37 41 -37c9 0 15 1 22 4c-27 -70 -46 -101 -100 -101s-90 35 -98 93c-30 -46 -78 -93 -149 -93c-68 0 -133 42 -133 161c0 135 83 350 257 350c57 0 81 -22 81 -51v-7zM784 91c-13 1 -19 10 -19 21
c0 18 19 43 56 43c30 0 44 -21 44 -48c0 -46 -45 -107 -122 -107h-265l255 446h-56c-31 0 -55 -2 -55 -16c0 -5 11 1 11 -22c0 -37 -28 -53 -54 -53c-23 0 -46 15 -46 44c0 41 45 101 116 101h257l-245 -423c17 -1 49 -6 76 -6c24 0 44 4 47 20zM275 443
c-85 0 -140 -180 -140 -274c0 -77 32 -78 50 -78c29 0 71 30 83 88l48 226c0 12 -9 38 -41 38z" />
    <glyph glyph-name="b_s" unicode="bs" horiz-adv-x="799" 
d="M799 179h42c-47 -54 -96 -90 -139 -117c-34 -50 -93 -68 -147 -68c-119 0 -139 72 -139 133c0 59 37 95 72 95c34 0 52 -13 52 -42c0 -24 -22 -45 -48 -45c-10 0 -22 3 -27 13c0 -47 20 -75 58 -75c44 0 63 23 63 93c0 56 -11 87 -22 272c-47 -70 -100 -115 -158 -135
c-9 -121 -77 -309 -273 -309c-92 0 -140 48 -140 128c0 17 2 36 7 57l107 501l148 20l-48 -225c41 25 62 28 82 28c66 0 112 -39 117 -150c49 8 101 65 155 158l148 20c12 -259 22 -298 22 -364c0 -13 -1 -26 -3 -37c27 15 52 34 71 49zM288 338c0 18 5 31 13 41
c-7 30 -23 53 -48 53c-14 0 -48 -5 -59 -18l-55 -254c-2 -8 -3 -16 -3 -23c0 -29 17 -46 53 -46c57 0 105 109 115 207c-11 7 -16 20 -16 40z" />
    <glyph glyph-name="b_s_x" unicode="bsx" horiz-adv-x="1144" 
d="M795 500h141l39 -216c59 64 95 123 95 159c0 4 0 8 -1 12c-6 -1 -12 -2 -17 -2c-35 0 -47 25 -47 56c0 30 25 47 56 47c45 0 68 -40 68 -89c0 -65 -45 -134 -143 -238l9 -50c7 -38 15 -88 59 -88c39 0 75 38 90 88h42c-57 -163 -152 -185 -206 -185
c-66 0 -96 44 -119 148c-50 -35 -118 -61 -161 -82c-34 -48 -92 -66 -145 -66c-119 0 -139 72 -139 133c0 59 37 95 72 95c34 0 52 -13 52 -42c0 -24 -22 -45 -48 -45c-10 0 -22 3 -27 13c0 -47 20 -75 58 -75c44 0 63 23 63 93c0 56 -11 87 -22 272
c-47 -70 -100 -115 -158 -135c-9 -121 -77 -309 -273 -309c-92 0 -140 48 -140 128c0 17 2 36 7 57l107 501l148 20l-48 -225c41 25 62 28 82 28c66 0 112 -39 117 -150c49 8 101 65 155 158l148 20c12 -259 22 -298 22 -364c0 -16 -2 -31 -4 -44c41 17 90 43 124 72z
M288 338c0 18 5 31 13 41c-7 30 -23 53 -48 53c-14 0 -48 -5 -59 -18l-55 -254c-2 -8 -3 -16 -3 -23c0 -29 17 -46 53 -46c57 0 105 109 115 207c-11 7 -16 20 -16 40z" />
    <glyph glyph-name="b_s_z" unicode="bsz" horiz-adv-x="1158" 
d="M0 179l107 501l148 20l-48 -225c41 25 62 28 82 28c66 0 112 -39 117 -150c49 8 101 65 155 158l148 20c12 -259 22 -298 22 -364c0 -130 -94 -173 -176 -173c-119 0 -139 72 -139 133c0 59 37 95 72 95c34 0 52 -13 52 -42c0 -24 -22 -45 -48 -45c-10 0 -22 3 -27 13
c0 -47 20 -75 58 -75c44 0 63 23 63 93c0 56 -11 87 -22 272c-47 -70 -100 -115 -158 -135c-9 -121 -77 -309 -273 -309c-92 0 -140 48 -140 128c0 17 2 36 7 57zM1036 91c-13 1 -19 10 -19 21c0 18 19 43 56 43c30 0 44 -21 44 -48c0 -46 -45 -107 -122 -107h-265l255 446
h-56c-31 0 -55 -2 -55 -16c0 -5 11 1 11 -22c0 -37 -28 -53 -54 -53c-23 0 -46 15 -46 44c0 41 45 101 116 101h257l-245 -423c17 -1 49 -6 76 -6c24 0 44 4 47 20zM288 338c0 18 5 31 13 41c-7 30 -23 53 -48 53c-14 0 -48 -5 -59 -18l-55 -254c-2 -8 -3 -16 -3 -23
c0 -29 17 -46 53 -46c57 0 105 109 115 207c-11 7 -16 20 -16 40z" />
    <glyph glyph-name="c_x" unicode="cx" horiz-adv-x="755" 
d="M272 356c8 21 12 42 12 59c0 24 -8 41 -27 41c-64 0 -129 -190 -129 -281c0 -74 44 -99 101 -99c71 0 168 39 234 114l-57 310h141l39 -216c59 64 95 123 95 159c0 4 0 8 -1 12c-6 -1 -12 -2 -18 -2c-34 0 -46 27 -46 52c0 35 24 51 54 51c47 0 70 -39 70 -87
c0 -65 -42 -132 -143 -241l9 -49c7 -38 15 -88 59 -88c39 0 75 38 90 88h42c-57 -163 -153 -185 -203 -185c-68 0 -98 41 -120 138c-84 -86 -210 -138 -316 -138c-97 0 -178 43 -178 164c0 108 65 351 269 351c89 0 111 -46 111 -93c0 -51 -26 -72 -53 -72
c-12 0 -24 4 -35 12z" />
    <glyph glyph-name="c_z" unicode="cz" horiz-adv-x="769" 
d="M647 91c-13 1 -19 10 -19 21c0 18 19 43 56 43c30 0 44 -21 44 -48c0 -46 -45 -107 -122 -107h-265l255 446h-36c-31 0 -55 -2 -55 -16c0 -5 11 1 11 -22c0 -37 -28 -53 -54 -53c-23 0 -46 15 -46 44c0 41 45 101 116 101h237l-245 -423c37 0 62 -12 91 -12
c16 0 28 6 32 26zM272 356c8 21 12 42 12 59c0 24 -8 41 -27 41c-64 0 -129 -187 -129 -286c0 -62 26 -83 60 -83c39 0 89 29 120 55c-21 -114 -93 -148 -173 -148c-93 0 -155 46 -155 159c0 116 66 356 269 356c89 0 111 -46 111 -93c0 -51 -26 -72 -53 -72
c-12 0 -24 4 -35 12z" />
    <glyph glyph-name="e_x" unicode="ex" horiz-adv-x="762" 
d="M413 500h141l39 -216c59 64 95 123 95 159c0 4 0 8 -1 12c-6 -1 -12 -2 -18 -2c-34 0 -46 27 -46 52c0 35 24 51 54 51c47 0 70 -39 70 -87c0 -65 -42 -132 -143 -241l9 -49c7 -38 15 -88 59 -88c39 0 75 38 90 88h42c-57 -163 -153 -185 -203 -185
c-66 0 -96 38 -120 139c-80 -83 -204 -139 -316 -139c-97 0 -178 42 -178 163c0 109 65 352 270 352c89 0 110 -46 110 -96c0 -116 -110 -204 -231 -211c-1 -9 -1 -19 -1 -27c0 -75 44 -99 100 -99c71 0 169 39 235 114zM290 415c0 25 -6 41 -25 41
c-51 0 -101 -113 -121 -206c78 4 146 81 146 165z" />
    <glyph glyph-name="e_z" unicode="ez" horiz-adv-x="788" 
d="M128 172c0 -63 27 -83 62 -83c38 0 86 25 118 53c-21 -114 -93 -148 -173 -148c-93 0 -155 46 -155 159c0 115 65 356 270 356c89 0 110 -46 110 -96c0 -116 -110 -204 -230 -211c-1 -10 -2 -21 -2 -30zM666 91c-13 1 -19 10 -19 21c0 18 19 43 56 43c30 0 44 -21 44 -48
c0 -46 -45 -107 -122 -107h-265l255 446h-56c-31 0 -55 -2 -55 -16c0 -5 11 1 11 -22c0 -37 -28 -53 -54 -53c-23 0 -46 15 -46 44c0 41 45 101 116 101h257l-245 -423c17 -1 49 -6 76 -6c24 0 44 4 47 20zM283 415c0 25 -6 41 -25 41c-50 0 -100 -111 -121 -206
c78 4 146 81 146 165z" />
    <glyph glyph-name="eacute_x" unicode="&#xe9;x" horiz-adv-x="760" 
d="M411 500h141l39 -216c59 64 95 123 95 159c0 4 0 8 -1 12c-6 -1 -12 -2 -17 -2c-35 0 -47 25 -47 56c0 30 25 47 56 47c45 0 68 -40 68 -89c0 -65 -45 -134 -143 -238l9 -50c7 -38 15 -88 59 -88c39 0 75 38 90 88h42c-57 -163 -152 -185 -206 -185
c-64 0 -94 41 -117 139c-81 -84 -208 -139 -313 -139c-100 0 -181 43 -181 160c0 115 65 355 271 355c89 0 109 -46 109 -99c0 -111 -110 -201 -230 -208c-1 -11 -2 -22 -2 -32c0 -68 44 -94 103 -94c68 0 166 39 232 114zM224 561l91 189h105l-121 -189h-75zM288 412
c0 28 -6 44 -24 44c-52 0 -101 -110 -122 -206c78 5 146 83 146 162z" />
    <glyph glyph-name="ff" unicode="ff" horiz-adv-x="508" 
d="M-91 -250c-61 0 -118 43 -118 108c0 92 78 121 173 150l120 571c30 143 116 170 182 170c45 0 88 -24 107 -63c40 51 93 63 137 63c61 0 118 -43 118 -108c0 -16 -1 -29 -3 -41h-47c1 10 2 18 2 27c0 23 -18 34 -38 34c-22 0 -53 -12 -68 -79l-18 -82h100l-9 -40h-99
l-113 -540c-30 -143 -116 -170 -182 -170c-57 0 -92 25 -108 63c-39 -51 -92 -63 -136 -63zM204 460l-89 -423l103 18l85 405h-99zM72 -141c9 -16 32 -20 58 -20c21 0 46 19 59 78l24 114l-103 -19l-19 -92c-5 -23 -12 -44 -19 -61zM336 627c0 23 -18 34 -38 34
c-22 0 -53 -12 -68 -79l-18 -82h99l23 105c2 8 2 14 2 22zM-148 -128c0 -14 18 -33 40 -33c21 0 46 19 59 78l12 58c-63 -21 -111 -49 -111 -103z" />
    <glyph glyph-name="ffi" unicode="ffi" horiz-adv-x="764" 
d="M444 500h265l-72 -340c-3 -13 -4 -23 -4 -32c0 -28 13 -37 41 -37c39 0 75 38 90 88h42c-57 -163 -156 -185 -210 -185c-60 0 -107 36 -107 120c0 19 3 41 8 65l59 281h-120l-114 -540c-29 -138 -113 -170 -176 -170c-49 0 -89 20 -109 53c-38 -42 -87 -53 -128 -53
c-61 0 -118 43 -118 108c0 92 78 121 173 150l120 571c30 143 116 170 182 170c55 0 96 -17 123 -52c47 42 102 52 151 52c80 0 179 -18 179 -115c0 -60 -38 -81 -79 -81c-29 0 -60 11 -60 54c0 22 13 49 34 49c2 0 7 0 8 -1c-1 26 -23 40 -55 40c-65 0 -94 -56 -106 -113z
M206 460l-90 -424l88 15l86 409h-84zM108 -175c27 0 54 25 68 92l23 109l-89 -18l-19 -88c-5 -24 -12 -45 -20 -63c4 -27 27 -32 37 -32zM299 500l7 34c11 54 29 94 50 125c-9 10 -21 17 -40 17c-56 0 -78 -51 -86 -94l-16 -82h85zM-148 -128c0 -14 18 -33 40 -33
c20 0 47 19 59 78l12 58c-63 -21 -111 -49 -111 -103z" />
    <glyph glyph-name="ffl" unicode="ffl" horiz-adv-x="780" 
d="M-91 -250c-61 0 -118 43 -118 108c0 92 78 121 173 150l120 571c30 143 116 170 182 170c50 0 88 -14 115 -42c36 33 80 42 117 42c90 0 175 -33 265 -69l-110 -520c-3 -13 -4 -23 -4 -32c0 -28 13 -37 41 -37c39 0 75 38 90 88h42c-57 -163 -156 -185 -210 -185
c-60 0 -107 36 -107 120c0 19 3 41 8 65l104 491c-26 11 -69 16 -82 16c-22 0 -54 -12 -68 -79l-22 -107h93l-8 -40h-93l-115 -540c-29 -138 -113 -170 -176 -170c-50 0 -89 20 -109 54c-38 -43 -87 -54 -128 -54zM206 460l-90 -424l88 15l87 409h-85zM71 -142
c3 -28 27 -33 37 -33c27 0 54 25 68 92l23 109l-89 -18l-19 -88c-5 -23 -12 -44 -20 -62zM299 500l17 79c7 36 19 65 32 87c-8 6 -18 10 -32 10c-56 0 -78 -51 -86 -94l-16 -82h85zM-148 -128c0 -14 18 -33 40 -33c20 0 47 19 59 78l12 58c-63 -21 -111 -49 -111 -103z" />
    <glyph glyph-name="f_f_t" unicode="fft" horiz-adv-x="780" 
d="M-91 -250c-61 0 -118 43 -118 108c0 92 78 121 173 150l120 571c30 143 116 170 182 170c50 0 88 -14 115 -42c36 33 80 42 117 42c90 0 175 -33 265 -69l-38 -180h60l-8 -40h-61l-63 -300c-3 -13 -4 -23 -4 -32c0 -28 13 -37 41 -37c39 0 75 38 90 88h42
c-57 -163 -156 -185 -210 -185c-60 0 -107 36 -107 120c0 19 3 41 8 65l59 281h-135l-115 -540c-29 -138 -113 -170 -176 -170c-50 0 -89 20 -109 54c-38 -43 -87 -54 -128 -54zM206 460l-90 -424l88 15l87 409h-85zM581 500l36 170c-26 11 -69 16 -82 16
c-22 0 -54 -12 -68 -79l-22 -107h136zM71 -142c3 -28 27 -33 37 -33c27 0 54 25 68 92l23 109l-89 -18l-19 -88c-5 -23 -12 -44 -20 -62zM299 500l17 79c7 36 19 65 32 87c-8 6 -18 10 -32 10c-56 0 -78 -51 -86 -94l-16 -82h85zM-148 -128c0 -14 18 -33 40 -33
c20 0 47 19 59 78l12 58c-63 -21 -111 -49 -111 -103z" />
    <glyph glyph-name="fi" unicode="fi" horiz-adv-x="534" 
d="M411 553c-29 0 -60 11 -60 54c0 22 13 49 34 49c2 0 7 0 8 -1c-1 26 -23 40 -55 40c-65 0 -94 -56 -106 -113l-17 -82h80l-8 -40h-80l-114 -540c-29 -138 -113 -170 -176 -170c-73 0 -124 43 -124 112c0 89 87 120 173 146l111 526c39 184 148 215 234 215
c80 0 179 -18 179 -115c0 -60 -38 -81 -79 -81zM-152 -121c0 -34 30 -40 41 -40c20 0 46 21 58 78l12 58c-63 -20 -111 -54 -111 -96zM335 500h144l-72 -340c-3 -13 -4 -23 -4 -32c0 -28 13 -37 41 -37c39 0 75 38 90 88h42c-57 -163 -156 -185 -210 -185
c-60 0 -107 36 -107 120c0 19 3 41 8 65z" />
    <glyph glyph-name="f_i_x" unicode="fix" horiz-adv-x="898" 
d="M411 553c-29 0 -60 11 -60 54c0 22 13 49 34 49c2 0 7 0 8 -1c-1 26 -23 40 -55 40c-65 0 -94 -56 -106 -113l-17 -82h80l-8 -40h-80l-114 -540c-29 -138 -113 -170 -176 -170c-73 0 -124 43 -124 112c0 89 87 120 173 146l111 526c39 184 148 215 234 215
c80 0 179 -18 179 -115c0 -60 -38 -81 -79 -81zM335 500h144l-72 -340c-3 -13 -4 -23 -4 -32c0 -25 18 -36 44 -36c51 0 116 39 159 94l-57 314h141l39 -216c59 64 95 123 95 159c0 4 0 8 -1 12c-6 -1 -12 -2 -17 -2c-35 0 -47 25 -47 56c0 30 25 47 56 47
c45 0 68 -40 68 -89c0 -65 -45 -134 -143 -238l9 -50c7 -38 15 -88 59 -88c39 0 75 38 90 88h42c-57 -163 -152 -185 -206 -185c-64 0 -94 41 -116 138c-65 -73 -160 -138 -253 -138c-61 0 -106 37 -106 119c0 19 3 41 8 66zM-152 -121c0 -34 30 -40 41 -40
c20 0 46 21 58 78l12 58c-63 -20 -111 -54 -111 -96z" />
    <glyph glyph-name="f_i_z" unicode="fiz" horiz-adv-x="904" 
d="M-152 -121c0 -34 30 -40 41 -40c20 0 46 21 58 78l12 58c-63 -20 -111 -54 -111 -96zM411 553c-29 0 -60 11 -60 54c0 22 13 49 34 49c2 0 7 0 8 -1c-1 26 -23 40 -55 40c-65 0 -94 -56 -106 -113l-17 -82h80l-8 -40h-80l-114 -540c-29 -138 -113 -170 -176 -170
c-73 0 -124 43 -124 112c0 89 87 120 173 146l111 526c39 184 148 215 234 215c80 0 179 -18 179 -115c0 -60 -38 -81 -79 -81zM335 500h144l-72 -340c-3 -13 -4 -23 -4 -32c0 -28 13 -37 41 -37c18 0 26 3 32 6c-5 -71 -56 -103 -110 -103c-60 0 -107 36 -107 120
c0 19 3 41 8 65zM782 91c-13 1 -19 10 -19 21c0 18 19 43 56 43c30 0 44 -21 44 -48c0 -46 -45 -107 -122 -107h-265l255 446h-56c-31 0 -55 -2 -55 -16c0 -5 11 1 11 -22c0 -37 -28 -53 -54 -53c-23 0 -46 15 -46 44c0 41 45 101 116 101h257l-245 -423c17 -1 49 -6 76 -6
c24 0 44 4 47 20z" />
    <glyph glyph-name="fl" unicode="fl" horiz-adv-x="548" 
d="M-154 -128c0 -14 18 -33 40 -33c20 0 47 19 59 78l12 58c-63 -21 -111 -49 -111 -103zM531 680l-110 -520c-3 -13 -4 -23 -4 -32c0 -28 13 -37 41 -37c39 0 75 38 90 88h42c-57 -163 -156 -185 -210 -185c-60 0 -107 36 -107 120c0 19 3 41 8 65l104 491
c-26 11 -69 16 -82 16c-22 0 -54 -12 -68 -79l-22 -107h93l-8 -40h-93l-114 -540c-30 -143 -116 -170 -182 -170c-61 0 -118 43 -118 108c0 92 78 121 173 150l120 571c30 143 117 170 182 170c90 0 175 -33 265 -69z" />
    <glyph glyph-name="f_l_x" unicode="flx" horiz-adv-x="912" 
d="M531 680l-110 -520c-3 -13 -4 -23 -4 -32c0 -25 18 -36 44 -36c51 0 116 39 159 94l-57 314h141l39 -216c59 64 95 123 95 159c0 4 0 8 -1 12c-6 -1 -12 -2 -17 -2c-35 0 -47 25 -47 56c0 30 25 47 56 47c45 0 68 -40 68 -89c0 -65 -45 -134 -143 -238l9 -50
c7 -38 15 -88 59 -88c39 0 75 38 90 88h42c-57 -163 -152 -185 -206 -185c-64 0 -94 41 -116 138c-65 -73 -160 -138 -253 -138c-61 0 -106 37 -106 119c0 19 3 41 8 66l104 491c-26 11 -69 16 -82 16c-22 0 -54 -12 -68 -79l-22 -107h93l-8 -40h-93l-114 -540
c-30 -143 -116 -170 -182 -170c-61 0 -118 43 -118 108c0 92 78 121 173 150l120 571c30 143 117 170 182 170c90 0 175 -33 265 -69zM-154 -128c0 -14 18 -33 40 -33c21 0 46 19 59 78l12 58c-63 -21 -111 -49 -111 -103z" />
    <glyph glyph-name="f_l_z" unicode="flz" horiz-adv-x="938" 
d="M-154 -128c0 -14 18 -33 40 -33c20 0 47 19 59 78l12 58c-63 -21 -111 -49 -111 -103zM531 680l-110 -520c-3 -13 -4 -23 -4 -32c0 -28 13 -37 41 -37c18 0 26 3 32 6c-5 -71 -56 -103 -110 -103c-60 0 -107 36 -107 120c0 19 3 41 8 65l104 491c-26 11 -69 16 -82 16
c-22 0 -54 -12 -68 -79l-22 -107h93l-8 -40h-93l-114 -540c-30 -143 -116 -170 -182 -170c-61 0 -118 43 -118 108c0 92 78 121 173 150l120 571c30 143 117 170 182 170c90 0 175 -33 265 -69zM816 91c-13 1 -19 10 -19 21c0 18 19 43 56 43c30 0 44 -21 44 -48
c0 -46 -45 -107 -122 -107h-265l255 446h-56c-31 0 -55 -2 -55 -16c0 -5 11 1 11 -22c0 -37 -28 -53 -54 -53c-23 0 -46 15 -46 44c0 41 45 101 116 101h257l-245 -423c17 -1 49 -6 76 -6c24 0 44 4 47 20z" />
    <glyph glyph-name="f_t" unicode="ft" horiz-adv-x="548" 
d="M484 460l-63 -300c-3 -13 -4 -23 -4 -32c0 -28 13 -37 41 -37c39 0 75 38 90 88h42c-57 -163 -156 -185 -210 -185c-60 0 -107 36 -107 120c0 19 3 41 8 65l59 281h-135l-114 -540c-30 -143 -116 -170 -182 -170c-61 0 -118 43 -118 108c0 92 78 121 173 150l120 571
c30 143 117 170 182 170c90 0 175 -33 265 -69l-38 -180h60l-8 -40h-61zM349 500l36 170c-26 11 -69 16 -82 16c-22 0 -54 -12 -68 -79l-22 -107h136zM-154 -128c0 -14 18 -33 40 -33c21 0 46 19 59 78l12 58c-63 -21 -111 -49 -111 -103z" />
    <glyph glyph-name="f_u" unicode="fu" horiz-adv-x="772" 
d="M582 500h144l-72 -340c-3 -13 -4 -23 -4 -32c0 -28 13 -37 41 -37c39 0 66 38 81 88h42c-57 -163 -147 -185 -201 -185c-57 0 -93 33 -99 95c-50 -82 -106 -95 -148 -95c-60 0 -107 36 -107 120c0 19 3 41 8 65l59 281h-122l-115 -540c-30 -143 -113 -170 -179 -170
c-61 0 -118 43 -118 108c0 92 77 121 172 150l121 571c30 143 116 170 182 170c61 0 118 -43 118 -108c0 -16 -1 -29 -3 -41h-47c1 10 2 18 2 27c0 23 -18 34 -38 34c-22 0 -56 -15 -70 -82l-17 -79h267l-72 -340c-2 -10 -3 -19 -3 -28c0 -23 8 -41 30 -41c39 0 65 38 80 88
zM-153 -128c0 -14 18 -33 40 -33c21 0 44 19 57 78l13 58c-63 -21 -110 -49 -110 -103z" />
    <glyph glyph-name="f_x" unicode="fx" horiz-adv-x="663" 
d="M212 500h243l36 -198c62 56 98 103 98 141c0 4 0 8 -1 12c-6 -1 -12 -2 -17 -2c-35 0 -47 25 -47 56c0 30 25 47 56 47c45 0 68 -40 68 -89c0 -66 -44 -130 -146 -222l12 -66c7 -38 15 -88 59 -88c39 0 75 38 90 88h42c-57 -163 -152 -185 -206 -185
c-73 0 -102 54 -126 185l-2 7c-46 -31 -90 -72 -90 -112c5 1 9 1 13 1c34 0 41 -26 41 -49c0 -39 -23 -55 -56 -55c-45 0 -66 28 -66 71c0 66 75 153 148 200l-40 218h-117l-115 -540c-30 -143 -113 -170 -179 -170c-61 0 -118 43 -118 108c0 92 77 121 172 150l121 571
c30 143 116 170 182 170c61 0 118 -43 118 -108c0 -16 -1 -29 -3 -41h-47c1 10 2 18 2 27c0 23 -18 34 -38 34c-22 0 -56 -15 -70 -82zM-156 -128c0 -14 18 -33 40 -33c21 0 44 19 57 78l13 58c-63 -21 -110 -49 -110 -103z" />
    <glyph glyph-name="g_p" unicode="gp" horiz-adv-x="975" 
d="M583 537h144l-16 -75c29 25 67 43 117 43c68 0 122 -39 122 -158c0 -135 -52 -353 -246 -353c-34 0 -64 1 -92 3l-45 -211l-151 -36l53 252c-31 -1 -63 -4 -97 -11l-15 -71c-30 -143 -114 -170 -180 -170c-61 0 -112 32 -112 97c0 84 88 129 164 154l11 48
c-29 -31 -68 -55 -120 -55c-68 0 -133 42 -133 161c0 135 83 350 257 350c57 0 81 -22 81 -51v-6l11 52h144l-98 -459c34 8 67 14 100 19zM673 76c105 0 140 180 140 274c0 77 -32 83 -50 83c-22 0 -50 -17 -69 -49l-65 -309c14 1 29 1 44 1zM275 443
c-85 0 -140 -180 -140 -274c0 -77 32 -78 50 -78c27 0 66 27 80 78l51 237c-1 11 -9 37 -41 37zM120 -139c0 -14 12 -33 34 -33c21 0 45 30 58 89l6 29c-51 -19 -98 -45 -98 -85z" />
    <glyph glyph-name="g_x" unicode="gx" horiz-adv-x="892" 
d="M543 500h141l39 -216c59 64 95 123 95 159c0 4 0 8 -1 12c-6 -1 -12 -2 -17 -2c-35 0 -47 25 -47 56c0 30 25 47 56 47c45 0 68 -40 68 -89c0 -65 -45 -134 -143 -238l9 -50c7 -38 15 -88 59 -88c39 0 75 38 90 88h42c-57 -163 -152 -185 -206 -185
c-64 0 -94 40 -116 137c-73 -81 -167 -117 -240 -138l-15 -73c-30 -143 -114 -170 -180 -170c-61 0 -112 32 -112 97c0 84 88 123 163 146l12 57c-29 -31 -68 -56 -120 -56c-68 0 -133 42 -133 161c0 135 83 350 257 350c57 0 81 -22 81 -51v-7l11 53h144l-98 -461
c69 25 136 60 217 153zM275 443c-85 0 -140 -180 -140 -274c0 -77 32 -78 50 -78c28 0 69 27 81 81l50 233c0 12 -9 38 -41 38zM120 -139c0 -14 12 -33 34 -33c21 0 45 30 58 89l6 30c-51 -19 -98 -45 -98 -86z" />
    <glyph glyph-name="g_z" unicode="gz" horiz-adv-x="907" 
d="M324 452l10 48h145l-122 -580c-30 -143 -116 -170 -182 -170c-61 0 -118 43 -118 108c0 93 78 122 173 150l9 42c-29 -31 -68 -56 -120 -56c-68 0 -133 42 -133 161c0 135 83 350 257 350c57 0 81 -22 81 -53zM785 91c-13 1 -19 10 -19 21c0 18 19 43 56 43
c30 0 44 -21 44 -48c0 -46 -45 -107 -122 -107h-265l255 446h-56c-31 0 -55 -2 -55 -16c0 -5 11 1 11 -22c0 -37 -28 -53 -54 -53c-23 0 -46 15 -46 44c0 41 45 101 116 101h257l-245 -423c17 -1 49 -6 76 -6c24 0 44 4 47 20zM274 443c-85 0 -140 -180 -140 -274
c0 -77 32 -78 50 -78c27 0 69 24 80 75l51 242c-2 13 -11 35 -41 35zM112 -128c0 -14 18 -33 40 -33c21 0 46 19 59 78l12 59c-63 -21 -111 -50 -111 -104z" />
    <glyph glyph-name="ij" unicode="ij" horiz-adv-x="507" 
d="M88 633c0 44 35 80 79 80s80 -36 80 -80s-36 -79 -80 -79s-79 35 -79 79zM68 500h144l-72 -340c-3 -13 -4 -23 -4 -32c0 -28 13 -37 41 -37c18 0 26 3 32 6c-5 -71 -56 -103 -110 -103c-60 0 -107 36 -107 120c0 19 3 41 8 65zM336 500h144l-99 -464c61 22 98 56 126 143
h42c-39 -132 -115 -170 -177 -187l-15 -72c-30 -143 -114 -170 -180 -170c-61 0 -112 32 -112 97c0 84 88 126 164 149zM347 634c0 44 35 80 79 80s80 -36 80 -80s-36 -79 -80 -79s-79 35 -79 79zM120 -139c0 -14 12 -33 34 -33c21 0 45 30 58 89l6 29
c-51 -19 -98 -45 -98 -85z" />
    <glyph glyph-name="i_x" unicode="ix" horiz-adv-x="631" 
d="M68 500h144l-72 -340c-3 -13 -4 -23 -4 -32c0 -25 18 -36 44 -36c51 0 116 39 159 94l-57 314h141l39 -216c59 64 95 123 95 159c0 4 0 8 -1 12c-6 -1 -12 -2 -17 -2c-35 0 -47 25 -47 56c0 30 25 47 56 47c45 0 68 -40 68 -89c0 -65 -45 -134 -143 -238l9 -50
c7 -38 15 -88 59 -88c39 0 75 38 90 88h42c-57 -163 -152 -185 -206 -185c-64 0 -94 41 -116 138c-65 -73 -160 -138 -253 -138c-61 0 -106 37 -106 119c0 19 3 41 8 66zM88 633c0 44 35 80 79 80s80 -36 80 -80s-36 -79 -80 -79s-79 35 -79 79z" />
    <glyph glyph-name="i_z" unicode="iz" horiz-adv-x="637" 
d="M88 633c0 44 35 80 79 80s80 -36 80 -80s-36 -79 -80 -79s-79 35 -79 79zM68 500h144l-72 -340c-3 -13 -4 -23 -4 -32c0 -28 13 -37 41 -37c18 0 26 3 32 6c-5 -71 -56 -103 -110 -103c-60 0 -107 36 -107 120c0 19 3 41 8 65zM515 91c-13 1 -19 10 -19 21
c0 18 19 43 56 43c30 0 44 -21 44 -48c0 -46 -45 -107 -122 -107h-265l255 446h-56c-31 0 -55 -2 -55 -16c0 -5 11 1 11 -22c0 -37 -28 -53 -54 -53c-23 0 -46 15 -46 44c0 41 45 101 116 101h257l-245 -423c17 -1 49 -6 76 -6c24 0 44 4 47 20z" />
    <glyph glyph-name="iacute_x" unicode="&#xed;x" horiz-adv-x="631" 
d="M68 500h144l-72 -340c-3 -13 -4 -23 -4 -32c0 -25 18 -36 44 -36c51 0 116 39 159 94l-57 314h141l39 -216c59 64 95 123 95 159c0 4 0 8 -1 12c-6 -1 -12 -2 -17 -2c-35 0 -47 25 -47 56c0 30 25 47 56 47c45 0 68 -40 68 -89c0 -65 -45 -134 -143 -238l9 -50
c7 -38 15 -88 59 -88c39 0 75 38 90 88h42c-57 -163 -152 -185 -206 -185c-64 0 -94 41 -116 138c-65 -73 -160 -138 -253 -138c-61 0 -106 37 -106 119c0 19 3 41 8 66zM112 561l91 189h105l-121 -189h-75z" />
    <glyph glyph-name="iacute_z" unicode="&#xed;z" horiz-adv-x="637" 
d="M68 500h144l-72 -340c-3 -13 -4 -23 -4 -32c0 -28 13 -37 41 -37c18 0 26 3 32 6c-5 -71 -56 -103 -110 -103c-60 0 -107 36 -107 120c0 19 3 41 8 65zM515 91c-13 1 -19 10 -19 21c0 18 19 43 56 43c30 0 44 -21 44 -48c0 -46 -45 -107 -122 -107h-265l255 446h-56
c-31 0 -55 -2 -55 -16c0 -5 11 1 11 -22c0 -37 -28 -53 -54 -53c-23 0 -46 15 -46 44c0 41 45 101 116 101h257l-245 -423c17 -1 49 -6 76 -6c24 0 44 4 47 20zM111 561l91 189h105l-121 -189h-75z" />
    <glyph glyph-name="j_x" unicode="jx" horiz-adv-x="624" 
d="M275 500h141l39 -216c59 64 95 123 95 159c0 4 0 8 -1 12c-6 -1 -12 -2 -17 -2c-35 0 -47 25 -47 56c0 30 25 47 56 47c45 0 68 -40 68 -89c0 -65 -45 -134 -143 -238l9 -50c7 -38 15 -88 59 -88c39 0 75 38 90 88h42c-57 -163 -152 -185 -206 -185
c-64 0 -94 40 -116 137c-73 -81 -167 -117 -240 -138l-15 -73c-30 -143 -114 -170 -180 -170c-61 0 -112 32 -112 97c0 84 88 123 164 146l107 507h144l-98 -461c69 25 136 60 217 153zM79 634c0 44 35 80 79 80s80 -36 80 -80s-36 -79 -80 -79s-79 35 -79 79zM-148 -139
c0 -14 12 -33 34 -33c21 0 45 30 58 89l7 30c-52 -19 -99 -45 -99 -86z" />
    <glyph glyph-name="j_z" unicode="jz" horiz-adv-x="618" 
d="M-32 8l103 492h145l-122 -580c-30 -143 -116 -170 -182 -170c-61 0 -118 43 -118 108c0 93 78 122 174 150zM496 91c-13 1 -19 10 -19 21c0 18 19 43 56 43c30 0 44 -21 44 -48c0 -46 -45 -107 -122 -107h-265l255 446h-56c-31 0 -55 -2 -55 -16c0 -5 11 1 11 -22
c0 -37 -28 -53 -54 -53c-23 0 -46 15 -46 44c0 41 45 101 116 101h257l-245 -423c17 -1 49 -6 76 -6c24 0 44 4 47 20zM87 634c0 44 35 80 79 80s80 -36 80 -80s-36 -79 -80 -79s-79 35 -79 79zM-151 -128c0 -14 18 -33 40 -33c21 0 46 19 59 78l13 59
c-64 -21 -112 -50 -112 -104z" />
    <glyph glyph-name="l_x" unicode="lx" horiz-adv-x="631" 
d="M1 179l106 501l148 20l-114 -540c-3 -13 -4 -23 -4 -32c0 -25 18 -36 44 -36c50 0 115 38 159 93l-58 315h141l39 -216c59 64 95 123 95 159c0 4 0 8 -1 12c-6 -1 -12 -2 -17 -2c-35 0 -47 25 -47 56c0 30 25 47 56 47c45 0 68 -40 68 -89c0 -65 -45 -134 -143 -238
l9 -50c7 -38 15 -88 59 -88c39 0 75 38 90 88h42c-57 -163 -152 -185 -206 -185c-64 0 -94 40 -116 137c-65 -73 -160 -137 -252 -137c-61 0 -106 37 -106 119c0 19 3 41 8 66z" />
    <glyph glyph-name="l_z" unicode="lz" horiz-adv-x="635" 
d="M253 702l-115 -540c-2 -10 -4 -20 -4 -29c0 -23 10 -40 41 -40c18 0 26 3 32 6c-5 -71 -56 -105 -110 -105c-60 0 -107 37 -107 122c0 19 3 41 8 65l107 501zM513 91c-13 1 -19 10 -19 21c0 18 19 43 56 43c30 0 44 -21 44 -48c0 -46 -45 -107 -122 -107h-265l255 446
h-56c-31 0 -55 -2 -55 -16c0 -5 11 1 11 -22c0 -37 -28 -53 -54 -53c-23 0 -46 15 -46 44c0 41 45 101 116 101h257l-245 -423c17 -1 49 -6 76 -6c24 0 44 4 47 20z" />
    <glyph glyph-name="m_x" unicode="mx" horiz-adv-x="1124" 
d="M775 500h141l39 -216c59 64 95 123 95 159c0 4 0 8 -1 12c-6 -1 -12 -2 -17 -2c-35 0 -47 25 -47 56c0 30 25 47 56 47c45 0 68 -40 68 -89c0 -65 -45 -134 -143 -238l9 -50c7 -38 15 -88 59 -88c39 0 75 38 90 88h42c-57 -163 -152 -185 -206 -185
c-64 0 -94 41 -117 138c-68 -73 -170 -138 -241 -138c-87 0 -112 56 -112 113c0 68 45 191 45 255c0 33 -12 51 -36 51c-36 0 -63 -42 -78 -92l-68 -321h-144l73 345c2 8 3 16 3 25c0 22 -8 44 -30 44c-39 0 -66 -43 -81 -93l-68 -321h-144l106 500h144l-11 -52
c42 48 87 57 122 57c53 0 92 -24 103 -86c48 74 102 85 139 85c64 0 111 -33 111 -113c0 -81 -48 -202 -48 -258c0 -25 14 -42 44 -42c46 0 115 40 160 95z" />
    <glyph glyph-name="m_z" unicode="mz" horiz-adv-x="1125" 
d="M535 362c0 33 -12 51 -36 51c-36 0 -63 -42 -78 -92l-68 -321h-144l73 345c2 8 3 16 3 25c0 22 -8 44 -30 44c-39 0 -66 -43 -81 -93l-68 -321h-144l106 500h144l-11 -52c42 48 87 57 122 57c53 0 92 -24 103 -86c48 74 102 85 139 85c64 0 111 -33 111 -113
c0 -81 -48 -202 -48 -258c0 -25 10 -42 40 -42c17 0 27 2 33 6c-9 -72 -57 -103 -110 -103c-77 0 -101 56 -101 113c0 68 45 191 45 255zM1003 91c-13 1 -19 10 -19 21c0 18 19 43 56 43c30 0 44 -21 44 -48c0 -46 -45 -107 -122 -107h-265l255 446h-56
c-31 0 -55 -2 -55 -16c0 -5 11 1 11 -22c0 -37 -28 -53 -54 -53c-23 0 -46 15 -46 44c0 41 45 101 116 101h257l-245 -423c17 -1 49 -6 76 -6c24 0 44 4 47 20z" />
    <glyph glyph-name="n_z" unicode="nz" horiz-adv-x="882" 
d="M288 362c0 33 -12 51 -36 51c-36 0 -63 -42 -78 -92l-68 -321h-144l106 500h144l-11 -52c42 48 86 56 117 56c64 0 111 -33 111 -113c0 -81 -48 -202 -48 -258c0 -25 10 -42 40 -42c17 0 27 2 33 6c-9 -72 -57 -103 -110 -103c-77 0 -101 56 -101 113c0 68 45 191 45 255
zM760 91c-13 1 -19 10 -19 21c0 18 19 43 56 43c30 0 44 -21 44 -48c0 -46 -45 -107 -122 -107h-265l255 446h-56c-31 0 -55 -2 -55 -16c0 -5 11 1 11 -22c0 -37 -28 -53 -54 -53c-23 0 -46 15 -46 44c0 41 45 101 116 101h257l-245 -423c17 -1 49 -6 76 -6c24 0 44 4 47 20
z" />
    <glyph glyph-name="o_ae" unicode="o&#xe6;" horiz-adv-x="1089" 
d="M259 509c83 0 125 -52 128 -151c120 49 164 147 295 147c67 0 116 -12 149 -41c35 25 79 41 132 41c89 0 109 -42 109 -95c0 -111 -110 -201 -230 -208c-1 -11 -2 -22 -2 -32c0 -75 24 -92 60 -92c96 0 134 40 189 101h34c-56 -90 -140 -185 -276 -185
c-73 0 -128 28 -147 96c-25 -47 -63 -96 -136 -96c-68 0 -133 24 -133 131c0 123 95 165 228 165c20 0 35 -2 46 -4c13 29 22 62 22 90c0 39 -18 70 -68 70c-114 0 -132 -86 -273 -133c-11 -194 -111 -317 -238 -317c-93 0 -160 44 -160 158c0 115 65 355 271 355zM188 86
c49 0 99 91 113 209c-18 4 -27 22 -27 48c0 28 13 46 31 53c-3 38 -14 52 -38 52c-71 0 -130 -183 -130 -281c0 -66 13 -81 51 -81zM995 412c0 28 -6 44 -24 44c-52 0 -101 -110 -122 -206c78 5 146 83 146 162zM699 228c-6 1 -14 1 -20 1c-59 0 -107 -30 -107 -91
c0 -42 33 -47 51 -47c25 0 57 29 76 137z" />
    <glyph glyph-name="o_s" unicode="os" horiz-adv-x="786" 
d="M548 511l148 20c12 -259 22 -298 22 -364c0 -13 -1 -26 -3 -37c27 15 52 34 71 49h42c-47 -54 -96 -90 -139 -117c-34 -50 -93 -68 -147 -68c-119 0 -139 72 -139 133c0 59 37 95 72 95c34 0 52 -13 52 -42c0 -24 -22 -45 -48 -45c-10 0 -22 3 -27 13
c0 -47 20 -75 58 -75c44 0 63 23 63 93c0 56 -11 87 -22 272c-49 -74 -106 -119 -168 -138c-14 -187 -113 -304 -237 -304c-93 0 -160 44 -160 158c0 115 65 355 271 355c85 0 127 -54 128 -157c51 3 106 61 163 159zM186 86c49 0 98 90 113 207c-16 6 -24 20 -24 45
c0 27 11 44 28 52c-2 42 -13 58 -38 58c-71 0 -130 -183 -130 -281c0 -66 13 -81 51 -81z" />
    <glyph glyph-name="o_s_x" unicode="osx" horiz-adv-x="1132" 
d="M549 511l148 20c12 -259 22 -298 22 -364c0 -16 -2 -31 -4 -44c41 17 90 43 124 72l-56 305h141l39 -216c59 64 95 123 95 159c0 4 0 8 -1 12c-6 -1 -12 -2 -17 -2c-35 0 -47 25 -47 56c0 30 25 47 56 47c45 0 68 -40 68 -89c0 -65 -45 -134 -143 -238l9 -50
c7 -38 15 -88 59 -88c39 0 75 38 90 88h42c-57 -163 -152 -185 -206 -185c-66 0 -96 44 -119 148c-50 -35 -118 -61 -161 -82c-34 -48 -92 -66 -145 -66c-119 0 -139 72 -139 133c0 59 37 95 72 95c34 0 52 -13 52 -42c0 -24 -22 -45 -48 -45c-10 0 -22 3 -27 13
c0 -47 20 -75 58 -75c44 0 63 23 63 93c0 56 -11 87 -22 272c-49 -74 -106 -119 -168 -138c-14 -187 -113 -304 -237 -304c-93 0 -160 44 -160 158c0 115 65 355 271 355c85 0 127 -54 128 -157c51 3 106 61 163 159zM187 86c49 0 98 90 113 207c-16 6 -24 20 -24 45
c0 27 11 44 28 52c-2 42 -13 58 -38 58c-71 0 -130 -183 -130 -281c0 -66 13 -81 51 -81z" />
    <glyph glyph-name="o_s_z" unicode="osz" horiz-adv-x="1139" 
d="M548 511l148 20c12 -259 22 -298 22 -364c0 -130 -94 -173 -176 -173c-119 0 -139 72 -139 133c0 59 37 95 72 95c34 0 52 -13 52 -42c0 -24 -22 -45 -48 -45c-10 0 -22 3 -27 13c0 -47 20 -75 58 -75c44 0 63 23 63 93c0 56 -11 87 -22 272c-49 -74 -106 -119 -168 -138
c-14 -187 -113 -304 -237 -304c-93 0 -160 44 -160 158c0 115 65 355 271 355c85 0 127 -54 128 -157c51 3 106 61 163 159zM1017 91c-13 1 -19 10 -19 21c0 18 19 43 56 43c30 0 44 -21 44 -48c0 -46 -45 -107 -122 -107h-265l255 446h-56c-31 0 -55 -2 -55 -16
c0 -5 11 1 11 -22c0 -37 -28 -53 -54 -53c-23 0 -46 15 -46 44c0 41 45 101 116 101h257l-245 -423c17 -1 49 -6 76 -6c24 0 44 4 47 20zM186 86c49 0 98 90 113 207c-16 6 -24 20 -24 45c0 27 11 44 28 52c-2 42 -13 58 -38 58c-71 0 -130 -183 -130 -281
c0 -66 13 -81 51 -81z" />
    <glyph glyph-name="o_x" unicode="ox" horiz-adv-x="851" 
d="M259 509c85 0 127 -54 128 -157c39 4 80 40 123 100l-9 48h141l36 -198c62 56 98 103 98 141c0 4 0 8 -1 12c-6 -1 -12 -2 -17 -2c-35 0 -47 25 -47 56c0 30 25 47 56 47c45 0 68 -40 68 -89c0 -66 -44 -130 -146 -222l12 -66c7 -38 15 -88 59 -88c39 0 75 38 90 88h42
c-57 -163 -152 -185 -206 -185c-73 0 -102 54 -126 185l-2 7c-46 -31 -90 -72 -90 -112c5 1 9 1 13 1c34 0 41 -26 41 -49c0 -39 -23 -55 -56 -55c-45 0 -66 28 -66 71c0 66 75 153 148 200l-28 155c-41 -49 -87 -81 -135 -96c-15 -188 -117 -305 -240 -305
c-93 0 -160 44 -160 158c0 115 68 355 274 355zM185 86c49 0 100 90 116 207c-18 5 -27 19 -27 45c0 28 13 46 31 53c-2 42 -13 57 -38 57c-71 0 -133 -183 -133 -281c0 -66 13 -81 51 -81z" />
    <glyph glyph-name="oacute_s" unicode="&#xf3;s" horiz-adv-x="787" 
d="M549 511l148 20c12 -259 22 -298 22 -364c0 -13 -1 -26 -3 -37c27 15 52 34 71 49h42c-47 -54 -96 -90 -139 -117c-34 -50 -93 -68 -147 -68c-119 0 -139 72 -139 133c0 59 37 95 72 95c34 0 52 -13 52 -42c0 -24 -22 -45 -48 -45c-10 0 -22 3 -27 13
c0 -47 20 -75 58 -75c44 0 63 23 63 93c0 56 -11 87 -22 272c-49 -74 -106 -119 -168 -138c-14 -187 -113 -304 -237 -304c-93 0 -160 44 -160 158c0 115 65 355 271 355c85 0 127 -54 128 -157c51 3 106 61 163 159zM187 86c49 0 98 90 113 207c-16 6 -24 20 -24 45
c0 27 11 44 28 52c-2 42 -13 58 -38 58c-71 0 -130 -183 -130 -281c0 -66 13 -81 51 -81zM219 561l91 189h105l-121 -189h-75z" />
    <glyph glyph-name="oacute_s_x" unicode="&#xf3;sx" horiz-adv-x="1141" 
d="M550 511l148 20c12 -259 22 -298 22 -364c0 -130 -94 -173 -176 -173c-119 0 -139 72 -139 133c0 59 37 95 72 95c34 0 52 -13 52 -42c0 -24 -22 -45 -48 -45c-10 0 -22 3 -27 13c0 -47 20 -75 58 -75c44 0 63 23 63 93c0 56 -11 87 -22 272c-49 -74 -106 -119 -168 -138
c-14 -187 -113 -304 -237 -304c-93 0 -160 44 -160 158c0 115 65 355 271 355c85 0 127 -54 128 -157c51 3 106 61 163 159zM1019 91c-13 1 -19 10 -19 21c0 18 19 43 56 43c30 0 44 -21 44 -48c0 -46 -45 -107 -122 -107h-265l255 446h-56c-31 0 -55 -2 -55 -16
c0 -5 11 1 11 -22c0 -37 -28 -53 -54 -53c-23 0 -46 15 -46 44c0 41 45 101 116 101h257l-245 -423c17 -1 49 -6 76 -6c24 0 44 4 47 20zM188 86c49 0 98 90 113 207c-16 6 -24 20 -24 45c0 27 11 44 28 52c-2 42 -13 58 -38 58c-71 0 -130 -183 -130 -281
c0 -66 13 -81 51 -81zM220 561l91 189h105l-121 -189h-75z" />
    <glyph glyph-name="oacute_s_z" unicode="&#xf3;sz" horiz-adv-x="1140" 
d="M549 511l148 20c12 -259 22 -298 22 -364c0 -130 -94 -173 -176 -173c-119 0 -139 72 -139 133c0 59 37 95 72 95c34 0 52 -13 52 -42c0 -24 -22 -45 -48 -45c-10 0 -22 3 -27 13c0 -47 20 -75 58 -75c44 0 63 23 63 93c0 56 -11 87 -22 272c-49 -74 -106 -119 -168 -138
c-14 -187 -113 -304 -237 -304c-93 0 -160 44 -160 158c0 115 65 355 271 355c85 0 127 -54 128 -157c51 3 106 61 163 159zM1018 91c-13 1 -19 10 -19 21c0 18 19 43 56 43c30 0 44 -21 44 -48c0 -46 -45 -107 -122 -107h-265l255 446h-56c-31 0 -55 -2 -55 -16
c0 -5 11 1 11 -22c0 -37 -28 -53 -54 -53c-23 0 -46 15 -46 44c0 41 45 101 116 101h257l-245 -423c17 -1 49 -6 76 -6c24 0 44 4 47 20zM187 86c49 0 98 90 113 207c-16 6 -24 20 -24 45c0 27 11 44 28 52c-2 42 -13 58 -38 58c-71 0 -130 -183 -130 -281
c0 -66 13 -81 51 -81zM219 561l91 189h105l-121 -189h-75z" />
    <glyph glyph-name="oacute_x" unicode="&#xf3;x" horiz-adv-x="852" 
d="M260 509c85 0 127 -54 128 -157c39 4 80 40 123 100l-9 48h141l36 -198c62 56 98 103 98 141c0 4 0 8 -1 12c-6 -1 -12 -2 -17 -2c-35 0 -47 25 -47 56c0 30 25 47 56 47c45 0 68 -40 68 -89c0 -66 -44 -130 -146 -222l12 -66c7 -38 15 -88 59 -88c39 0 75 38 90 88h42
c-57 -163 -152 -185 -206 -185c-73 0 -102 54 -126 185l-2 7c-46 -31 -90 -72 -90 -112c5 1 9 1 13 1c34 0 41 -26 41 -49c0 -39 -23 -55 -56 -55c-45 0 -66 28 -66 71c0 66 75 153 148 200l-28 155c-41 -49 -87 -81 -135 -96c-15 -188 -117 -305 -240 -305
c-93 0 -160 44 -160 158c0 115 68 355 274 355zM186 86c49 0 100 90 116 207c-18 5 -27 19 -27 45c0 28 13 46 31 53c-2 42 -13 57 -38 57c-71 0 -133 -183 -133 -281c0 -66 13 -81 51 -81zM218 561l91 189h105l-121 -189h-75z" />
    <glyph glyph-name="r_x" unicode="rx" horiz-adv-x="784" 
d="M422 500h141l45 -202c64 58 102 106 102 145c0 4 0 8 -1 12c-6 -1 -12 -2 -17 -2c-35 0 -47 25 -47 56c0 30 25 47 56 47c45 0 68 -40 68 -89c0 -67 -44 -131 -149 -224l15 -64c9 -38 15 -88 59 -88c39 0 75 38 90 88h42c-57 -163 -149 -185 -203 -185
c-73 0 -100 55 -129 185l-2 7c-46 -31 -90 -72 -90 -112c5 1 9 1 13 1c34 0 41 -26 41 -49c0 -39 -23 -55 -56 -55c-45 0 -66 28 -66 71c0 66 73 151 146 198zM68 500h144l-13 -62c35 30 73 62 121 62c45 0 69 -37 69 -75c0 -35 -23 -73 -72 -73c-56 0 -28 66 -58 66
s-48 -15 -73 -38l-80 -380h-144z" />
    <glyph glyph-name="r_z" unicode="rz" horiz-adv-x="654" 
d="M259 418c-30 0 -48 -15 -73 -38l-80 -380h-144l106 500h144l-13 -62c35 30 73 62 121 62h334l-245 -423c37 0 62 -12 91 -12c16 0 28 6 32 26c-13 1 -19 10 -19 21c0 18 19 43 56 43c30 0 44 -21 44 -48c0 -46 -45 -107 -122 -107h-265l254 443h-93c1 -5 1 -10 1 -15
c0 -42 -26 -76 -71 -76c-56 0 -28 66 -58 66z" />
    <glyph glyph-name="s_x" unicode="sx" horiz-adv-x="727" 
d="M378 500h141l39 -216c59 64 95 123 95 159c0 4 0 8 -1 12c-6 -1 -12 -2 -17 -2c-35 0 -47 25 -47 56c0 30 25 47 56 47c45 0 68 -40 68 -89c0 -65 -45 -134 -143 -238l9 -50c7 -38 15 -88 59 -88c39 0 75 38 90 88h42c-57 -163 -152 -185 -206 -185
c-66 0 -96 44 -119 148c-55 -39 -132 -66 -173 -88c-42 -44 -106 -60 -157 -60c-102 0 -146 67 -146 128c0 46 26 80 53 93c56 99 92 198 123 296l148 20c12 -259 22 -298 22 -364c0 -16 -2 -31 -5 -45c41 17 91 43 125 73zM92 179c0 -24 -18 -49 -44 -49
c-10 0 -22 3 -27 13c0 -47 17 -70 61 -70s87 23 87 93c0 52 -9 83 -19 237c-20 -65 -48 -125 -81 -189c13 -6 23 -18 23 -35z" />
    <glyph glyph-name="s_z" unicode="sz" horiz-adv-x="744" 
d="M144 511l148 20c12 -259 22 -298 22 -364c0 -130 -118 -173 -200 -173c-102 0 -146 67 -146 128c0 46 26 80 53 93c56 99 92 198 123 296zM622 91c-13 1 -19 10 -19 21c0 18 19 43 56 43c30 0 44 -21 44 -48c0 -46 -45 -107 -122 -107h-265l255 446h-56
c-31 0 -55 -2 -55 -16c0 -5 11 1 11 -22c0 -37 -28 -53 -54 -53c-23 0 -46 15 -46 44c0 41 45 101 116 101h257l-245 -423c17 -1 49 -6 76 -6c24 0 44 4 47 20zM92 179c0 -24 -18 -49 -44 -49c-10 0 -22 3 -27 13c0 -47 17 -70 61 -70s87 23 87 93c0 52 -9 83 -19 237
c-20 -65 -48 -125 -81 -189c13 -6 23 -18 23 -35z" />
    <glyph glyph-name="t_x" unicode="tx" horiz-adv-x="631" 
d="M1 179l60 281h-33l8 40h33l30 138l148 20l-34 -158h210l39 -216c59 64 95 123 95 159c0 4 0 8 -1 12c-6 -1 -12 -2 -17 -2c-35 0 -47 25 -47 56c0 30 25 47 56 47c45 0 68 -40 68 -89c0 -65 -45 -134 -143 -238l9 -50c7 -38 15 -88 59 -88c39 0 75 38 90 88h42
c-57 -163 -152 -185 -206 -185c-64 0 -94 40 -116 137c-65 -73 -160 -137 -252 -137c-61 0 -106 37 -106 119c0 19 3 41 8 66zM205 460l-64 -300c-3 -13 -4 -23 -4 -32c0 -25 18 -36 44 -36c50 0 115 38 159 93l-51 275h-84z" />
    <glyph glyph-name="t_z" unicode="tz" horiz-adv-x="704" 
d="M208 460l-64 -300c-3 -12 -5 -24 -5 -35c0 -21 8 -36 35 -36c7 0 18 0 26 3c-28 -86 -72 -98 -106 -98c-70 0 -100 49 -100 113c0 17 2 35 6 53l64 300h-33l8 40h33l30 138l148 20s-15 -68 -34 -158h60l-8 -40h-60zM582 91c-13 1 -19 10 -19 21c0 18 19 43 56 43
c30 0 44 -21 44 -48c0 -46 -45 -107 -122 -107h-265l255 446h-56c-31 0 -55 -2 -55 -16c0 -5 11 1 11 -22c0 -37 -28 -53 -54 -53c-23 0 -46 15 -46 44c0 41 45 101 116 101h257l-245 -423c17 -1 49 -6 76 -6c24 0 44 4 47 20z" />
    <glyph glyph-name="u_v" unicode="uv" horiz-adv-x="923" 
d="M68 500h144l-72 -340c-2 -8 -3 -17 -3 -25c0 -23 7 -44 30 -44c39 0 65 38 80 88l68 321h143l-106 -500h-143l11 51c-43 -48 -87 -57 -121 -57c-60 0 -107 36 -107 120c0 19 3 41 8 65zM836 520c43 0 64 -38 64 -90c0 -156 -79 -436 -281 -436c-77 0 -124 40 -124 115
c0 15 2 32 6 51l59 286l-26 13l8 41h176l-73 -340c-3 -14 -6 -26 -6 -37c0 -19 9 -32 38 -32c88 0 165 199 165 312v16c-6 -2 -15 -4 -21 -4c-29 0 -42 28 -42 56c0 21 24 49 57 49z" />
    <glyph glyph-name="u_x" unicode="ux" horiz-adv-x="878" 
d="M68 500h144l-72 -340c-2 -8 -3 -17 -3 -25c0 -23 7 -44 30 -44c39 0 65 38 80 88l68 321h144l-72 -340c-2 -9 -3 -17 -3 -25c0 -25 10 -44 43 -44c52 0 118 43 160 94l-58 315h141l39 -216c59 64 95 123 95 159c0 4 0 8 -1 12c-6 -1 -12 -2 -17 -2c-35 0 -47 25 -47 56
c0 30 25 47 56 47c45 0 68 -40 68 -89c0 -65 -45 -134 -143 -238l9 -50c7 -38 15 -88 59 -88c39 0 75 38 90 88h42c-57 -163 -152 -185 -206 -185c-63 0 -93 39 -116 134c-75 -95 -154 -134 -235 -134c-55 0 -105 36 -115 96c-50 -83 -107 -96 -149 -96
c-60 0 -107 38 -107 121c0 19 3 40 8 64z" />
    <glyph glyph-name="y_p" unicode="yp" horiz-adv-x="954" 
d="M562 537h144l-16 -75c29 25 67 43 117 43c68 0 122 -39 122 -158c0 -135 -52 -353 -246 -353c-34 0 -64 1 -92 3l-45 -211l-151 -36l53 252c-31 -1 -63 -4 -97 -11l-15 -71c-30 -143 -114 -170 -180 -170c-61 0 -112 32 -112 97c0 84 88 129 164 154l11 49
c-42 -47 -86 -56 -120 -56c-60 0 -107 36 -107 120c0 19 3 41 8 65l68 321h144l-72 -340c-2 -8 -3 -17 -3 -25c0 -23 7 -44 30 -44c37 0 63 35 78 82l70 327h144l-98 -459c34 8 67 14 100 19zM652 76c105 0 140 180 140 274c0 77 -32 83 -50 83c-22 0 -50 -17 -69 -49
l-65 -309c14 1 29 1 44 1zM99 -139c0 -14 12 -33 34 -33c21 0 45 30 58 89l6 29c-51 -19 -98 -45 -98 -85z" />
    <glyph glyph-name="y_x" unicode="yx" horiz-adv-x="871" 
d="M315 500h144l-98 -461c69 25 136 60 217 153l-56 308h141l39 -216c59 64 95 123 95 159c0 4 0 8 -1 12c-6 -1 -12 -2 -17 -2c-35 0 -47 25 -47 56c0 30 25 47 56 47c45 0 68 -40 68 -89c0 -65 -45 -134 -143 -238l9 -50c7 -38 15 -88 59 -88c39 0 75 38 90 88h42
c-57 -163 -152 -184 -206 -184c-64 0 -94 40 -116 136c-73 -81 -167 -117 -240 -138l-15 -73c-30 -143 -114 -170 -180 -170c-61 0 -112 32 -112 97c0 84 88 123 163 146l13 58c-43 -48 -87 -56 -121 -56c-60 0 -107 35 -107 119c0 19 3 41 8 65l68 321h144l-72 -340
c-2 -8 -3 -17 -3 -25c0 -23 7 -44 30 -44c39 0 65 38 80 88zM99 -139c0 -14 12 -33 34 -33c21 0 45 30 58 89l6 30c-51 -19 -98 -45 -98 -86z" />
    <glyph glyph-name="y_z" unicode="yz" horiz-adv-x="888" 
d="M68 500h144l-72 -340c-2 -8 -3 -17 -3 -25c0 -23 7 -44 30 -44c39 0 65 38 80 88l68 321h145l-122 -580c-30 -143 -116 -170 -182 -170c-61 0 -118 43 -118 108c0 93 78 122 173 150l10 44c-43 -49 -88 -58 -122 -58c-60 0 -107 36 -107 120c0 19 3 41 8 65zM766 91
c-13 1 -19 10 -19 21c0 18 19 43 56 43c30 0 44 -21 44 -48c0 -46 -45 -107 -122 -107h-265l255 446h-56c-31 0 -55 -2 -55 -16c0 -5 11 1 11 -22c0 -37 -28 -53 -54 -53c-23 0 -46 15 -46 44c0 41 45 101 116 101h257l-245 -423c17 -1 49 -6 76 -6c24 0 44 4 47 20z
M93 -128c0 -14 18 -33 40 -33c20 0 46 19 59 78l12 59c-63 -21 -111 -50 -111 -104z" />
    <glyph glyph-name=".notdef" horiz-adv-x="385" 
 />
    <glyph glyph-name="A" unicode="A" horiz-adv-x="668" 
d="M535 0h-144l77 363c-51 23 -90 32 -134 36c-75 -163 -130 -353 -130 -457c0 -32 8 -47 14 -56c-54 0 -134 2 -134 106c0 90 60 254 147 407c-62 -4 -104 -18 -117 -52c5 0 13 -17 13 -31c0 -24 -25 -39 -56 -39c-34 0 -62 19 -62 58c0 68 86 123 204 123
c14 0 31 -1 52 -3c101 160 231 295 348 295c23 0 55 -4 79 -14zM477 407l58 272c-60 -32 -124 -125 -180 -237c40 -8 83 -19 122 -35z" />
    <glyph glyph-name="A.salt" horiz-adv-x="590" 
d="M459 0h-144l77 366h-158c-64 -154 -106 -326 -106 -423c0 -51 13 -47 14 -56c-69 4 -134 6 -134 112c0 189 290 752 528 752c24 0 50 -3 80 -15zM256 418h147l56 264c-73 -32 -145 -138 -203 -264z" />
    <glyph glyph-name="AE" unicode="&#xc6;" horiz-adv-x="764" 
d="M760 0h-369l77 363c-51 22 -92 33 -135 36c-75 -162 -129 -352 -129 -456c0 -51 13 -47 14 -56c-69 4 -134 6 -134 112c0 85 59 248 147 400c-60 -4 -103 -16 -117 -52c5 0 13 -17 13 -31c0 -21 -18 -39 -61 -39c-29 0 -57 18 -57 63c0 61 92 115 195 115
c17 0 37 -1 59 -3c101 162 231 299 349 299c55 0 110 -20 180 -20c35 0 73 5 117 19c-14 -43 -24 -110 -107 -110c-50 0 -86 17 -124 32l-54 -253h155l-20 -74h-151l-51 -239h224zM477 407l58 272c-61 -33 -126 -126 -182 -238c42 -8 85 -19 124 -34z" />
    <glyph glyph-name="Aacute" unicode="&#xc1;" horiz-adv-x="668" 
d="M535 0h-144l77 363c-51 23 -90 32 -134 36c-75 -163 -130 -353 -130 -457c0 -32 8 -47 14 -56c-54 0 -134 2 -134 106c0 90 60 254 147 407c-62 -4 -104 -18 -117 -52c5 0 13 -17 13 -31c0 -24 -25 -39 -56 -39c-34 0 -62 19 -62 58c0 68 86 123 204 123
c14 0 31 -1 52 -3c101 160 231 295 348 295c23 0 55 -4 79 -14zM477 407l58 272c-60 -32 -124 -125 -180 -237c40 -8 83 -19 122 -35zM486 811l91 189h105l-121 -189h-75z" />
    <glyph glyph-name="Acircumflex" unicode="&#xc2;" horiz-adv-x="668" 
d="M535 0h-144l77 363c-51 23 -90 32 -134 36c-75 -163 -130 -353 -130 -457c0 -32 8 -47 14 -56c-54 0 -134 2 -134 106c0 90 60 254 147 407c-62 -4 -104 -18 -117 -52c5 0 13 -17 13 -31c0 -24 -25 -39 -56 -39c-34 0 -62 19 -62 58c0 68 86 123 204 123
c14 0 31 -1 52 -3c101 160 231 295 348 295c23 0 55 -4 79 -14zM477 407l58 272c-60 -32 -124 -125 -180 -237c40 -8 83 -19 122 -35zM700 811h-32l-60 80l-157 -80h-44l212 189h21z" />
    <glyph glyph-name="Adieresis" unicode="&#xc4;" horiz-adv-x="668" 
d="M535 0h-144l77 363c-51 23 -90 32 -134 36c-75 -163 -130 -353 -130 -457c0 -32 8 -47 14 -56c-54 0 -134 2 -134 106c0 90 60 254 147 407c-62 -4 -104 -18 -117 -52c5 0 13 -17 13 -31c0 -24 -25 -39 -56 -39c-34 0 -62 19 -62 58c0 68 86 123 204 123
c14 0 31 -1 52 -3c101 160 231 295 348 295c23 0 55 -4 79 -14zM477 407l58 272c-60 -32 -124 -125 -180 -237c40 -8 83 -19 122 -35zM430 884c0 33 27 61 61 61c33 0 61 -28 61 -61c0 -34 -28 -61 -61 -61c-34 0 -61 27 -61 61zM610 884c0 33 27 61 61 61
c33 0 61 -28 61 -61c0 -34 -28 -61 -61 -61c-34 0 -61 27 -61 61z" />
    <glyph glyph-name="Agrave" unicode="&#xc0;" horiz-adv-x="668" 
d="M535 0h-144l77 363c-51 23 -90 32 -134 36c-75 -163 -130 -353 -130 -457c0 -32 8 -47 14 -56c-54 0 -134 2 -134 106c0 90 60 254 147 407c-62 -4 -104 -18 -117 -52c5 0 13 -17 13 -31c0 -24 -25 -39 -56 -39c-34 0 -62 19 -62 58c0 68 86 123 204 123
c14 0 31 -1 52 -3c101 160 231 295 348 295c23 0 55 -4 79 -14zM477 407l58 272c-60 -32 -124 -125 -180 -237c40 -8 83 -19 122 -35zM496 811l-59 189h105l29 -189h-75z" />
    <glyph glyph-name="Aogonek" unicode="&#x104;" horiz-adv-x="668" 
d="M508 5h-70l-7 -5h-40l77 363c-51 23 -90 32 -134 36c-75 -163 -130 -353 -130 -457c0 -32 8 -47 14 -56c-54 0 -134 2 -134 106c0 90 60 254 147 407c-62 -4 -104 -18 -117 -52c5 0 13 -17 13 -31c0 -24 -25 -39 -56 -39c-34 0 -62 19 -62 58c0 68 86 123 204 123
c14 0 31 -1 52 -3c101 160 231 295 348 295c23 0 55 -4 79 -14l-157 -736h-38c3 2 7 3 11 5zM477 407l58 272c-60 -32 -124 -125 -180 -237c40 -8 83 -19 122 -35zM361 -115c0 36 24 78 70 115h66c-26 -15 -53 -49 -53 -84c0 -22 11 -50 39 -50c24 0 48 21 68 34
c-1 -12 -2 -19 -2 -31c-25 -23 -57 -62 -109 -62c-55 0 -79 43 -79 78z" />
    <glyph glyph-name="Aring" unicode="&#xc5;" horiz-adv-x="668" 
d="M535 0h-144l77 363c-51 23 -90 32 -134 36c-75 -163 -130 -353 -130 -457c0 -32 8 -47 14 -56c-54 0 -134 2 -134 106c0 90 60 254 147 407c-62 -4 -104 -18 -117 -52c5 0 13 -17 13 -31c0 -24 -25 -39 -56 -39c-34 0 -62 19 -62 58c0 68 86 123 204 123
c14 0 31 -1 52 -3c101 160 231 295 348 295c23 0 55 -4 79 -14zM477 407l58 272c-60 -32 -124 -125 -180 -237c40 -8 83 -19 122 -35zM570 963c49 0 72 -34 72 -77c0 -44 -25 -84 -87 -84c-43 0 -70 32 -70 70c0 36 25 91 85 91zM605 883c0 19 -1 47 -33 47
c-35 0 -47 -31 -47 -56c0 -22 10 -37 34 -37c31 0 46 18 46 46z" />
    <glyph glyph-name="Atilde" unicode="&#xc3;" horiz-adv-x="668" 
d="M535 0h-144l77 363c-51 23 -90 32 -134 36c-75 -163 -130 -353 -130 -457c0 -32 8 -47 14 -56c-54 0 -134 2 -134 106c0 90 60 254 147 407c-62 -4 -104 -18 -117 -52c5 0 13 -17 13 -31c0 -24 -25 -39 -56 -39c-34 0 -62 19 -62 58c0 68 86 123 204 123
c14 0 31 -1 52 -3c101 160 231 295 348 295c23 0 55 -4 79 -14zM477 407l58 272c-60 -32 -124 -125 -180 -237c40 -8 83 -19 122 -35zM804 920l6 -1c-11 -47 -85 -100 -161 -100c-66 0 -113 37 -168 37c-26 0 -48 -9 -66 -26l-6 2c32 64 91 98 167 98c73 0 107 -33 165 -33
c25 0 49 8 63 23z" />
    <glyph glyph-name="B" unicode="B" horiz-adv-x="635" 
d="M230 636l148 20l-47 -222h6c80 0 144 87 144 162c0 57 -37 108 -132 108c-117 0 -250 -78 -250 -243c0 -51 13 -59 14 -68c-66 0 -107 25 -107 92c0 138 174 265 363 265c147 0 213 -77 213 -159c0 -59 -35 -122 -100 -159c85 -17 118 -86 118 -161
c0 -96 -52 -288 -219 -288c-43 0 -99 13 -99 74c0 16 4 35 13 58c25 -26 44 -36 67 -36c73 0 99 104 99 180c0 70 -22 127 -95 127c-8 0 -28 -1 -46 -3l-82 -383h-144z" />
    <glyph glyph-name="B.salt" horiz-adv-x="633" 
d="M230 636l148 20l-47 -222h6c83 0 142 87 142 168c0 53 -25 102 -126 102c-138 0 -254 -91 -254 -243c0 -51 13 -59 14 -68c-66 0 -107 25 -107 92c0 139 177 265 360 265c144 0 218 -78 218 -161c0 -58 -36 -119 -100 -157c82 -15 114 -77 114 -149
c0 -136 -110 -311 -235 -311c-39 0 -80 17 -119 58l-6 -30h-144zM319 64c72 0 130 120 130 216c0 57 -21 106 -84 106c-7 0 -27 -1 -45 -3l-62 -290c20 -21 41 -29 61 -29z" />
    <glyph glyph-name="C" unicode="C" horiz-adv-x="497" 
d="M500 180l23 -10c-53 -134 -194 -186 -285 -186c-148 0 -219 66 -219 246c0 181 87 520 349 520c94 0 167 -37 167 -134c0 -53 -19 -92 -70 -92c-16 0 -38 4 -57 26c24 12 46 54 46 92c0 32 -16 61 -61 61c-110 0 -208 -263 -208 -467c0 -92 24 -156 120 -156
c78 0 149 38 195 100z" />
    <glyph glyph-name="Cacute" unicode="&#x106;" horiz-adv-x="497" 
d="M500 180l23 -10c-53 -134 -194 -186 -285 -186c-148 0 -219 66 -219 246c0 181 87 520 349 520c94 0 167 -37 167 -134c0 -53 -19 -92 -70 -92c-16 0 -38 4 -57 26c24 12 46 54 46 92c0 32 -16 61 -61 61c-110 0 -208 -263 -208 -467c0 -92 24 -156 120 -156
c78 0 149 38 195 100zM337 811l91 189h105l-121 -189h-75z" />
    <glyph glyph-name="Ccaron" unicode="&#x10c;" horiz-adv-x="497" 
d="M500 180l23 -10c-53 -134 -194 -186 -285 -186c-148 0 -219 66 -219 246c0 181 87 520 349 520c94 0 167 -37 167 -134c0 -53 -19 -92 -70 -92c-16 0 -38 4 -57 26c24 12 46 54 46 92c0 32 -16 61 -61 61c-110 0 -208 -263 -208 -467c0 -92 24 -156 120 -156
c78 0 149 38 195 100zM292 1000h32l60 -80l157 80h44l-212 -189h-21z" />
    <glyph glyph-name="Ccedilla" unicode="&#xc7;" horiz-adv-x="497" 
d="M362 -108c0 -72 -62 -110 -120 -110c-51 0 -78 13 -107 28c9 16 21 32 40 32c41 0 46 -27 74 -27c17 0 30 21 30 42c0 18 -11 36 -39 36c-26 0 -41 -7 -52 -12l37 103c-139 4 -206 71 -206 246c0 181 87 520 349 520c94 0 167 -37 167 -134c0 -53 -19 -92 -70 -92
c-16 0 -38 4 -57 26c24 12 46 54 46 92c0 32 -16 61 -61 61c-110 0 -208 -263 -208 -467c0 -92 24 -156 120 -156c78 0 149 38 195 100l23 -10c-48 -120 -166 -174 -255 -184l-21 -52c20 5 38 8 53 8c42 0 62 -19 62 -50z" />
    <glyph glyph-name="Ccircumflex" unicode="&#x108;" horiz-adv-x="497" 
d="M500 180l23 -10c-53 -134 -194 -186 -285 -186c-148 0 -219 66 -219 246c0 181 87 520 349 520c94 0 167 -37 167 -134c0 -53 -19 -92 -70 -92c-16 0 -38 4 -57 26c24 12 46 54 46 92c0 32 -16 61 -61 61c-110 0 -208 -263 -208 -467c0 -92 24 -156 120 -156
c78 0 149 38 195 100zM495 811h-32l-60 80l-157 -80h-44l212 189h21z" />
    <glyph glyph-name="D" unicode="D" horiz-adv-x="663" 
d="M230 636l148 20l-120 -561c19 -14 38 -20 57 -20c119 0 192 238 192 440c0 136 -59 189 -146 189c-149 0 -262 -91 -262 -243c0 -51 13 -59 14 -68c-66 0 -107 25 -107 93c0 137 169 264 372 264c194 0 267 -135 267 -288c0 -230 -129 -475 -277 -475
c-38 0 -79 16 -122 53l-8 -40h-144z" />
    <glyph glyph-name="E" unicode="E" horiz-adv-x="459" 
d="M461 180l23 -10c-52 -118 -174 -188 -293 -188c-128 0 -184 82 -184 176c0 105 70 231 185 259c-43 31 -61 75 -61 120c0 103 91 215 219 215c79 0 143 -43 143 -125c0 -60 -34 -104 -74 -104c-17 0 -33 8 -47 27c25 8 44 53 44 87c0 41 -28 56 -55 56
c-59 0 -102 -71 -102 -141c0 -58 29 -115 101 -134c-107 -24 -179 -147 -179 -239c0 -56 27 -101 95 -101c61 0 149 36 185 102z" />
    <glyph glyph-name="E.salt" horiz-adv-x="554" 
d="M322 419h154l-20 -74h-150l-53 -244h224l-20 -101h-369l144 668c-77 -3 -130 -47 -130 -207c0 -51 13 -59 14 -68c-69 0 -107 25 -107 97c0 133 94 260 341 260c40 0 103 -12 166 -12c31 0 62 3 90 12c-14 -42 -17 -103 -95 -120c-46 0 -94 9 -140 19z" />
    <glyph glyph-name="Eacute" unicode="&#xc9;" horiz-adv-x="459" 
d="M461 180l23 -10c-52 -118 -174 -188 -293 -188c-128 0 -184 82 -184 176c0 105 70 231 185 259c-43 31 -61 75 -61 120c0 103 91 215 219 215c79 0 143 -43 143 -125c0 -60 -34 -104 -74 -104c-17 0 -33 8 -47 27c25 8 44 53 44 87c0 41 -28 56 -55 56
c-59 0 -102 -71 -102 -141c0 -58 29 -115 101 -134c-107 -24 -179 -147 -179 -239c0 -56 27 -101 95 -101c61 0 149 36 185 102zM330 811l91 189h105l-121 -189h-75z" />
    <glyph glyph-name="Ecircumflex" unicode="&#xca;" horiz-adv-x="459" 
d="M461 180l23 -10c-52 -118 -174 -188 -293 -188c-128 0 -184 82 -184 176c0 105 70 231 185 259c-43 31 -61 75 -61 120c0 103 91 215 219 215c79 0 143 -43 143 -125c0 -60 -34 -104 -74 -104c-17 0 -33 8 -47 27c25 8 44 53 44 87c0 41 -28 56 -55 56
c-59 0 -102 -71 -102 -141c0 -58 29 -115 101 -134c-107 -24 -179 -147 -179 -239c0 -56 27 -101 95 -101c61 0 149 36 185 102zM495 811h-32l-60 80l-157 -80h-44l212 189h21z" />
    <glyph glyph-name="Edieresis" unicode="&#xcb;" horiz-adv-x="459" 
d="M461 180l23 -10c-52 -118 -174 -188 -293 -188c-128 0 -184 82 -184 176c0 105 70 231 185 259c-43 31 -61 75 -61 120c0 103 91 215 219 215c79 0 143 -43 143 -125c0 -60 -34 -104 -74 -104c-17 0 -33 8 -47 27c25 8 44 53 44 87c0 41 -28 56 -55 56
c-59 0 -102 -71 -102 -141c0 -58 29 -115 101 -134c-107 -24 -179 -147 -179 -239c0 -56 27 -101 95 -101c61 0 149 36 185 102zM238 884c0 33 27 61 61 61c33 0 61 -28 61 -61c0 -34 -28 -61 -61 -61c-34 0 -61 27 -61 61zM418 884c0 33 27 61 61 61c33 0 61 -28 61 -61
c0 -34 -28 -61 -61 -61c-34 0 -61 27 -61 61z" />
    <glyph glyph-name="Egrave" unicode="&#xc8;" horiz-adv-x="459" 
d="M461 180l23 -10c-52 -118 -174 -188 -293 -188c-128 0 -184 82 -184 176c0 105 70 231 185 259c-43 31 -61 75 -61 120c0 103 91 215 219 215c79 0 143 -43 143 -125c0 -60 -34 -104 -74 -104c-17 0 -33 8 -47 27c25 8 44 53 44 87c0 41 -28 56 -55 56
c-59 0 -102 -71 -102 -141c0 -58 29 -115 101 -134c-107 -24 -179 -147 -179 -239c0 -56 27 -101 95 -101c61 0 149 36 185 102zM311 811l-59 189h105l29 -189h-75z" />
    <glyph glyph-name="Eogonek" unicode="&#x118;" horiz-adv-x="459" 
d="M461 180l23 -10c-46 -144 -180 -129 -180 -254c0 -22 11 -50 39 -50c24 0 48 21 68 34c-1 -12 -2 -19 -2 -31c-25 -23 -57 -62 -109 -62c-55 0 -79 43 -79 78c0 36 25 79 72 116c-25 -5 -51 -7 -75 -7c-138 0 -207 99 -207 202c0 96 60 196 181 221
c-68 37 -99 95 -99 152c0 91 80 181 222 181c93 0 184 -37 184 -134c0 -53 -19 -92 -70 -92c-16 0 -38 4 -57 26c25 7 44 57 44 82c0 16 -2 74 -66 74c-73 0 -122 -56 -122 -123c0 -58 38 -123 132 -165c-127 -52 -174 -132 -174 -201c0 -73 53 -133 117 -133
c77 0 121 32 158 96z" />
    <glyph glyph-name="Eth" unicode="&#xd0;" horiz-adv-x="663" 
d="M230 636l148 20l-51 -237h79l-20 -74h-75l-53 -250c19 -14 38 -20 57 -20c119 0 192 241 192 433c0 125 -23 196 -138 196c-162 0 -270 -91 -270 -243c0 -51 13 -59 14 -68c-69 0 -107 25 -107 97c0 133 184 260 351 260c231 0 288 -129 288 -270
c0 -258 -129 -493 -277 -493c-38 0 -79 16 -122 53l-8 -40h-144l74 345h-39l20 74h35z" />
    <glyph glyph-name="Euro" unicode="&#x20ac;" horiz-adv-x="573" 
d="M242 334h196l-14 -50h-185v-13c0 -131 24 -187 132 -187c77 0 114 9 154 40l2 -29c-60 -79 -132 -101 -226 -101c-102 0 -219 50 -219 255v35h-85l14 50h74c2 21 5 43 8 65h-71l14 50h67c37 160 128 301 316 301c93 0 174 -37 174 -134c0 -53 -19 -92 -70 -92
c-16 0 -38 4 -57 26c25 7 44 57 44 82c0 16 -5 71 -69 71c-85 0 -149 -121 -180 -254h202l-14 -50h-198c-4 -22 -7 -44 -9 -65z" />
    <glyph glyph-name="F" unicode="F" horiz-adv-x="459" 
d="M329 450h146l-16 -74h-146l-81 -376h-144l144 668c-77 -3 -130 -47 -130 -207c0 -51 13 -59 14 -68c-69 0 -107 25 -107 97c0 133 94 260 341 260c40 0 103 -12 166 -12c31 0 62 3 90 12c-14 -42 -17 -103 -95 -120c-46 0 -94 9 -140 19z" />
    <glyph glyph-name="G" unicode="G" horiz-adv-x="578" 
d="M417 419l129 -1l-82 -376c-33 -153 -92 -249 -256 -249c-95 0 -139 69 -139 138c0 68 43 137 122 137c40 0 98 -3 98 -67c0 -11 -2 -25 -6 -40c-25 21 -40 26 -60 26c-46 0 -70 -39 -70 -76c0 -35 21 -68 63 -68c45 0 77 20 100 123l40 179c-58 -31 -113 -36 -122 -36
c-163 0 -215 118 -215 256c0 191 131 385 354 385c93 0 186 -37 186 -134c0 -53 -19 -92 -70 -92c-16 0 -50 4 -69 26c25 7 44 57 44 82c0 16 -5 71 -69 71c-110 0 -222 -187 -222 -346c0 -89 33 -165 116 -165c37 0 64 9 85 37z" />
    <glyph glyph-name="H" unicode="H" horiz-adv-x="665" 
d="M403 748l-64 -298h147l64 298h144l-159 -748h-144l80 376h-147l-80 -376h-144l145 680c-88 -37 -140 -113 -140 -219c0 -51 13 -59 14 -68c-69 0 -107 25 -107 97c0 133 184 260 351 260c14 0 27 -1 40 -2z" />
    <glyph glyph-name="I" unicode="I" horiz-adv-x="375" 
d="M397 748l-159 -748h-144l145 679c-87 -36 -140 -111 -140 -218c0 -51 13 -59 14 -68c-69 0 -107 25 -107 97c0 133 184 260 351 260c14 0 27 -1 40 -2z" />
    <glyph glyph-name="Iacute" unicode="&#xcd;" horiz-adv-x="375" 
d="M397 748l-159 -748h-144l145 679c-87 -36 -140 -111 -140 -218c0 -51 13 -59 14 -68c-69 0 -107 25 -107 97c0 133 184 260 351 260c14 0 27 -1 40 -2zM269 811l91 189h105l-121 -189h-75z" />
    <glyph glyph-name="Icircumflex" unicode="&#xce;" horiz-adv-x="375" 
d="M397 748l-159 -748h-144l145 679c-87 -36 -140 -111 -140 -218c0 -51 13 -59 14 -68c-69 0 -107 25 -107 97c0 133 184 260 351 260c14 0 27 -1 40 -2zM444 811h-32l-60 80l-157 -80h-44l212 189h21z" />
    <glyph glyph-name="Idieresis" unicode="&#xcf;" horiz-adv-x="375" 
d="M397 748l-159 -748h-144l145 679c-87 -36 -140 -111 -140 -218c0 -51 13 -59 14 -68c-69 0 -107 25 -107 97c0 133 184 260 351 260c14 0 27 -1 40 -2zM167 884c0 33 27 61 61 61c33 0 61 -28 61 -61c0 -34 -28 -61 -61 -61c-34 0 -61 27 -61 61zM347 884
c0 33 27 61 61 61c33 0 61 -28 61 -61c0 -34 -28 -61 -61 -61c-34 0 -61 27 -61 61z" />
    <glyph glyph-name="Igrave" unicode="&#xcc;" horiz-adv-x="375" 
d="M397 748l-159 -748h-144l145 679c-87 -36 -140 -111 -140 -218c0 -51 13 -59 14 -68c-69 0 -107 25 -107 97c0 133 184 260 351 260c14 0 27 -1 40 -2zM230 811l-59 189h105l29 -189h-75z" />
    <glyph glyph-name="J" unicode="J" horiz-adv-x="536" 
d="M538 750h40l-150 -710c-32 -153 -99 -247 -263 -247c-95 0 -148 58 -148 141c0 68 43 134 122 134c40 0 98 -3 98 -67c0 -11 -2 -25 -6 -40c-25 21 -40 26 -60 26c-46 0 -70 -37 -70 -74c0 -52 39 -70 68 -70c45 0 72 20 95 123l157 714c-87 -36 -141 -112 -141 -219
c0 -51 13 -59 14 -68c-69 0 -107 25 -107 97c0 133 184 260 351 260z" />
    <glyph glyph-name="K" unicode="K" horiz-adv-x="601" 
d="M397 748l-65 -306c63 86 227 304 227 303h105l-278 -320c13 0 24 1 35 1c97 0 124 -46 124 -107c0 -82 -49 -190 -49 -253c0 -30 15 -57 39 -66c-42 -12 -75 -17 -99 -17c-65 0 -78 34 -78 67c0 66 53 187 53 263c0 40 -15 68 -60 68c-9 0 -21 -2 -33 -4l-80 -377h-144
l145 680c-88 -37 -140 -113 -140 -219c0 -51 13 -59 14 -68c-69 0 -107 25 -107 97c0 133 184 260 351 260c14 0 27 -1 40 -2z" />
    <glyph glyph-name="L" unicode="L" horiz-adv-x="379" 
d="M397 738l-154 -718c104 -23 209 -129 336 -129c27 0 55 4 84 16c-10 -96 -50 -157 -104 -157c-143 0 -269 227 -446 227c-8 0 -15 0 -23 -1l149 693c-87 -36 -140 -111 -140 -218c0 -51 13 -59 14 -68c-69 0 -107 25 -107 97c0 133 184 260 351 260c14 0 27 -1 40 -2z
" />
    <glyph glyph-name="Lslash" unicode="&#x141;" horiz-adv-x="392" 
d="M663 -93c-10 -96 -50 -157 -104 -157c-143 0 -269 227 -446 227c-8 0 -15 0 -23 -1l70 319l-65 -39l2 53l76 49l66 311c-87 -36 -140 -111 -140 -218c0 -51 13 -59 14 -68c-69 0 -107 25 -107 97c0 133 184 260 351 260c14 0 27 -1 40 -2l-55 -263l116 69l-4 -61
l-127 -78l-84 -385c104 -23 208 -129 336 -129c27 0 55 4 84 16z" />
    <glyph glyph-name="M" unicode="M" horiz-adv-x="787" 
d="M699 0h-144l64 449l-188 -449h-137l20 451l-167 -451h-80l254 687c-99 -33 -159 -111 -159 -225c0 -53 13 -60 14 -69c-65 0 -107 25 -107 91c0 128 166 266 318 266c26 0 52 -5 76 -14l-23 -527l220 527h144z" />
    <glyph glyph-name="N" unicode="N" horiz-adv-x="668" 
d="M570 748h144l-159 -748h-121l-85 523l-111 -523h-144l144 679c-87 -36 -139 -112 -139 -218c0 -51 13 -59 14 -68c-69 0 -107 25 -107 97c0 114 111 260 283 260c30 0 64 0 93 -14l79 -530z" />
    <glyph glyph-name="N.salt" horiz-adv-x="669" 
d="M397 748l-12 -55c46 49 93 57 125 57c64 0 136 -43 136 -143c0 -81 -101 -418 -101 -474c0 -25 10 -42 40 -42c44 0 62 36 84 88h42c-56 -164 -133 -185 -186 -185c-87 0 -118 56 -118 113c0 68 98 414 98 478c0 66 -37 74 -61 74c-35 0 -75 -42 -84 -86l-122 -573h-157
l144 673c-79 -38 -126 -112 -126 -212c0 -51 13 -59 14 -68c-69 0 -107 25 -107 97c0 133 184 260 351 260c14 0 27 -1 40 -2z" />
    <glyph glyph-name="Nacute" unicode="&#x143;" horiz-adv-x="702" 
d="M570 748h144l-159 -748h-121l-85 523l-111 -523h-144l144 679c-87 -36 -139 -112 -139 -218c0 -51 13 -59 14 -68c-69 0 -107 25 -107 97c0 114 111 260 283 260c30 0 64 0 93 -14l79 -530zM496 811l91 189h105l-121 -189h-75z" />
    <glyph glyph-name="O" unicode="O" horiz-adv-x="665" 
d="M431 656c-91 -55 -175 -311 -175 -465c0 -68 17 -116 58 -116c101 0 209 252 209 454c0 116 -23 175 -128 175c-153 0 -288 -98 -288 -257c0 -39 10 -46 10 -54c-63 0 -101 23 -101 84c0 140 192 273 403 273c175 0 237 -107 237 -256c0 -193 -107 -500 -369 -500
c-105 0 -179 55 -179 201c0 162 91 469 271 469c17 0 34 -2 52 -8z" />
    <glyph glyph-name="OE" unicode="&#x152;" horiz-adv-x="846" 
d="M651 419h133l-20 -74h-127c-20 -86 -57 -173 -114 -239h243l-21 -106h-387c-21 -3 -46 -6 -71 -6c-105 0 -179 55 -179 201c0 162 91 469 271 469c17 0 34 -2 52 -8c-91 -55 -175 -311 -175 -465c0 -68 17 -116 58 -116c101 0 209 252 209 454c0 116 -23 175 -128 175
c-153 0 -288 -98 -288 -257c0 -39 10 -46 10 -54c-63 0 -101 23 -101 84c0 140 192 273 403 273c43 0 80 -7 110 -19c34 12 71 19 129 19c40 0 103 -12 166 -12c31 0 62 3 90 12c-14 -42 -17 -103 -95 -120c-78 0 -141 29 -208 36c31 -44 45 -104 45 -172
c0 -24 -2 -49 -5 -75z" />
    <glyph glyph-name="Oacute" unicode="&#xd3;" horiz-adv-x="658" 
d="M431 656c-91 -55 -175 -311 -175 -465c0 -68 17 -116 58 -116c101 0 209 252 209 454c0 116 -23 175 -128 175c-153 0 -288 -98 -288 -257c0 -39 10 -46 10 -54c-63 0 -101 23 -101 84c0 140 192 273 403 273c175 0 237 -107 237 -256c0 -193 -107 -500 -369 -500
c-105 0 -179 55 -179 201c0 162 91 469 271 469c17 0 34 -2 52 -8zM397 811l91 189h105l-121 -189h-75z" />
    <glyph glyph-name="Ocircumflex" unicode="&#xd4;" horiz-adv-x="658" 
d="M431 656c-91 -55 -175 -311 -175 -465c0 -68 17 -116 58 -116c101 0 209 252 209 454c0 116 -23 175 -128 175c-153 0 -288 -98 -288 -257c0 -39 10 -46 10 -54c-63 0 -101 23 -101 84c0 140 192 273 403 273c175 0 237 -107 237 -256c0 -193 -107 -500 -369 -500
c-105 0 -179 55 -179 201c0 162 91 469 271 469c17 0 34 -2 52 -8zM565 811h-32l-60 80l-157 -80h-44l212 189h21z" />
    <glyph glyph-name="Odieresis" unicode="&#xd6;" horiz-adv-x="658" 
d="M431 656c-91 -55 -175 -311 -175 -465c0 -68 17 -116 58 -116c101 0 209 252 209 454c0 116 -23 175 -128 175c-153 0 -288 -98 -288 -257c0 -39 10 -46 10 -54c-63 0 -101 23 -101 84c0 140 192 273 403 273c175 0 237 -107 237 -256c0 -193 -107 -500 -369 -500
c-105 0 -179 55 -179 201c0 162 91 469 271 469c17 0 34 -2 52 -8zM288 884c0 33 27 61 61 61c33 0 61 -28 61 -61c0 -34 -28 -61 -61 -61c-34 0 -61 27 -61 61zM468 884c0 33 27 61 61 61c33 0 61 -28 61 -61c0 -34 -28 -61 -61 -61c-34 0 -61 27 -61 61z" />
    <glyph glyph-name="Ograve" unicode="&#xd2;" horiz-adv-x="658" 
d="M431 656c-91 -55 -175 -311 -175 -465c0 -68 17 -116 58 -116c101 0 209 252 209 454c0 116 -23 175 -128 175c-153 0 -288 -98 -288 -257c0 -39 10 -46 10 -54c-63 0 -101 23 -101 84c0 140 192 273 403 273c175 0 237 -107 237 -256c0 -193 -107 -500 -369 -500
c-105 0 -179 55 -179 201c0 162 91 469 271 469c17 0 34 -2 52 -8zM351 811l-59 189h105l29 -189h-75z" />
    <glyph glyph-name="Oslash" unicode="&#xd8;" horiz-adv-x="658" 
d="M317 -71h-52l14 65c-104 0 -175 52 -175 189c0 151 88 439 261 439c15 0 30 -2 45 -7l9 41c-11 2 -24 3 -38 3c-148 0 -278 -92 -278 -241c0 -36 10 -43 10 -50c-61 0 -98 21 -98 78c0 132 186 256 389 256c8 0 16 0 24 -1l11 49h52l-12 -56c112 -26 153 -115 153 -232
c0 -166 -88 -425 -300 -463zM247 179c0 -60 14 -103 48 -109l114 540c-85 -57 -162 -290 -162 -431zM504 495c0 66 -8 113 -38 139l-115 -546c80 58 153 249 153 407z" />
    <glyph glyph-name="Otilde" unicode="&#xd5;" horiz-adv-x="658" 
d="M431 656c-91 -55 -175 -311 -175 -465c0 -68 17 -116 58 -116c101 0 209 252 209 454c0 116 -23 175 -128 175c-153 0 -288 -98 -288 -257c0 -39 10 -46 10 -54c-63 0 -101 23 -101 84c0 140 192 273 403 273c175 0 237 -107 237 -256c0 -193 -107 -500 -369 -500
c-105 0 -179 55 -179 201c0 162 91 469 271 469c17 0 34 -2 52 -8zM669 920l6 -1c-11 -47 -85 -100 -161 -100c-66 0 -113 37 -168 37c-26 0 -48 -9 -66 -26l-6 2c32 64 91 98 167 98c73 0 107 -33 165 -33c25 0 49 8 63 23z" />
    <glyph glyph-name="P" unicode="P" horiz-adv-x="573" 
d="M230 636l148 20l-71 -334c101 8 175 139 175 246c0 74 -36 136 -124 136c-162 0 -259 -91 -259 -243c0 -51 13 -59 14 -68c-69 0 -107 25 -107 97c0 133 184 260 351 260c164 0 236 -94 236 -197c0 -127 -109 -268 -289 -268h-5l-61 -285h-144z" />
    <glyph glyph-name="Q" unicode="Q" horiz-adv-x="665" 
d="M431 656c-91 -55 -175 -311 -175 -465c0 -16 0 -30 2 -43c24 6 44 9 62 9c34 0 59 -11 80 -27c68 86 123 255 123 399c0 116 -23 175 -128 175c-153 0 -288 -98 -288 -257c0 -39 10 -46 10 -54c-63 0 -101 23 -101 84c0 140 192 273 403 273c175 0 237 -107 237 -256
c0 -141 -58 -343 -191 -442c30 -42 62 -81 125 -81c7 0 14 1 22 2c-26 -69 -60 -86 -103 -86c-88 0 -111 62 -129 121c-28 -9 -59 -14 -93 -14c-105 0 -179 55 -179 201c0 162 91 469 271 469c17 0 34 -2 52 -8zM314 75c12 0 26 3 38 11c-12 20 -29 34 -57 34
c-9 0 -18 -1 -29 -4c9 -26 24 -41 48 -41z" />
    <glyph glyph-name="R" unicode="R" horiz-adv-x="601" 
d="M230 636l148 20l-49 -231h8c83 0 142 98 142 174c0 56 -32 105 -110 105c-162 0 -270 -91 -270 -243c0 -51 13 -59 14 -68c-69 0 -107 25 -107 97c0 133 184 260 351 260c158 0 227 -78 227 -160c0 -61 -39 -130 -108 -171c53 -15 69 -53 69 -100
c0 -82 -49 -190 -49 -253c0 -30 15 -57 39 -66c-42 -12 -75 -17 -99 -17c-65 0 -78 34 -78 67c0 66 53 187 53 263c0 40 -15 68 -60 68c-9 0 -20 -2 -33 -4l-80 -377h-144z" />
    <glyph glyph-name="S" unicode="S" horiz-adv-x="570" 
d="M544 630c0 -58 -32 -101 -82 -101c-18 0 -33 6 -46 21c27 16 45 53 45 86c0 35 -19 67 -74 67s-92 -31 -92 -91c0 -147 225 -167 225 -383c0 -168 -136 -250 -281 -250c-114 0 -212 50 -212 172c0 108 77 164 147 164c35 0 85 -14 88 -66c-54 0 -117 -25 -117 -94
c0 -50 32 -96 96 -96c67 0 116 49 116 133c0 171 -205 232 -205 379c0 104 102 179 231 179c47 0 161 -10 161 -120z" />
    <glyph glyph-name="Sacute" unicode="&#x15a;" horiz-adv-x="570" 
d="M544 630c0 -58 -32 -101 -82 -101c-18 0 -33 6 -46 21c27 16 45 53 45 86c0 35 -19 67 -74 67s-92 -31 -92 -91c0 -147 225 -167 225 -383c0 -168 -136 -250 -281 -250c-114 0 -212 50 -212 172c0 108 77 164 147 164c35 0 85 -14 88 -66c-54 0 -117 -25 -117 -94
c0 -50 32 -96 96 -96c67 0 116 49 116 133c0 171 -205 232 -205 379c0 104 102 179 231 179c47 0 161 -10 161 -120zM358 811l91 189h105l-121 -189h-75z" />
    <glyph glyph-name="Scaron" unicode="&#x160;" horiz-adv-x="570" 
d="M544 630c0 -58 -32 -101 -82 -101c-18 0 -33 6 -46 21c27 16 45 53 45 86c0 35 -19 67 -74 67s-92 -31 -92 -91c0 -147 225 -167 225 -383c0 -168 -136 -250 -281 -250c-114 0 -212 50 -212 172c0 108 77 164 147 164c35 0 85 -14 88 -66c-54 0 -117 -25 -117 -94
c0 -50 32 -96 96 -96c67 0 116 49 116 133c0 171 -205 232 -205 379c0 104 102 179 231 179c47 0 161 -10 161 -120zM298 1000h32l60 -80l157 80h44l-212 -189h-21z" />
    <glyph glyph-name="T" unicode="T" horiz-adv-x="481" 
d="M594 620c-49 0 -101 10 -155 22l-138 -642h-144l142 662h-12c-106 0 -188 -41 -188 -202c0 -51 13 -59 14 -68c-69 0 -107 25 -107 97c0 133 94 260 341 260c121 0 158 -23 256 -23c46 0 89 10 116 21c-2 -87 -45 -127 -125 -127z" />
    <glyph glyph-name="Thorn" unicode="&#xde;" horiz-adv-x="583" 
d="M250 730l148 20l-24 -110c152 -7 219 -98 219 -197c0 -127 -109 -268 -289 -268h-29l-37 -175h-144l120 562c-74 -39 -115 -112 -115 -211c0 -51 13 -59 14 -68c-69 0 -107 25 -107 97c0 98 100 193 219 236zM283 212h14c106 0 185 136 185 246c0 72 -34 133 -117 136z
" />
    <glyph glyph-name="U" unicode="U" horiz-adv-x="716" 
d="M620 748h141l-66 -312c-64 -304 -122 -443 -347 -443c-144 0 -193 58 -193 159c0 99 40 239 82 408l33 132c-109 -29 -177 -110 -177 -230c0 -53 13 -60 14 -69c-66 0 -107 25 -107 92c0 141 184 265 378 265c17 0 27 -1 48 -5c-93 -345 -135 -480 -135 -564
c0 -57 19 -90 69 -90c85 0 122 21 193 348z" />
    <glyph glyph-name="Uacute" unicode="&#xda;" horiz-adv-x="719" 
d="M620 748h141l-66 -312c-64 -304 -122 -443 -347 -443c-144 0 -193 58 -193 159c0 99 40 239 82 408l33 132c-109 -29 -177 -110 -177 -230c0 -53 13 -60 14 -69c-66 0 -107 25 -107 92c0 141 184 265 378 265c17 0 27 -1 48 -5c-93 -345 -135 -480 -135 -564
c0 -57 19 -90 69 -90c85 0 122 21 193 348zM451 811l91 189h105l-121 -189h-75z" />
    <glyph glyph-name="Ucircumflex" unicode="&#xdb;" horiz-adv-x="719" 
d="M620 748h141l-66 -312c-64 -304 -122 -443 -347 -443c-144 0 -193 58 -193 159c0 99 40 239 82 408l33 132c-109 -29 -177 -110 -177 -230c0 -53 13 -60 14 -69c-66 0 -107 25 -107 92c0 141 184 265 378 265c17 0 27 -1 48 -5c-93 -345 -135 -480 -135 -564
c0 -57 19 -90 69 -90c85 0 122 21 193 348zM656 811h-32l-60 80l-157 -80h-44l212 189h21z" />
    <glyph glyph-name="Udieresis" unicode="&#xdc;" horiz-adv-x="719" 
d="M620 748h141l-66 -312c-64 -304 -122 -443 -347 -443c-144 0 -193 58 -193 159c0 99 40 239 82 408l33 132c-109 -29 -177 -110 -177 -230c0 -53 13 -60 14 -69c-66 0 -107 25 -107 92c0 141 184 265 378 265c17 0 27 -1 48 -5c-93 -345 -135 -480 -135 -564
c0 -57 19 -90 69 -90c85 0 122 21 193 348zM373 884c0 33 27 61 61 61c33 0 61 -28 61 -61c0 -34 -28 -61 -61 -61c-34 0 -61 27 -61 61zM553 884c0 33 27 61 61 61c33 0 61 -28 61 -61c0 -34 -28 -61 -61 -61c-34 0 -61 27 -61 61z" />
    <glyph glyph-name="Ugrave" unicode="&#xd9;" horiz-adv-x="719" 
d="M620 748h141l-66 -312c-64 -304 -122 -443 -347 -443c-144 0 -193 58 -193 159c0 99 40 239 82 408l33 132c-109 -29 -177 -110 -177 -230c0 -53 13 -60 14 -69c-66 0 -107 25 -107 92c0 141 184 265 378 265c17 0 27 -1 48 -5c-93 -345 -135 -480 -135 -564
c0 -57 19 -90 69 -90c85 0 122 21 193 348zM469 811l-59 189h105l29 -189h-75z" />
    <glyph glyph-name="V" unicode="V" horiz-adv-x="615" 
d="M397 748l9 -615l210 612h70l-278 -745h-152v683c-109 -34 -157 -112 -157 -222c0 -51 13 -59 14 -68c-69 0 -107 25 -107 97c0 133 184 260 351 260c14 0 27 -1 40 -2z" />
    <glyph glyph-name="W" unicode="W" horiz-adv-x="962" 
d="M397 748l9 -615l210 612h131v-612l215 612h70l-278 -745h-148v509l-198 -509h-147v683c-109 -34 -162 -112 -162 -222c0 -51 13 -59 14 -68c-69 0 -107 25 -107 97c0 133 184 260 351 260c14 0 27 -1 40 -2z" />
    <glyph glyph-name="X" unicode="X" horiz-adv-x="620" 
d="M552 0h-159l-53 250l-145 -250h-61l188 332l-74 351c-93 -34 -149 -112 -149 -222c0 -51 13 -59 14 -68c-69 0 -107 25 -107 97c0 133 184 260 351 260c14 0 27 -1 40 -2l43 -208l116 205h70l-168 -291z" />
    <glyph glyph-name="Y" unicode="Y" horiz-adv-x="620" 
d="M438 0h-160l66 308l-96 375c-93 -34 -149 -112 -149 -222c0 -51 13 -59 14 -68c-69 0 -107 25 -107 97c0 133 184 260 351 260c14 0 27 -1 40 -2l87 -358l148 355h66l-194 -437z" />
    <glyph glyph-name="Yacute" unicode="&#xdd;" horiz-adv-x="620" 
d="M438 0h-160l66 308l-96 375c-93 -34 -149 -112 -149 -222c0 -51 13 -59 14 -68c-69 0 -107 25 -107 97c0 133 184 260 351 260c14 0 27 -1 40 -2l87 -358l148 355h66l-194 -437zM453 811l91 189h105l-121 -189h-75z" />
    <glyph glyph-name="Ydieresis" unicode="&#x178;" horiz-adv-x="620" 
d="M438 0h-160l66 308l-96 375c-93 -34 -149 -112 -149 -222c0 -51 13 -59 14 -68c-69 0 -107 25 -107 97c0 133 184 260 351 260c14 0 27 -1 40 -2l87 -358l148 355h66l-194 -437zM379 884c0 33 27 61 61 61c33 0 61 -28 61 -61c0 -34 -28 -61 -61 -61c-34 0 -61 27 -61 61
zM559 884c0 33 27 61 61 61c33 0 61 -28 61 -61c0 -34 -28 -61 -61 -61c-34 0 -61 27 -61 61z" />
    <glyph glyph-name="Z" unicode="Z" horiz-adv-x="542" 
d="M407 85c-7 0 -18 7 -18 31c0 42 33 58 60 58c37 0 51 -30 51 -58c0 -51 -48 -116 -128 -116h-361l350 696c-21 0 -56 2 -90 2c-47 0 -92 -4 -92 -22c7 0 17 -8 17 -32c0 -44 -35 -57 -59 -57c-38 0 -51 31 -51 59c0 50 43 104 123 104h343l-345 -685c26 0 63 -2 96 -2
c47 0 91 4 104 22z" />
    <glyph glyph-name="Zacute" unicode="&#x179;" horiz-adv-x="542" 
d="M407 85c-7 0 -18 7 -18 31c0 42 33 58 60 58c37 0 51 -30 51 -58c0 -51 -48 -116 -128 -116h-361l350 696c-21 0 -56 2 -90 2c-47 0 -92 -4 -92 -22c7 0 17 -8 17 -32c0 -44 -35 -57 -59 -57c-38 0 -51 31 -51 59c0 50 43 104 123 104h343l-345 -685c26 0 63 -2 96 -2
c47 0 91 4 104 22zM363 811l91 189h105l-121 -189h-75z" />
    <glyph glyph-name="Zcaron" unicode="&#x17d;" horiz-adv-x="542" 
d="M407 85c-7 0 -18 7 -18 31c0 42 33 58 60 58c37 0 51 -30 51 -58c0 -51 -48 -116 -128 -116h-361l350 696c-21 0 -56 2 -90 2c-47 0 -92 -4 -92 -22c7 0 17 -8 17 -32c0 -44 -35 -57 -59 -57c-38 0 -51 31 -51 59c0 50 43 104 123 104h343l-345 -685c26 0 63 -2 96 -2
c47 0 91 4 104 22zM304 1000h32l60 -80l157 80h44l-212 -189h-21z" />
    <glyph glyph-name="Zdotaccent" unicode="&#x17b;" horiz-adv-x="530" 
d="M421 884c0 -34 -28 -61 -61 -61c-34 0 -61 27 -61 61c0 33 27 61 61 61c33 0 61 -28 61 -61zM407 85c-7 0 -18 7 -18 31c0 42 33 58 60 58c37 0 51 -30 51 -58c0 -51 -48 -116 -128 -116h-361l350 696c-21 0 -56 2 -90 2c-47 0 -92 -4 -92 -22c7 0 17 -8 17 -32
c0 -44 -35 -57 -59 -57c-38 0 -51 31 -51 59c0 50 43 104 123 104h343l-345 -685c26 0 63 -2 96 -2c47 0 91 4 104 22z" />
    <glyph glyph-name="a" unicode="a" horiz-adv-x="526" 
d="M336 500h144l-72 -340c-3 -13 -4 -23 -4 -32c0 -28 13 -43 41 -43c39 0 66 44 81 94h42c-57 -163 -147 -185 -201 -185c-56 0 -92 32 -98 92c-31 -46 -78 -92 -149 -92c-68 0 -133 42 -133 161c0 135 83 350 257 350c57 0 81 -22 81 -51v-7zM275 443
c-85 0 -140 -180 -140 -274c0 -77 32 -78 50 -78c29 0 71 30 83 88l48 226c0 12 -9 38 -41 38z" />
    <glyph glyph-name="a.end" horiz-adv-x="467" 
d="M336 500h144l-72 -340c-3 -13 -4 -23 -4 -32c0 -28 13 -37 41 -37c9 0 15 1 22 4c-27 -70 -46 -101 -100 -101s-90 35 -98 93c-30 -46 -78 -93 -149 -93c-68 0 -133 42 -133 161c0 135 83 350 257 350c57 0 81 -22 81 -51v-7zM275 443c-85 0 -140 -180 -140 -274
c0 -77 32 -78 50 -78c29 0 71 30 83 88l48 226c0 12 -9 38 -41 38z" />
    <glyph glyph-name="a_x.end" horiz-adv-x="884" 
d="M336 500h144l-72 -340c-2 -9 -3 -17 -3 -25c0 -25 10 -44 43 -44c52 0 118 43 160 94l-58 315h141l39 -216c59 64 95 123 95 159c0 4 0 8 -1 12c-6 -1 -12 -2 -17 -2c-35 0 -47 25 -47 56c0 30 25 47 56 47c45 0 68 -40 68 -89c0 -65 -45 -134 -143 -238l9 -50
c11 -59 19 -88 63 -88c18 0 26 3 32 6c-5 -71 -56 -103 -110 -103c-63 0 -93 39 -116 134c-75 -95 -154 -134 -235 -134c-55 0 -104 35 -114 94c-31 -47 -78 -94 -150 -94c-68 0 -133 42 -133 161c0 135 83 350 257 350c57 0 81 -22 81 -51v-7zM275 443
c-85 0 -140 -180 -140 -274c0 -77 32 -78 50 -78c29 0 71 30 83 88l48 226c0 12 -9 38 -41 38z" />
    <glyph glyph-name="aacute" unicode="&#xe1;" horiz-adv-x="526" 
d="M336 500h144l-72 -340c-3 -13 -4 -23 -4 -32c0 -28 13 -43 41 -43c39 0 66 44 81 94h42c-57 -163 -147 -185 -201 -185c-56 0 -92 32 -98 92c-31 -46 -78 -92 -149 -92c-68 0 -133 42 -133 161c0 135 83 350 257 350c57 0 81 -22 81 -51v-7zM275 443
c-85 0 -140 -180 -140 -274c0 -77 32 -78 50 -78c29 0 71 30 83 88l48 226c0 12 -9 38 -41 38zM245 561l91 189h105l-121 -189h-75z" />
    <glyph glyph-name="aacute.end" horiz-adv-x="461" 
d="M330 500h144l-72 -340c-3 -13 -4 -23 -4 -32c0 -28 13 -37 41 -37c9 0 15 1 22 4c-27 -70 -46 -101 -100 -101s-90 35 -98 93c-30 -46 -78 -93 -149 -93c-68 0 -133 42 -133 161c0 135 83 350 257 350c57 0 81 -22 81 -51v-7zM269 443c-85 0 -140 -180 -140 -274
c0 -77 32 -78 50 -78c29 0 71 30 83 88l48 226c0 12 -9 38 -41 38zM248 561l91 189h105l-121 -189h-75z" />
    <glyph glyph-name="acircumflex" unicode="&#xe2;" horiz-adv-x="526" 
d="M336 500h144l-72 -340c-3 -13 -4 -23 -4 -32c0 -28 13 -43 41 -43c39 0 66 44 81 94h42c-57 -163 -147 -185 -201 -185c-56 0 -92 32 -98 92c-31 -46 -78 -92 -149 -92c-68 0 -133 42 -133 161c0 135 83 350 257 350c57 0 81 -22 81 -51v-7zM275 443
c-85 0 -140 -180 -140 -274c0 -77 32 -78 50 -78c29 0 71 30 83 88l48 226c0 12 -9 38 -41 38zM439 561h-32l-60 80l-157 -80h-44l212 189h21z" />
    <glyph glyph-name="acute" unicode="&#xb4;" horiz-adv-x="316" 
d="M120 561l91 189h105l-121 -189h-75z" />
    <glyph glyph-name="adieresis" unicode="&#xe4;" horiz-adv-x="526" 
d="M336 500h144l-72 -340c-3 -13 -4 -23 -4 -32c0 -28 13 -43 41 -43c39 0 66 44 81 94h42c-57 -163 -147 -185 -201 -185c-56 0 -92 32 -98 92c-31 -46 -78 -92 -149 -92c-68 0 -133 42 -133 161c0 135 83 350 257 350c57 0 81 -22 81 -51v-7zM275 443
c-85 0 -140 -180 -140 -274c0 -77 32 -78 50 -78c29 0 71 30 83 88l48 226c0 12 -9 38 -41 38zM180 634c0 33 27 61 61 61c33 0 61 -28 61 -61c0 -34 -28 -61 -61 -61c-34 0 -61 27 -61 61zM360 634c0 33 27 61 61 61c33 0 61 -28 61 -61c0 -34 -28 -61 -61 -61
c-34 0 -61 27 -61 61z" />
    <glyph glyph-name="ae" unicode="&#xe6;" horiz-adv-x="650" 
d="M119 -6c-58 0 -127 24 -127 130c0 124 96 166 222 166c24 0 40 -2 52 -4c13 28 21 60 21 88c0 40 -19 71 -61 71c-60 0 -92 -21 -121 -47l-28 29c74 76 126 78 182 78c50 0 96 -12 130 -40c36 27 81 44 135 44c89 0 109 -46 109 -99c0 -111 -110 -201 -230 -208
c-1 -11 -2 -22 -2 -32c0 -75 24 -92 60 -92c96 0 134 40 189 101h34c-56 -90 -140 -183 -276 -183c-73 0 -128 27 -147 94c-27 -51 -62 -96 -142 -96zM556 412c0 28 -6 44 -24 44c-52 0 -101 -110 -122 -206c78 5 146 83 146 162zM242 229c-65 0 -109 -35 -109 -88
c0 -46 34 -50 46 -50c33 0 60 28 80 137c-6 1 -11 1 -17 1z" />
    <glyph glyph-name="agrave" unicode="&#xe0;" horiz-adv-x="526" 
d="M336 500h144l-72 -340c-3 -13 -4 -23 -4 -32c0 -28 13 -43 41 -43c39 0 66 44 81 94h42c-57 -163 -147 -185 -201 -185c-56 0 -92 32 -98 92c-31 -46 -78 -92 -149 -92c-68 0 -133 42 -133 161c0 135 83 350 257 350c57 0 81 -22 81 -51v-7zM275 443
c-85 0 -140 -180 -140 -274c0 -77 32 -78 50 -78c29 0 71 30 83 88l48 226c0 12 -9 38 -41 38zM275 561l-59 189h105l29 -189h-75z" />
    <glyph glyph-name="ampersand" unicode="&#x26;" horiz-adv-x="682" 
d="M676 413h6c0 -56 -69 -125 -152 -139c-76 -274 -214 -280 -312 -280c-138 0 -207 99 -207 202c0 96 60 196 181 221c-68 37 -99 95 -99 152c0 91 80 181 222 181c93 0 184 -37 184 -134c0 -53 -19 -92 -70 -92c-16 0 -38 4 -57 26c25 7 44 57 44 82c0 16 -2 74 -66 74
c-73 0 -122 -56 -122 -123c0 -58 38 -123 132 -165c-127 -52 -174 -132 -174 -201c0 -73 53 -133 117 -133c69 0 150 42 181 188c-25 2 -48 6 -71 6c-43 0 -75 -15 -94 -45l-7 1c20 82 90 141 193 141c28 0 51 -5 76 -5c37 0 78 13 95 43z" />
    <glyph glyph-name="aogonek" unicode="&#x105;" horiz-adv-x="526" 
d="M336 500h144l-72 -340c-3 -13 -4 -23 -4 -32c0 -28 13 -43 41 -43c39 0 66 44 81 94h42c-39 -110 -93 -153 -140 -174c-22 -10 -56 -49 -56 -89c0 -22 11 -50 39 -50c24 0 48 21 68 34c-1 -12 -2 -19 -2 -31c-25 -23 -57 -62 -109 -62c-55 0 -79 43 -79 78
c0 34 22 73 64 110c-48 5 -79 36 -84 91c-31 -46 -78 -92 -149 -92c-68 0 -133 42 -133 161c0 135 83 350 257 350c57 0 81 -22 81 -51v-7zM275 443c-85 0 -140 -180 -140 -274c0 -77 32 -78 50 -78c29 0 71 30 83 88l48 226c0 12 -9 38 -41 38z" />
    <glyph glyph-name="aring" unicode="&#xe5;" horiz-adv-x="526" 
d="M336 500h144l-72 -340c-3 -13 -4 -23 -4 -32c0 -28 13 -43 41 -43c39 0 66 44 81 94h42c-57 -163 -147 -185 -201 -185c-56 0 -92 32 -98 92c-31 -46 -78 -92 -149 -92c-68 0 -133 42 -133 161c0 135 83 350 257 350c57 0 81 -22 81 -51v-7zM275 443
c-85 0 -140 -180 -140 -274c0 -77 32 -78 50 -78c29 0 71 30 83 88l48 226c0 12 -9 38 -41 38zM319 713c49 0 72 -34 72 -77c0 -44 -25 -84 -87 -84c-43 0 -70 32 -70 70c0 36 25 91 85 91zM354 633c0 19 -1 47 -33 47c-35 0 -47 -31 -47 -56c0 -22 10 -37 34 -37
c31 0 46 18 46 46z" />
    <glyph glyph-name="asciicircum" unicode="^" horiz-adv-x="421" 
d="M343 561h-32l-60 80l-157 -80h-44l212 189h21z" />
    <glyph glyph-name="asciitilde" unicode="~" horiz-adv-x="431" 
d="M444 670l6 -1c-11 -47 -85 -100 -161 -100c-66 0 -113 37 -168 37c-26 0 -48 -9 -66 -26l-6 2c32 64 91 98 167 98c73 0 107 -33 165 -33c25 0 49 8 63 23z" />
    <glyph glyph-name="asterisk" unicode="*" horiz-adv-x="515" 
d="M223 752h64v-135l107 62l30 -52l-109 -63l109 -63l-30 -52l-107 62v-135h-64v135l-107 -62l-30 52l109 63l-109 63l30 52l107 -62v135z" />
    <glyph glyph-name="at" unicode="@" horiz-adv-x="562" 
d="M195 -38c-125 0 -203 48 -203 202c0 218 155 393 341 393c61 0 158 -19 158 -157c0 -130 -85 -264 -170 -264c-23 0 -36 9 -44 23c-13 -18 -34 -39 -59 -39c-44 0 -64 25 -64 69c0 68 48 243 132 243c18 0 31 -9 38 -18l4 16l55 -6l-45 -192c-2 -8 -4 -16 -4 -23
c0 -13 5 -19 13 -19c41 0 77 168 77 224c0 36 -15 79 -88 79c-147 0 -234 -171 -234 -323c0 -80 24 -118 122 -118c74 0 117 22 150 66c18 -8 23 -29 23 -45c0 -63 -77 -111 -202 -111zM273 216l43 166c-5 6 -12 8 -18 8c-58 0 -79 -137 -79 -178c0 -22 7 -31 18 -31
c9 0 21 6 33 14c0 7 1 14 3 21z" />
    <glyph glyph-name="atilde" unicode="&#xe3;" horiz-adv-x="526" 
d="M336 500h144l-72 -340c-3 -13 -4 -23 -4 -32c0 -28 13 -43 41 -43c39 0 66 44 81 94h42c-57 -163 -147 -185 -201 -185c-56 0 -92 32 -98 92c-31 -46 -78 -92 -149 -92c-68 0 -133 42 -133 161c0 135 83 350 257 350c57 0 81 -22 81 -51v-7zM275 443
c-85 0 -140 -180 -140 -274c0 -77 32 -78 50 -78c29 0 71 30 83 88l48 226c0 12 -9 38 -41 38zM497 670l6 -1c-11 -47 -85 -100 -161 -100c-66 0 -113 37 -168 37c-26 0 -48 -9 -66 -26l-6 2c32 64 91 98 167 98c73 0 107 -33 165 -33c25 0 49 8 63 23z" />
    <glyph glyph-name="b" unicode="b" horiz-adv-x="444" 
d="M0 179l107 501l148 20l-48 -225c41 25 62 28 82 28c70 0 118 -44 118 -171c0 -117 -62 -338 -274 -338c-92 0 -140 48 -140 128c0 17 2 36 7 57zM306 336c0 49 -17 96 -53 96c-14 0 -48 -5 -59 -18l-55 -254c-2 -8 -3 -16 -3 -23c0 -29 17 -46 53 -46
c65 0 117 140 117 245z" />
    <glyph glyph-name="b_s.end" horiz-adv-x="731" 
d="M0 179l107 501l148 20l-48 -225c41 25 62 28 82 28c66 0 112 -39 117 -150c49 8 101 65 155 158l148 20c12 -259 22 -298 22 -364c0 -130 -94 -173 -176 -173c-119 0 -139 72 -139 133c0 59 37 95 72 95c34 0 52 -13 52 -42c0 -24 -22 -45 -48 -45c-10 0 -22 3 -27 13
c0 -47 20 -75 58 -75c44 0 63 23 63 93c0 56 -11 87 -22 272c-47 -70 -100 -115 -158 -135c-9 -121 -77 -309 -273 -309c-92 0 -140 48 -140 128c0 17 2 36 7 57zM288 338c0 18 5 31 13 41c-7 30 -23 53 -48 53c-14 0 -48 -5 -59 -18l-55 -254c-2 -8 -3 -16 -3 -23
c0 -29 17 -46 53 -46c57 0 105 109 115 207c-11 7 -16 20 -16 40z" />
    <glyph glyph-name="backslash" unicode="\" horiz-adv-x="362" 
d="M254 -250l-212 1000h72l212 -1000h-72z" />
    <glyph glyph-name="bar" unicode="|" horiz-adv-x="532" 
d="M312 751v-1001h-93v1001h93z" />
    <glyph glyph-name="braceleft" unicode="{" horiz-adv-x="352" 
d="M383 750l-9 -50c-41 0 -69 -2 -91 -26c-36 -40 -45 -84 -46 -138l6 -171c-2 -58 -16 -91 -40 -111c7 -8 12 -20 12 -36c0 -89 -119 -242 -119 -342c0 -48 23 -80 85 -80l-9 -45h-9c-60 0 -88 1 -114 42c-14 21 -19 44 -19 67c0 94 91 201 117 315c2 8 3 16 3 22
c0 18 -9 31 -41 31c-9 0 -19 -1 -32 -3l12 57c12 -2 22 -3 31 -3c64 0 67 64 67 111c0 55 -7 108 -7 159c0 76 41 201 160 201h43z" />
    <glyph glyph-name="braceright" unicode="}" horiz-adv-x="352" 
d="M30 -249l9 50c41 0 69 2 91 26c36 40 45 84 46 138l-6 171c2 58 16 91 40 111c-7 8 -12 20 -12 36c0 89 119 242 119 342c0 48 -23 80 -85 80l9 45h9c60 0 88 -1 114 -42c14 -21 19 -44 19 -67c0 -94 -91 -201 -117 -315c-2 -8 -3 -16 -3 -22c0 -18 9 -31 41 -31
c9 0 19 1 32 3l-12 -57c-12 2 -22 3 -31 3c-64 0 -67 -64 -67 -111c0 -55 7 -108 7 -159c0 -76 -41 -201 -160 -201h-43z" />
    <glyph glyph-name="bracketleft" unicode="[" horiz-adv-x="400" 
d="M182 -188l-13 -62h-193l212 1000h193l-13 -62h-121l-186 -876h121z" />
    <glyph glyph-name="bracketright" unicode="]" horiz-adv-x="400" 
d="M175 688l13 62h193l-212 -1000h-193l13 62h121l186 876h-121z" />
    <glyph glyph-name="brokenbar" unicode="&#xa6;" horiz-adv-x="532" 
d="M312 222v-472h-93v472h93zM312 301h-93v450h93v-450z" />
    <glyph glyph-name="bullet" unicode="&#x2022;" horiz-adv-x="434" 
d="M120 267c0 53 43 97 96 97s97 -44 97 -97s-44 -96 -97 -96s-96 43 -96 96z" />
    <glyph glyph-name="c" unicode="c" horiz-adv-x="384" 
d="M279 356c8 22 12 42 12 59c0 25 -9 41 -28 41c-63 0 -128 -183 -128 -294c0 -68 24 -84 72 -84c79 0 127 44 177 101h34c-57 -92 -142 -185 -275 -185c-94 0 -156 46 -156 159c0 116 66 356 269 356c89 0 111 -46 111 -92c0 -49 -24 -73 -53 -73c-11 0 -23 4 -35 12z" />
    <glyph glyph-name="c.end" horiz-adv-x="341" 
d="M272 356c8 21 12 42 12 59c0 24 -8 41 -27 41c-64 0 -129 -187 -129 -286c0 -62 26 -83 60 -83c39 0 89 29 120 55c-21 -114 -93 -148 -173 -148c-93 0 -155 46 -155 159c0 116 66 356 269 356c89 0 111 -46 111 -93c0 -51 -26 -72 -53 -72c-12 0 -24 4 -35 12z" />
    <glyph glyph-name="cacute" unicode="&#x107;" horiz-adv-x="384" 
d="M279 356c8 22 12 42 12 59c0 25 -9 41 -28 41c-63 0 -128 -183 -128 -294c0 -68 24 -84 72 -84c79 0 127 44 177 101h34c-57 -92 -142 -185 -275 -185c-94 0 -156 46 -156 159c0 116 66 356 269 356c89 0 111 -46 111 -92c0 -49 -24 -73 -53 -73c-11 0 -23 4 -35 12z
M244 561l91 189h105l-121 -189h-75z" />
    <glyph glyph-name="caron" unicode="&#x2c7;" horiz-adv-x="294" 
d="M100 750h32l60 -80l157 80h44l-212 -189h-21z" />
    <glyph glyph-name="ccaron" unicode="&#x10d;" horiz-adv-x="384" 
d="M279 356c8 22 12 42 12 59c0 25 -9 41 -28 41c-63 0 -128 -183 -128 -294c0 -68 24 -84 72 -84c79 0 127 44 177 101h34c-57 -92 -142 -185 -275 -185c-94 0 -156 46 -156 159c0 116 66 356 269 356c89 0 111 -46 111 -92c0 -49 -24 -73 -53 -73c-11 0 -23 4 -35 12z
M206 750h32l60 -80l157 80h44l-212 -189h-21z" />
    <glyph glyph-name="ccedilla" unicode="&#xe7;" horiz-adv-x="384" 
d="M131 -119l41 115c-10 -2 -19 -2 -29 -2c-94 0 -156 46 -156 159c0 116 66 356 269 356c89 0 111 -46 111 -92c0 -49 -24 -73 -53 -73c-11 0 -23 4 -35 12c8 22 12 42 12 59c0 25 -9 41 -28 41c-63 0 -128 -183 -128 -294c0 -68 24 -84 72 -84c79 0 127 44 177 101h34
c-46 -73 -109 -147 -200 -174l-28 -71c20 5 38 8 53 8c42 0 62 -19 62 -50c0 -72 -62 -110 -120 -110c-51 0 -78 13 -107 28c9 16 21 32 40 32c41 0 46 -27 74 -27c17 0 30 21 30 42c0 18 -11 36 -39 36c-26 0 -41 -7 -52 -12z" />
    <glyph glyph-name="ccircumflex" unicode="&#x109;" horiz-adv-x="384" 
d="M279 356c8 22 12 42 12 59c0 25 -9 41 -28 41c-63 0 -128 -183 -128 -294c0 -68 24 -84 72 -84c79 0 127 44 177 101h34c-57 -92 -142 -185 -275 -185c-94 0 -156 46 -156 159c0 116 66 356 269 356c89 0 111 -46 111 -92c0 -49 -24 -73 -53 -73c-11 0 -23 4 -35 12z
M400 561h-32l-60 80l-157 -80h-44l212 189h21z" />
    <glyph glyph-name="cedilla" unicode="&#xb8;" horiz-adv-x="227" 
d="M227 -108c0 -72 -62 -110 -120 -110c-51 0 -78 13 -107 28c9 16 21 32 40 32c41 0 46 -27 74 -27c17 0 30 21 30 42c0 18 -11 36 -39 36c-26 0 -41 -7 -52 -12l53 148l35 -23l-29 -72c20 5 38 8 53 8c42 0 62 -19 62 -50z" />
    <glyph glyph-name="cent" unicode="&#xa2;" horiz-adv-x="403" 
d="M127 -27l31 173c-69 10 -127 68 -127 170c0 135 73 261 208 279l22 123h58l-27 -122c47 -3 90 -20 90 -68c0 -11 -1 -20 -5 -33h-57c3 11 5 20 5 28c0 24 -15 34 -37 34h-5l-76 -343c5 -1 9 -1 15 -1c54 0 93 34 132 68c-14 -84 -64 -132 -162 -136l-38 -172h-27z
M136 319c0 -33 11 -70 37 -90l55 305c-54 -42 -92 -135 -92 -215z" />
    <glyph glyph-name="circumflex" unicode="&#x2c6;" horiz-adv-x="293" 
d="M293 561h-32l-60 80l-157 -80h-44l212 189h21z" />
    <glyph glyph-name="circunflex" horiz-adv-x="293" 
d="M293 561h-32l-60 80l-157 -80h-44l212 189h21z" />
    <glyph glyph-name="colon" unicode=":" horiz-adv-x="267" 
d="M41 135c0 44 35 80 79 80s80 -36 80 -80s-36 -79 -80 -79s-79 35 -79 79zM91 375c0 44 35 80 79 80s80 -36 80 -80s-36 -79 -80 -79s-79 35 -79 79z" />
    <glyph glyph-name="comma" unicode="," horiz-adv-x="216" 
d="M24 75c0 44 35 80 79 80s68 -32 68 -76c0 -60 -48 -148 -130 -205c-7 5 -9 11 -9 17c0 36 52 54 52 91c0 7 -4 14 -13 20c-26 17 -47 40 -47 73z" />
    <glyph glyph-name="copyright" unicode="&#xa9;" horiz-adv-x="587" 
d="M300 484c62 -3 111 -42 124 -95l-47 -18c-7 24 -18 61 -75 61c-50 0 -95 -29 -95 -91c0 -60 42 -107 95 -107c31 0 60 17 75 45l44 -29c-28 -42 -74 -68 -123 -68c-81 0 -146 71 -146 154c0 85 67 148 148 148zM293 76c-132 0 -242 113 -242 255c0 143 110 256 242 256
s242 -112 242 -255s-110 -256 -242 -256zM97 331c0 -120 90 -213 198 -213c107 0 197 93 197 213s-90 213 -197 213c-108 0 -198 -93 -198 -213z" />
    <glyph glyph-name="currency" unicode="&#xa4;" horiz-adv-x="500" 
d="M68 492l38 36l56 -56c26 19 57 30 91 30c33 0 64 -11 89 -29l56 56l36 -36l-55 -55c19 -26 30 -58 30 -92s-11 -65 -30 -91l55 -55l-36 -36l-55 55c-25 -18 -56 -29 -90 -29s-66 11 -92 30l-56 -56l-36 36l56 56c-18 25 -29 56 -29 89c0 34 11 65 29 90zM253 446
c-55 0 -100 -45 -100 -100s45 -100 100 -100s100 45 100 100s-45 100 -100 100z" />
    <glyph glyph-name="d" unicode="d" horiz-adv-x="525" 
d="M374 680l148 20l-115 -540c-3 -13 -4 -23 -4 -32c0 -28 13 -37 41 -37c39 0 66 38 81 88h42c-57 -163 -147 -179 -201 -179s-90 30 -98 86c-30 -46 -77 -92 -148 -92c-68 0 -133 42 -133 161c0 135 83 350 257 350c57 0 81 -22 81 -51v-4zM267 174v5l49 229
c-2 12 -11 35 -41 35c-85 0 -140 -180 -140 -274c0 -77 32 -78 50 -78c28 0 69 28 82 83z" />
    <glyph glyph-name="d.end" horiz-adv-x="476" 
d="M522 700l-115 -540c-2 -10 -4 -20 -4 -29c0 -23 10 -40 41 -40c18 0 26 3 32 6c-5 -71 -56 -103 -110 -103c-51 0 -92 25 -104 83c-30 -43 -76 -83 -142 -83c-68 0 -133 42 -133 161c0 135 83 350 257 350c57 0 81 -22 81 -51v-4l49 230zM263 163l53 245
c-2 12 -11 35 -41 35c-85 0 -140 -180 -140 -274c0 -77 32 -78 50 -78c26 0 67 23 78 72z" />
    <glyph glyph-name="dagger" unicode="&#x2020;" horiz-adv-x="495" 
d="M378 750l-69 -322h151l-23 -112h-151l-120 -566h-72l120 566h-146l24 112h145l69 322h72z" />
    <glyph glyph-name="daggerdbl" unicode="&#x2021;" horiz-adv-x="495" 
d="M378 750l-69 -322h151l-23 -112h-151l-22 -103h152l-23 -112h-153l-74 -351h-72l74 351h-144l24 112h144l22 103h-146l24 112h145l69 322h72z" />
    <glyph glyph-name="degree" unicode="&#xb0;" horiz-adv-x="314" 
d="M199 702c58 0 82 -40 82 -113c0 -85 -52 -215 -148 -215c-78 0 -96 42 -96 114c0 118 62 214 162 214zM111 519c-1 -12 -2 -27 -2 -43c0 -32 5 -65 27 -65c53 0 85 92 85 193c0 35 -4 63 -25 63c-28 0 -77 -51 -85 -148z" />
    <glyph glyph-name="dieresis" unicode="&#xa8;" horiz-adv-x="392" 
d="M56 634c0 33 27 61 61 61c33 0 61 -28 61 -61c0 -34 -28 -61 -61 -61c-34 0 -61 27 -61 61zM236 634c0 33 27 61 61 61c33 0 61 -28 61 -61c0 -34 -28 -61 -61 -61c-34 0 -61 27 -61 61z" />
    <glyph glyph-name="divide" unicode="&#xf7;" horiz-adv-x="472" 
d="M147 80c0 44 35 80 79 80s80 -36 80 -80s-36 -79 -80 -79s-79 35 -79 79zM207 415c0 44 35 80 79 80s80 -36 80 -80s-36 -79 -80 -79s-79 35 -79 79zM419 285l-17 -79h-351l18 79h350z" />
    <glyph glyph-name="dollar" unicode="$" horiz-adv-x="403" 
d="M110 -27l24 135c-61 5 -110 35 -110 114c0 52 33 86 72 86c28 0 43 -12 43 -25c-28 -5 -40 -34 -40 -74c0 -29 20 -51 42 -61l36 196c-48 40 -106 73 -106 137c0 74 80 128 154 131l19 106h58l-25 -109c43 -7 87 -27 87 -83c0 -46 -18 -76 -48 -76c-16 0 -26 7 -39 23
c17 10 24 31 24 52c0 15 -10 35 -32 44l-36 -161c51 -33 113 -71 113 -153c0 -95 -76 -146 -180 -148l-29 -134h-27zM241 234c0 31 -12 55 -29 76l-37 -166c48 6 66 46 66 90zM166 500c0 -25 11 -44 28 -61l24 135c-39 -8 -52 -44 -52 -74z" />
    <glyph glyph-name="dotlessi" unicode="&#x131;" horiz-adv-x="267" 
d="M68 500h144l-72 -340c-3 -13 -4 -23 -4 -32c0 -28 13 -37 41 -37c39 0 75 38 90 88h42c-57 -163 -156 -185 -210 -185c-60 0 -107 36 -107 120c0 19 3 41 8 65z" />
    <glyph glyph-name="dotlessi.end" horiz-adv-x="209" 
d="M68 500h144l-72 -340c-3 -13 -4 -23 -4 -32c0 -28 13 -37 41 -37c18 0 26 3 32 6c-5 -71 -56 -103 -110 -103c-60 0 -107 36 -107 120c0 19 3 41 8 65z" />
    <glyph glyph-name="e" unicode="e" horiz-adv-x="384" 
d="M135 162c0 -68 24 -84 72 -84c79 0 127 44 177 101h34c-57 -92 -142 -185 -275 -185c-94 0 -156 46 -156 159c0 115 65 356 270 356c89 0 110 -46 110 -96c0 -115 -110 -204 -230 -211c-1 -14 -2 -28 -2 -40zM290 415c0 25 -6 41 -25 41c-51 0 -100 -107 -120 -206
c77 5 145 82 145 165z" />
    <glyph glyph-name="e.end" horiz-adv-x="366" 
d="M134 172c0 -63 27 -83 62 -83c38 0 86 25 118 53c-21 -114 -93 -148 -173 -148c-93 0 -155 46 -155 159c0 115 65 356 270 356c89 0 110 -46 110 -96c0 -116 -110 -204 -230 -211c-1 -10 -2 -21 -2 -30zM289 415c0 25 -6 41 -25 41c-50 0 -100 -111 -121 -206
c78 4 146 81 146 165z" />
    <glyph glyph-name="e_x.end" horiz-adv-x="747" 
d="M413 500h141l39 -216c59 64 95 123 95 159c0 4 0 8 -1 12c-6 -1 -12 -2 -18 -2c-34 0 -46 27 -46 52c0 35 24 51 54 51c47 0 70 -39 70 -87c0 -65 -42 -132 -143 -241l9 -49c11 -59 19 -88 63 -88c18 0 26 3 32 6c-5 -71 -56 -103 -110 -103c-64 0 -94 40 -117 139
c-80 -83 -204 -139 -316 -139c-97 0 -178 42 -178 163c0 109 65 352 270 352c89 0 110 -46 110 -96c0 -116 -110 -204 -231 -211c-1 -9 -1 -19 -1 -27c0 -75 44 -99 100 -99c71 0 169 39 235 114zM290 415c0 25 -6 41 -25 41c-51 0 -101 -113 -121 -206c78 4 146 81 146 165
z" />
    <glyph glyph-name="eacute" unicode="&#xe9;" horiz-adv-x="384" 
d="M135 162c0 -68 24 -84 72 -84c79 0 127 44 177 101h34c-57 -92 -142 -185 -275 -185c-94 0 -156 46 -156 159c0 115 65 356 270 356c89 0 110 -46 110 -96c0 -115 -110 -204 -230 -211c-1 -14 -2 -28 -2 -40zM290 415c0 25 -6 41 -25 41c-51 0 -100 -107 -120 -206
c77 5 145 82 145 165zM194 561l91 189h105l-121 -189h-75z" />
    <glyph glyph-name="eacute.end" horiz-adv-x="367" 
d="M135 172c0 -63 27 -83 62 -83c38 0 86 25 118 53c-21 -114 -93 -148 -173 -148c-93 0 -155 46 -155 159c0 115 65 356 270 356c89 0 110 -46 110 -96c0 -116 -110 -204 -230 -211c-1 -10 -2 -21 -2 -30zM208 561l91 189h105l-121 -189h-75zM290 415c0 25 -6 41 -25 41
c-50 0 -100 -111 -121 -206c78 4 146 81 146 165z" />
    <glyph glyph-name="ecircumflex" unicode="&#xea;" horiz-adv-x="384" 
d="M135 162c0 -68 24 -84 72 -84c79 0 127 44 177 101h34c-57 -92 -142 -185 -275 -185c-94 0 -156 46 -156 159c0 115 65 356 270 356c89 0 110 -46 110 -96c0 -115 -110 -204 -230 -211c-1 -14 -2 -28 -2 -40zM290 415c0 25 -6 41 -25 41c-51 0 -100 -107 -120 -206
c77 5 145 82 145 165zM398 561h-32l-60 80l-157 -80h-44l212 189h21z" />
    <glyph glyph-name="edieresis" unicode="&#xeb;" horiz-adv-x="384" 
d="M135 162c0 -68 24 -84 72 -84c79 0 127 44 177 101h34c-57 -92 -142 -185 -275 -185c-94 0 -156 46 -156 159c0 115 65 356 270 356c89 0 110 -46 110 -96c0 -115 -110 -204 -230 -211c-1 -14 -2 -28 -2 -40zM290 415c0 25 -6 41 -25 41c-51 0 -100 -107 -120 -206
c77 5 145 82 145 165zM119 634c0 33 27 61 61 61c33 0 61 -28 61 -61c0 -34 -28 -61 -61 -61c-34 0 -61 27 -61 61zM299 634c0 33 27 61 61 61c33 0 61 -28 61 -61c0 -34 -28 -61 -61 -61c-34 0 -61 27 -61 61z" />
    <glyph glyph-name="egrave" unicode="&#xe8;" horiz-adv-x="384" 
d="M135 162c0 -68 24 -84 72 -84c79 0 127 44 177 101h34c-57 -92 -142 -185 -275 -185c-94 0 -156 46 -156 159c0 115 65 356 270 356c89 0 110 -46 110 -96c0 -115 -110 -204 -230 -211c-1 -14 -2 -28 -2 -40zM290 415c0 25 -6 41 -25 41c-51 0 -100 -107 -120 -206
c77 5 145 82 145 165zM232 561l-59 189h105l29 -189h-75z" />
    <glyph glyph-name="eight" unicode="8" horiz-adv-x="499" 
d="M208 67c68 0 115 82 115 168c0 54 -19 110 -63 148c-83 -55 -123 -149 -123 -220c0 -55 24 -96 71 -96zM203 -5c-137 0 -211 98 -211 201c0 91 58 187 180 221c-59 34 -85 84 -85 136c0 96 91 196 223 196c126 0 189 -67 189 -145c0 -67 -47 -142 -140 -187
c85 -26 121 -88 121 -156c0 -122 -116 -266 -277 -266zM271 451c67 44 101 123 101 180c0 40 -17 70 -49 70c-66 0 -105 -64 -105 -131c0 -44 17 -89 53 -119z" />
    <glyph glyph-name="ellipsis" unicode="&#x2026;" horiz-adv-x="702" 
d="M31 75c0 44 35 80 79 80s80 -36 80 -80s-36 -79 -80 -79s-79 35 -79 79zM266 75c0 44 35 80 79 80s80 -36 80 -80s-36 -79 -80 -79s-79 35 -79 79zM511 75c0 44 35 80 79 80s80 -36 80 -80s-36 -79 -80 -79s-79 35 -79 79z" />
    <glyph glyph-name="emdash" unicode="&#x2014;" horiz-adv-x="444" 
d="M387 301l-17 -79h-351l18 79h350z" />
    <glyph glyph-name="endash" unicode="&#x2013;" horiz-adv-x="352" 
d="M297 301l-17 -79h-261l18 79h260z" />
    <glyph glyph-name="eogonek" unicode="&#x119;" horiz-adv-x="384" 
d="M201 -84c0 -22 11 -50 39 -50c24 0 48 21 68 34c-1 -12 -2 -19 -2 -31c-25 -23 -57 -62 -109 -62c-55 0 -79 43 -79 78s23 75 67 112c-13 -2 -27 -3 -42 -3c-94 0 -156 46 -156 159c0 115 65 356 270 356c89 0 110 -46 110 -96c0 -115 -110 -204 -230 -211
c-1 -14 -2 -28 -2 -40c0 -68 24 -84 72 -84c79 0 127 44 177 101h34c-105 -178 -217 -148 -217 -263zM290 415c0 25 -6 41 -25 41c-51 0 -100 -107 -120 -206c77 5 145 82 145 165z" />
    <glyph glyph-name="equal" unicode="=" horiz-adv-x="515" 
d="M468 428l-23 -112h-369l24 112h368zM424 213l-23 -112h-369l24 112h368z" />
    <glyph glyph-name="eth" unicode="&#xf0;" horiz-adv-x="538" 
d="M474 415l-54 -255c-3 -13 -4 -23 -4 -32c0 -28 13 -37 41 -37c39 0 66 38 81 88h42c-57 -163 -147 -179 -201 -179s-90 30 -98 87c-30 -46 -78 -93 -149 -93c-68 0 -133 42 -133 161c0 135 83 350 257 350c57 0 81 -22 81 -51v-6l8 37c6 28 10 54 11 76h-77l8 40h69
c-4 35 -17 66 -42 99h45c43 -24 84 -51 107 -99h63l-8 -40h-42c4 -16 6 -34 6 -53c0 -27 -4 -58 -11 -93zM280 179l48 226c0 11 -8 38 -41 38c-85 0 -140 -180 -140 -274c0 -77 32 -78 50 -78c29 0 71 30 83 88z" />
    <glyph glyph-name="exclam" unicode="!" horiz-adv-x="257" 
d="M183 231h-85l71 469h144zM193 80c0 -44 -35 -80 -79 -80s-80 36 -80 80s36 79 80 79s79 -35 79 -79z" />
    <glyph glyph-name="exclamdown" unicode="&#xa1;" horiz-adv-x="219" 
d="M69 221h85l-71 -469h-144zM59 372c0 44 35 80 79 80s80 -36 80 -80s-36 -79 -80 -79s-79 35 -79 79z" />
    <glyph glyph-name="f" unicode="f" horiz-adv-x="267" 
d="M382 600h-47c1 10 2 18 2 27c0 23 -18 34 -38 34c-22 0 -56 -15 -70 -82l-17 -79h73l-7 -40h-74l-115 -540c-30 -143 -113 -170 -179 -170c-61 0 -118 43 -118 108c0 92 77 121 172 150l121 571c30 143 116 170 182 170c61 0 118 -43 118 -108c0 -16 -1 -29 -3 -41z
M-153 -128c0 -14 18 -33 40 -33c21 0 44 19 57 78l13 58c-63 -21 -110 -49 -110 -103z" />
    <glyph glyph-name="fi.end" horiz-adv-x="479" 
d="M-152 -121c0 -34 30 -40 41 -40c20 0 46 21 58 78l12 58c-63 -20 -111 -54 -111 -96zM411 553c-29 0 -60 11 -60 54c0 22 13 49 34 49c2 0 7 0 8 -1c-1 26 -23 40 -55 40c-65 0 -94 -56 -106 -113l-17 -82h80l-8 -40h-80l-114 -540c-29 -138 -113 -170 -176 -170
c-73 0 -124 43 -124 112c0 89 87 120 173 146l111 526c39 184 148 215 234 215c80 0 179 -18 179 -115c0 -60 -38 -81 -79 -81zM335 500h144l-72 -340c-3 -13 -4 -23 -4 -32c0 -28 13 -37 41 -37c18 0 26 3 32 6c-5 -71 -56 -103 -110 -103c-60 0 -107 36 -107 120
c0 19 3 41 8 65z" />
    <glyph glyph-name="fl.end" horiz-adv-x="490" 
d="M-154 -128c0 -14 18 -33 40 -33c20 0 47 19 59 78l12 58c-63 -21 -111 -49 -111 -103zM531 680l-110 -520c-3 -13 -4 -23 -4 -32c0 -28 13 -37 41 -37c18 0 26 3 32 6c-5 -71 -56 -103 -110 -103c-60 0 -107 36 -107 120c0 19 3 41 8 65l104 491c-26 11 -69 16 -82 16
c-22 0 -54 -12 -68 -79l-22 -107h93l-8 -40h-93l-114 -540c-30 -143 -116 -170 -182 -170c-61 0 -118 43 -118 108c0 92 78 121 173 150l120 571c30 143 117 170 182 170c90 0 175 -33 265 -69z" />
    <glyph glyph-name="f_u.end" horiz-adv-x="724" 
d="M212 500h267l-72 -340c-2 -8 -3 -17 -3 -25c0 -23 7 -44 30 -44c39 0 65 38 80 88l68 321h144l-72 -340c-3 -13 -4 -23 -4 -32c0 -28 13 -37 41 -37c19 0 24 3 33 6c-5 -72 -57 -103 -111 -103c-55 0 -91 36 -98 95c-50 -82 -107 -95 -149 -95c-60 0 -107 36 -107 120
c0 19 3 41 8 65l59 281h-122l-115 -540c-30 -143 -113 -170 -179 -170c-61 0 -118 43 -118 108c0 92 77 121 172 150l121 571c30 143 116 170 182 170c61 0 118 -43 118 -108c0 -16 -1 -29 -3 -41h-47c1 10 2 18 2 27c0 23 -18 34 -38 34c-22 0 -56 -15 -70 -82zM-153 -128
c0 -14 18 -33 40 -33c21 0 44 19 57 78l13 58c-63 -21 -110 -49 -110 -103z" />
    <glyph glyph-name="five" unicode="5" horiz-adv-x="517" 
d="M500 749c1 -11 2 -22 2 -33c0 -64 -30 -116 -115 -116c-53 0 -126 20 -167 25l-40 -181c46 22 88 31 125 31c121 0 176 -96 176 -207c0 -138 -86 -273 -290 -273c-78 0 -176 20 -176 144c0 105 70 142 130 142c39 0 64 -16 71 -51c-52 -6 -90 -36 -90 -96
c0 -58 45 -72 82 -72c83 0 127 97 127 184c0 96 -43 145 -110 145c-54 0 -111 -32 -149 -56l82 399c70 -8 125 -17 180 -17c51 0 101 8 162 32z" />
    <glyph glyph-name="florin" unicode="&#x192;" horiz-adv-x="271" 
d="M209 460l-114 -540c-30 -143 -113 -170 -179 -170c-61 0 -118 43 -118 108c0 92 77 121 172 150l96 452h-60l8 40h60l17 79c30 143 116 170 182 170c61 0 118 -43 118 -108c0 -16 -1 -29 -3 -41h-47c1 10 2 18 2 27c0 23 -18 34 -38 34c-22 0 -56 -15 -70 -82l-17 -79h74
l-8 -40h-75zM-147 -128c0 -14 18 -33 40 -33c21 0 44 19 57 78l13 58c-63 -21 -110 -49 -110 -103z" />
    <glyph glyph-name="four" unicode="4" horiz-adv-x="476" 
d="M252 275h-244c36 110 146 269 146 415c0 20 -2 40 -7 60c58 0 111 -32 111 -95c0 -127 -95 -211 -146 -306h156l81 381l148 20l-86 -401h64l-20 -74h-60l-58 -275h-144z" />
    <glyph glyph-name="g" unicode="g" horiz-adv-x="507" 
d="M336 500h144l-99 -464c61 22 98 56 126 143h42c-39 -132 -115 -170 -177 -187l-15 -72c-30 -143 -114 -170 -180 -170c-61 0 -112 32 -112 97c0 84 88 126 163 149l12 53c-29 -31 -68 -55 -120 -55c-68 0 -133 42 -133 161c0 135 83 350 257 350c57 0 81 -22 81 -51v-6z
M275 443c-85 0 -140 -180 -140 -274c0 -77 32 -78 50 -78c27 0 66 27 80 78l51 237c-1 11 -9 37 -41 37zM120 -139c0 -14 12 -33 34 -33c21 0 45 30 58 89l6 29c-51 -19 -98 -45 -98 -85z" />
    <glyph glyph-name="g.end" horiz-adv-x="480" 
d="M325 452l10 48h145l-122 -580c-30 -143 -116 -170 -182 -170c-61 0 -118 43 -118 108c0 93 78 122 173 150l9 42c-29 -31 -68 -56 -120 -56c-68 0 -133 42 -133 161c0 135 83 350 257 350c57 0 81 -22 81 -53zM275 443c-85 0 -140 -180 -140 -274c0 -77 32 -78 50 -78
c27 0 69 24 80 75l51 242c-2 13 -11 35 -41 35zM113 -128c0 -14 18 -33 40 -33c21 0 46 19 59 78l12 59c-63 -21 -111 -50 -111 -104z" />
    <glyph glyph-name="germandbls" unicode="&#xdf;" horiz-adv-x="450" 
d="M225 530l-159 -744l-151 -36l166 780c30 143 116 170 182 170c93 0 137 -61 137 -127c0 -57 -32 -118 -92 -146c71 -24 97 -82 97 -142c0 -204 -118 -285 -190 -285c-11 0 -22 1 -33 2l13 59c83 0 109 154 109 245c0 44 -18 73 -72 87l18 58c41 17 83 52 83 111
c0 39 -12 50 -38 50c-22 0 -56 -15 -70 -82z" />
    <glyph glyph-name="grave" unicode="`" horiz-adv-x="201" 
d="M83 561l-59 189h105l29 -189h-75z" />
    <glyph glyph-name="greater" unicode="&#x3e;" horiz-adv-x="344" 
d="M75 374l9 55l246 -150l-11 -54l-304 -124l14 57l240 96z" />
    <glyph glyph-name="guillemotleft" unicode="&#xab;" horiz-adv-x="589" 
d="M336 429l-10 -55l-241 -120l194 -96l-12 -57l-247 137l9 41zM546 429l-10 -55l-241 -120l194 -96l-12 -57l-247 137l9 41z" />
    <glyph glyph-name="guillemotright" unicode="&#xbb;" horiz-adv-x="586" 
d="M75 374l9 55l246 -150l-11 -54l-304 -124l14 57l240 96zM297 374l9 55l246 -150l-11 -54l-304 -124l14 57l240 96z" />
    <glyph glyph-name="guilsinglleft" unicode="&#x2039;" horiz-adv-x="359" 
d="M336 449l-10 -55l-241 -140l194 -116l-12 -57l-247 157l9 41z" />
    <glyph glyph-name="guilsinglright" unicode="&#x203a;" horiz-adv-x="344" 
d="M75 394l9 55l246 -170l-11 -54l-304 -144l14 57l240 116z" />
    <glyph glyph-name="h" unicode="h" 
d="M288 362c0 33 -12 51 -37 51c-39 0 -70 -61 -76 -88l-69 -325h-144l145 680l148 20l-54 -252c42 48 86 56 117 56c64 0 111 -33 111 -113c0 -81 -48 -202 -48 -258c0 -25 10 -42 40 -42c44 0 62 36 84 88h42c-56 -164 -133 -185 -186 -185c-87 0 -118 56 -118 113
c0 68 45 191 45 255z" />
    <glyph glyph-name="h.end" horiz-adv-x="453" 
d="M287 362c0 33 -12 51 -36 51c-33 0 -60 -35 -75 -80l-71 -333h-144l145 680l148 20l-54 -251c43 47 86 55 117 55c64 0 111 -33 111 -113c0 -81 -48 -202 -48 -258c0 -25 10 -42 40 -42c17 0 27 2 33 6c-9 -72 -57 -103 -110 -103c-77 0 -101 56 -101 113
c0 68 45 191 45 255z" />
    <glyph glyph-name="hyphen" unicode="-" horiz-adv-x="290" 
d="M237 301l-17 -79h-201l18 79h200z" />
    <glyph glyph-name="i" unicode="i" horiz-adv-x="267" 
d="M88 633c0 44 35 80 79 80s80 -36 80 -80s-36 -79 -80 -79s-79 35 -79 79zM68 500h144l-72 -340c-3 -13 -4 -23 -4 -32c0 -28 13 -37 41 -37c39 0 75 38 90 88h42c-57 -163 -156 -185 -210 -185c-60 0 -107 36 -107 120c0 19 3 41 8 65z" />
    <glyph glyph-name="i.end" horiz-adv-x="209" 
d="M88 633c0 44 35 80 79 80s80 -36 80 -80s-36 -79 -80 -79s-79 35 -79 79zM68 500h144l-72 -340c-3 -13 -4 -23 -4 -32c0 -28 13 -37 41 -37c18 0 26 3 32 6c-5 -71 -56 -103 -110 -103c-60 0 -107 36 -107 120c0 19 3 41 8 65z" />
    <glyph glyph-name="ij.end" horiz-adv-x="480" 
d="M231 8l104 492h145l-122 -580c-30 -143 -116 -170 -182 -170c-61 0 -118 43 -118 108c0 93 78 122 173 150zM68 500h144l-72 -340c-3 -13 -4 -23 -4 -32c0 -28 13 -37 41 -37c18 0 26 3 32 6c-5 -71 -56 -103 -110 -103c-60 0 -107 36 -107 120c0 19 3 41 8 65zM88 633
c0 44 35 80 79 80s80 -36 80 -80s-36 -79 -80 -79s-79 35 -79 79zM351 634c0 44 35 80 79 80s80 -36 80 -80s-36 -79 -80 -79s-79 35 -79 79zM113 -128c0 -14 18 -33 40 -33c21 0 46 19 59 78l12 59c-63 -21 -111 -50 -111 -104z" />
    <glyph glyph-name="i_x.end" horiz-adv-x="616" 
d="M68 500h144l-72 -340c-3 -13 -4 -23 -4 -32c0 -25 18 -36 44 -36c51 0 116 39 159 94l-57 314h141l39 -216c59 64 95 123 95 159c0 4 0 8 -1 12c-6 -1 -12 -2 -17 -2c-35 0 -47 25 -47 56c0 30 25 47 56 47c45 0 68 -40 68 -89c0 -65 -45 -134 -143 -238l9 -50
c11 -59 19 -88 63 -88c18 0 26 3 32 6c-5 -71 -56 -103 -110 -103c-64 0 -94 40 -116 137c-65 -73 -161 -137 -253 -137c-61 0 -106 37 -106 119c0 19 3 41 8 66zM88 633c0 44 35 80 79 80s80 -36 80 -80s-36 -79 -80 -79s-79 35 -79 79z" />
    <glyph glyph-name="iacute" unicode="&#xed;" horiz-adv-x="267" 
d="M68 500h144l-72 -340c-3 -13 -4 -23 -4 -32c0 -28 13 -37 41 -37c39 0 75 38 90 88h42c-57 -163 -156 -185 -210 -185c-60 0 -107 36 -107 120c0 19 3 41 8 65zM121 561l91 189h105l-121 -189h-75z" />
    <glyph glyph-name="iacute.end" horiz-adv-x="209" 
d="M68 500h144l-72 -340c-3 -13 -4 -23 -4 -32c0 -28 13 -37 41 -37c18 0 26 3 32 6c-5 -71 -56 -103 -110 -103c-60 0 -107 36 -107 120c0 19 3 41 8 65zM111 561l91 189h105l-121 -189h-75z" />
    <glyph glyph-name="icircumflex" unicode="&#xee;" horiz-adv-x="267" 
d="M68 500h144l-72 -340c-3 -13 -4 -23 -4 -32c0 -28 13 -37 41 -37c39 0 75 38 90 88h42c-57 -163 -156 -185 -210 -185c-60 0 -107 36 -107 120c0 19 3 41 8 65zM299 561h-32l-60 80l-157 -80h-44l212 189h21z" />
    <glyph glyph-name="idieresis" unicode="&#xef;" horiz-adv-x="267" 
d="M68 500h144l-72 -340c-3 -13 -4 -23 -4 -32c0 -28 13 -37 41 -37c39 0 75 38 90 88h42c-57 -163 -156 -185 -210 -185c-60 0 -107 36 -107 120c0 19 3 41 8 65zM17 634c0 33 27 61 61 61c33 0 61 -28 61 -61c0 -34 -28 -61 -61 -61c-34 0 -61 27 -61 61zM197 634
c0 33 27 61 61 61c33 0 61 -28 61 -61c0 -34 -28 -61 -61 -61c-34 0 -61 27 -61 61z" />
    <glyph glyph-name="igrave" unicode="&#xec;" horiz-adv-x="267" 
d="M68 500h144l-72 -340c-3 -13 -4 -23 -4 -32c0 -28 13 -37 41 -37c39 0 75 38 90 88h42c-57 -163 -156 -185 -210 -185c-60 0 -107 36 -107 120c0 19 3 41 8 65zM125 561l-59 189h105l29 -189h-75z" />
    <glyph glyph-name="j" unicode="j" horiz-adv-x="240" 
d="M69 500h144l-99 -464c61 22 98 56 126 143h42c-39 -132 -115 -170 -177 -187l-15 -72c-30 -143 -114 -170 -180 -170c-61 0 -112 32 -112 97c0 84 88 126 164 149zM80 634c0 44 35 80 79 80s80 -36 80 -80s-36 -79 -80 -79s-79 35 -79 79zM-147 -139c0 -14 12 -33 34 -33
c21 0 45 30 58 89l6 29c-51 -19 -98 -45 -98 -85z" />
    <glyph glyph-name="j.end" horiz-adv-x="213" 
d="M-35 8l103 492h145l-122 -580c-30 -143 -116 -170 -182 -170c-61 0 -118 43 -118 108c0 93 78 122 174 150zM84 634c0 44 35 80 79 80s80 -36 80 -80s-36 -79 -80 -79s-79 35 -79 79zM-154 -128c0 -14 18 -33 40 -33c21 0 46 19 59 78l13 59c-64 -21 -112 -50 -112 -104z
" />
    <glyph glyph-name="k" unicode="k" horiz-adv-x="518" 
d="M373 500h99l-200 -139c11 2 22 4 33 4c74 0 110 -53 110 -117c0 -12 -1 -25 -4 -38l-11 -50c-2 -10 -5 -21 -5 -32c0 -20 8 -37 39 -37c44 0 62 36 84 88h42c-57 -168 -138 -185 -184 -185c-82 0 -126 41 -126 114c0 16 2 33 6 52l8 39c3 13 4 26 4 37
c0 29 -10 48 -36 48c-23 0 -46 -14 -74 -37l-52 -247h-144l145 680l148 20l-75 -352z" />
    <glyph glyph-name="k.end" horiz-adv-x="472" 
d="M373 500h99l-200 -139c11 2 22 4 33 4c74 0 110 -53 110 -117c0 -12 -1 -25 -4 -38l-11 -50c-2 -10 -5 -21 -5 -32c0 -20 8 -37 39 -37c24 0 28 3 35 6c-5 -71 -67 -103 -93 -103c-82 0 -126 41 -126 114c0 16 2 33 6 52l8 39c3 13 4 26 4 37c0 29 -10 48 -36 48
c-23 0 -46 -14 -74 -37l-52 -247h-144l145 680l148 20l-75 -352z" />
    <glyph glyph-name="k.salt" horiz-adv-x="518" 
d="M411 210l-11 -50c-2 -10 -5 -21 -5 -32c0 -20 8 -37 39 -37c44 0 62 36 84 88h42c-57 -168 -138 -185 -184 -185c-82 0 -126 41 -126 114c0 16 2 33 6 52l8 39c3 13 4 26 4 37c0 29 -10 48 -36 48c-23 0 -46 -14 -74 -37l-52 -247h-144l145 680l148 20l-72 -337
c158 127 171 143 227 143c28 0 39 -35 39 -50c0 -32 -37 -60 -65 -60c-17 0 -28 14 -44 14c-29 0 -64 -24 -117 -65c26 12 54 20 82 20c74 0 110 -53 110 -117c0 -12 -1 -25 -4 -38z" />
    <glyph glyph-name="l" unicode="l" horiz-adv-x="267" 
d="M107 680l148 20l-115 -540c-3 -13 -4 -23 -4 -32c0 -28 13 -37 41 -37c39 0 75 38 90 88h42c-57 -163 -156 -185 -210 -185c-60 0 -107 36 -107 120c0 19 3 41 8 65z" />
    <glyph glyph-name="l.end" horiz-adv-x="207" 
d="M253 702l-115 -540c-2 -10 -4 -20 -4 -29c0 -23 10 -40 41 -40c18 0 26 3 32 6c-5 -71 -56 -105 -110 -105c-60 0 -107 37 -107 122c0 19 3 41 8 65l107 501z" />
    <glyph glyph-name="less" unicode="&#x3c;" horiz-adv-x="359" 
d="M336 429l-10 -55l-241 -120l194 -96l-12 -57l-247 137l9 41z" />
    <glyph glyph-name="logicalnot" unicode="&#xac;" horiz-adv-x="444" 
d="M399 301l-51 -250h-113l35 171h-251l18 79h362z" />
    <glyph glyph-name="lslash" unicode="&#x142;" horiz-adv-x="286" 
d="M0 179l23 107l-57 -37v58l71 43l70 330l148 20l-50 -237l118 71l-4 -61c-47 -26 -93 -55 -129 -78l-50 -235c-3 -13 -4 -23 -4 -32c0 -28 13 -37 41 -37c39 0 75 38 90 88h42c-57 -163 -156 -185 -210 -185c-60 0 -107 36 -107 121c0 19 3 40 8 64z" />
    <glyph glyph-name="m" unicode="m" horiz-adv-x="752" 
d="M535 362c0 33 -12 51 -36 51c-36 0 -63 -42 -78 -92l-68 -321h-144l73 345c2 8 3 16 3 25c0 22 -8 44 -30 44c-39 0 -66 -43 -81 -93l-68 -321h-144l106 500h144l-11 -52c42 48 87 57 122 57c53 0 92 -24 103 -86c48 74 102 85 139 85c64 0 111 -33 111 -113
c0 -81 -48 -202 -48 -258c0 -25 10 -42 40 -42c44 0 62 36 84 88h42c-56 -164 -133 -185 -186 -185c-87 0 -118 56 -118 113c0 68 45 191 45 255z" />
    <glyph glyph-name="m.end" horiz-adv-x="701" 
d="M535 362c0 33 -12 51 -36 51c-36 0 -63 -42 -78 -92l-68 -321h-144l73 345c2 8 3 16 3 25c0 22 -8 44 -30 44c-39 0 -66 -43 -81 -93l-68 -321h-144l106 500h144l-11 -52c42 48 87 57 122 57c53 0 92 -24 103 -86c48 74 102 85 139 85c64 0 111 -33 111 -113
c0 -81 -48 -202 -48 -258c0 -25 10 -42 40 -42c17 0 27 2 33 6c-9 -72 -57 -103 -110 -103c-77 0 -101 56 -101 113c0 68 45 191 45 255z" />
    <glyph glyph-name="minus" unicode="&#x2212;" horiz-adv-x="444" 
d="M387 301l-17 -79h-351l18 79h350z" />
    <glyph glyph-name="mu" unicode="&#xb5;" 
d="M68 500h144l-72 -340c-2 -8 -3 -16 -3 -25c0 -23 8 -44 30 -44c39 0 65 38 80 88l68 321h144l-72 -340c-3 -13 -4 -23 -4 -32c0 -28 13 -37 41 -37c39 0 66 38 81 88h42c-57 -163 -147 -179 -201 -179c-55 0 -92 31 -98 90c-48 -76 -102 -89 -143 -90l-27 -130l-151 -36z
" />
    <glyph glyph-name="multiply" unicode="&#xd7;" horiz-adv-x="515" 
d="M98 355l65 64l94 -95l96 96l64 -65l-95 -95l95 -95l-64 -65l-96 95l-94 -94l-65 64l95 95z" />
    <glyph glyph-name="n" unicode="n" 
d="M288 362c0 33 -12 51 -36 51c-36 0 -63 -42 -78 -92l-68 -321h-144l106 500h144l-11 -52c42 48 86 56 117 56c64 0 111 -33 111 -113c0 -81 -48 -202 -48 -258c0 -25 10 -42 40 -42c44 0 62 36 84 88h42c-56 -164 -133 -185 -186 -185c-87 0 -118 56 -118 113
c0 68 45 191 45 255z" />
    <glyph glyph-name="n.end" horiz-adv-x="454" 
d="M288 362c0 33 -12 51 -36 51c-36 0 -63 -42 -78 -92l-68 -321h-144l106 500h144l-11 -52c42 48 86 56 117 56c64 0 111 -33 111 -113c0 -81 -48 -202 -48 -258c0 -25 10 -42 40 -42c17 0 27 2 33 6c-9 -72 -57 -103 -110 -103c-77 0 -101 56 -101 113c0 68 45 191 45 255
z" />
    <glyph glyph-name="nacute" unicode="&#x144;" 
d="M288 362c0 33 -12 51 -36 51c-36 0 -63 -42 -78 -92l-68 -321h-144l106 500h144l-11 -52c42 48 86 56 117 56c64 0 111 -33 111 -113c0 -81 -48 -202 -48 -258c0 -25 10 -42 40 -42c44 0 62 36 84 88h42c-56 -164 -133 -185 -186 -185c-87 0 -118 56 -118 113
c0 68 45 191 45 255zM264 561l91 189h105l-121 -189h-75z" />
    <glyph glyph-name="nine" unicode="9" horiz-adv-x="489" 
d="M288 424c14 -17 21 -34 21 -50c0 -50 -60 -92 -134 -92c-100 0 -141 95 -141 175c0 166 114 293 259 293c155 0 193 -109 193 -235c0 -301 -128 -520 -339 -520c-76 0 -118 49 -118 95c0 39 15 74 86 74c-10 -10 -14 -22 -14 -34c0 -28 23 -56 53 -56c28 0 177 4 207 413
c1 19 2 36 2 52c0 124 -35 145 -88 145c-65 0 -127 -113 -127 -217c0 -42 10 -103 56 -103c37 0 66 13 84 60z" />
    <glyph glyph-name="ntilde" unicode="&#xf1;" 
d="M288 362c0 33 -12 51 -36 51c-36 0 -63 -42 -78 -92l-68 -321h-144l106 500h144l-11 -52c42 48 86 56 117 56c64 0 111 -33 111 -113c0 -81 -48 -202 -48 -258c0 -25 10 -42 40 -42c44 0 62 36 84 88h42c-56 -164 -133 -185 -186 -185c-87 0 -118 56 -118 113
c0 68 45 191 45 255zM483 670l6 -1c-11 -47 -85 -100 -161 -100c-66 0 -113 37 -168 37c-26 0 -48 -9 -66 -26l-6 2c32 64 91 98 167 98c73 0 107 -33 165 -33c25 0 49 8 63 23z" />
    <glyph glyph-name="numbersign" unicode="#" horiz-adv-x="659" 
d="M307 -27l25 138h-118l-30 -138h-57l25 138h-107l21 102h104l21 113h-102l21 102h99l52 290h88l-65 -290h105l52 290h88l-65 -290h104l-20 -102h-106l-25 -113h107l-20 -102h-110l-30 -138h-57zM262 326l-25 -113h113l21 113h-109z" />
    <glyph glyph-name="o" unicode="o" horiz-adv-x="439" 
d="M260 509c86 0 128 -55 128 -160c4 -2 8 -2 11 -2c46 0 111 30 154 60l9 -27c-38 -41 -104 -71 -177 -83c-16 -185 -116 -301 -239 -301c-93 0 -160 44 -160 158c0 115 68 355 274 355zM186 86c49 0 100 90 116 208c-21 5 -27 22 -27 42c0 28 13 46 31 54
c-2 42 -12 58 -38 58c-71 0 -133 -183 -133 -281c0 -66 13 -81 51 -81z" />
    <glyph glyph-name="o.end" horiz-adv-x="487" 
d="M257 509c79 0 121 -46 127 -135c35 7 60 50 71 69h32c-20 -43 -50 -105 -103 -134c-12 -192 -112 -313 -238 -313c-93 0 -160 44 -160 158c0 115 65 355 271 355zM186 86c49 0 98 90 113 208c-16 6 -24 20 -24 45c0 27 11 44 28 52c-2 42 -13 57 -38 57
c-71 0 -130 -183 -130 -281c0 -66 13 -81 51 -81z" />
    <glyph glyph-name="o_s.end" horiz-adv-x="718" 
d="M548 511l148 20c12 -259 22 -298 22 -364c0 -130 -94 -173 -176 -173c-119 0 -139 72 -139 133c0 59 37 95 72 95c34 0 52 -13 52 -42c0 -24 -22 -45 -48 -45c-10 0 -22 3 -27 13c0 -47 20 -75 58 -75c44 0 63 23 63 93c0 56 -11 87 -22 272c-49 -74 -106 -119 -168 -138
c-14 -187 -113 -304 -237 -304c-93 0 -160 44 -160 158c0 115 65 355 271 355c85 0 127 -54 128 -157c51 3 106 61 163 159zM186 86c49 0 98 90 113 207c-16 6 -24 20 -24 45c0 27 11 44 28 52c-2 42 -13 58 -38 58c-71 0 -130 -183 -130 -281c0 -66 13 -81 51 -81z" />
    <glyph glyph-name="oacute" unicode="&#xf3;" horiz-adv-x="433" 
d="M254 509c86 0 128 -55 128 -160c4 -2 8 -2 11 -2c46 0 111 30 154 60l9 -27c-38 -41 -104 -71 -177 -83c-16 -185 -116 -301 -239 -301c-93 0 -160 44 -160 158c0 115 68 355 274 355zM180 86c49 0 100 90 116 208c-21 5 -27 22 -27 42c0 28 13 46 31 54
c-2 42 -12 58 -38 58c-71 0 -133 -183 -133 -281c0 -66 13 -81 51 -81zM219 561l91 189h105l-121 -189h-75z" />
    <glyph glyph-name="oacute.end" horiz-adv-x="487" 
d="M258 509c79 0 121 -46 127 -135c35 7 60 50 71 69h32c-20 -43 -50 -105 -103 -134c-12 -192 -112 -313 -238 -313c-93 0 -160 44 -160 158c0 115 65 355 271 355zM187 86c49 0 98 90 113 208c-16 6 -24 20 -24 45c0 27 11 44 28 52c-2 42 -13 57 -38 57
c-71 0 -130 -183 -130 -281c0 -66 13 -81 51 -81zM219 561l91 189h105l-121 -189h-75z" />
    <glyph glyph-name="oacute_s.end" horiz-adv-x="719" 
d="M549 511l148 20c12 -259 22 -298 22 -364c0 -130 -94 -173 -176 -173c-119 0 -139 72 -139 133c0 59 37 95 72 95c34 0 52 -13 52 -42c0 -24 -22 -45 -48 -45c-10 0 -22 3 -27 13c0 -47 20 -75 58 -75c44 0 63 23 63 93c0 56 -11 87 -22 272c-49 -74 -106 -119 -168 -138
c-14 -187 -113 -304 -237 -304c-93 0 -160 44 -160 158c0 115 65 355 271 355c85 0 127 -54 128 -157c51 3 106 61 163 159zM187 86c49 0 98 90 113 207c-16 6 -24 20 -24 45c0 27 11 44 28 52c-2 42 -13 58 -38 58c-71 0 -130 -183 -130 -281c0 -66 13 -81 51 -81zM219 561
l91 189h105l-121 -189h-75z" />
    <glyph glyph-name="ocircumflex" unicode="&#xf4;" horiz-adv-x="433" 
d="M254 509c86 0 128 -55 128 -160c4 -2 8 -2 11 -2c46 0 111 30 154 60l9 -27c-38 -41 -104 -71 -177 -83c-16 -185 -116 -301 -239 -301c-93 0 -160 44 -160 158c0 115 68 355 274 355zM180 86c49 0 100 90 116 208c-21 5 -27 22 -27 42c0 28 13 46 31 54
c-2 42 -12 58 -38 58c-71 0 -133 -183 -133 -281c0 -66 13 -81 51 -81zM388 561h-32l-60 80l-157 -80h-44l212 189h21z" />
    <glyph glyph-name="odieresis" unicode="&#xf6;" horiz-adv-x="433" 
d="M254 509c86 0 128 -55 128 -160c4 -2 8 -2 11 -2c46 0 111 30 154 60l9 -27c-38 -41 -104 -71 -177 -83c-16 -185 -116 -301 -239 -301c-93 0 -160 44 -160 158c0 115 68 355 274 355zM180 86c49 0 100 90 116 208c-21 5 -27 22 -27 42c0 28 13 46 31 54
c-2 42 -12 58 -38 58c-71 0 -133 -183 -133 -281c0 -66 13 -81 51 -81zM105 634c0 33 27 61 61 61c33 0 61 -28 61 -61c0 -34 -28 -61 -61 -61c-34 0 -61 27 -61 61zM285 634c0 33 27 61 61 61c33 0 61 -28 61 -61c0 -34 -28 -61 -61 -61c-34 0 -61 27 -61 61z" />
    <glyph glyph-name="oe" unicode="&#x153;" horiz-adv-x="663" 
d="M256 510c67 0 99 -37 112 -85c37 50 88 84 160 84c82 0 128 -34 128 -104c0 -122 -131 -192 -226 -204c-2 -16 -3 -31 -3 -43c0 -66 43 -86 82 -86c49 0 133 58 168 132h45c-57 -103 -153 -204 -282 -204c-68 0 -114 36 -135 87c-44 -62 -103 -93 -159 -93
c-107 0 -153 45 -153 164c0 246 125 352 263 352zM193 91c61 0 95 96 107 193c-29 0 -42 21 -42 45c0 29 17 60 44 70c-3 33 -14 52 -42 52c-94 0 -134 -204 -134 -284c0 -60 28 -76 67 -76zM596 400c0 21 -5 56 -35 56c-56 0 -102 -113 -123 -207c92 1 157 80 158 151z" />
    <glyph glyph-name="ogonek" unicode="&#x2db;" horiz-adv-x="291" 
d="M122 5h70c-29 -11 -64 -49 -64 -89c0 -22 11 -50 39 -50c24 0 48 21 68 34c-1 -12 -2 -19 -2 -31c-25 -23 -57 -62 -109 -62c-55 0 -79 43 -79 78c0 37 27 81 77 120z" />
    <glyph glyph-name="ograve" unicode="&#xf2;" horiz-adv-x="433" 
d="M254 509c86 0 128 -55 128 -160c4 -2 8 -2 11 -2c46 0 111 30 154 60l9 -27c-38 -41 -104 -71 -177 -83c-16 -185 -116 -301 -239 -301c-93 0 -160 44 -160 158c0 115 68 355 274 355zM180 86c49 0 100 90 116 208c-21 5 -27 22 -27 42c0 28 13 46 31 54
c-2 42 -12 58 -38 58c-71 0 -133 -183 -133 -281c0 -66 13 -81 51 -81zM238 561l-59 189h105l29 -189h-75z" />
    <glyph glyph-name="one" unicode="1" horiz-adv-x="317" 
d="M324 748l-159 -748h-144l132 624h-95l12 46c55 0 133 6 254 78z" />
    <glyph glyph-name="onehalf" unicode="&#xbd;" horiz-adv-x="675" 
d="M470 750l-264 -915h-72l264 915h72zM246 629l-92 -404h-84l77 337h-55l7 25c32 0 77 3 147 42zM438 76c37 0 74 -10 113 -10c38 0 48 14 75 38c0 -69 -1 -105 -69 -105c-63 0 -84 20 -143 20c-14 0 -35 -12 -46 -16c-1 6 -2 12 -2 18c0 118 191 171 191 315
c0 26 -18 44 -35 44c-39 0 -47 -16 -47 -43c0 -13 6 -33 22 -37c-15 -13 -31 -19 -45 -19c-23 0 -41 17 -41 49c0 37 32 79 120 79c79 0 110 -34 110 -86c0 -121 -159 -174 -207 -247h4z" />
    <glyph glyph-name="onequarter" unicode="&#xbc;" horiz-adv-x="689" 
d="M475 750l-264 -915h-72l264 915h72zM515 150h-141c20 59 84 144 84 223c0 11 -1 22 -4 33c34 0 65 -17 65 -51c0 -69 -56 -115 -85 -166h90l47 206l86 11l-50 -217h38l-12 -39h-35l-34 -149h-83zM246 629l-92 -404h-84l77 337h-55l7 25c32 0 77 3 147 42z" />
    <glyph glyph-name="onesuperior" unicode="&#xb9;" horiz-adv-x="217" 
d="M198 749l-92 -404h-84l77 337h-55l7 25c32 0 77 3 147 42z" />
    <glyph glyph-name="ordfeminine" unicode="&#xaa;" horiz-adv-x="345" 
d="M320 740l-42 -184c-1 -6 -3 -12 -3 -18c0 -11 5 -20 21 -20c4 0 10 0 15 2c-16 -47 -40 -50 -60 -50c-34 0 -52 16 -58 40c-18 -22 -44 -43 -79 -43c-55 0 -71 36 -71 68c0 93 36 204 152 204c13 0 28 -6 39 -14l3 15h83zM191 538l37 161c-9 8 -20 10 -29 10
c-43 0 -78 -86 -78 -159c0 -32 19 -38 34 -38c13 0 25 11 36 26z" />
    <glyph glyph-name="ordmasculine" unicode="&#xba;" horiz-adv-x="329" 
d="M262 671c15 9 20 18 33 32l6 -11c-6 -19 -16 -44 -39 -57c-6 -112 -75 -169 -129 -169c-62 0 -91 25 -91 89c0 132 73 190 152 190c28 0 55 -10 55 -24c0 -16 -14 -22 -26 -26c-5 12 -13 19 -26 19c-57 0 -78 -111 -78 -154c0 -32 17 -41 41 -41c36 0 53 59 59 108
c-11 3 -15 11 -15 22c0 19 20 41 39 41c14 0 19 -4 19 -19z" />
    <glyph glyph-name="oslash" unicode="&#xf8;" horiz-adv-x="428" 
d="M170 -103h-52l21 99c-89 2 -153 46 -153 158c0 113 63 347 262 354l20 97h52l-21 -102c56 -15 84 -65 86 -146c51 2 116 37 148 60h32c-29 -42 -104 -91 -182 -111c-11 -166 -88 -278 -191 -304zM186 86c49 0 99 92 114 211c-18 5 -28 19 -28 46c0 28 13 46 31 53
c-3 38 -14 52 -38 52c-71 0 -130 -183 -130 -281c0 -66 13 -81 51 -81z" />
    <glyph glyph-name="otilde" unicode="&#xf5;" horiz-adv-x="433" 
d="M254 509c86 0 128 -55 128 -160c4 -2 8 -2 11 -2c46 0 111 30 154 60l9 -27c-38 -41 -104 -71 -177 -83c-16 -185 -116 -301 -239 -301c-93 0 -160 44 -160 158c0 115 68 355 274 355zM180 86c49 0 100 90 116 208c-21 5 -27 22 -27 42c0 28 13 46 31 54
c-2 42 -12 58 -38 58c-71 0 -133 -183 -133 -281c0 -66 13 -81 51 -81zM435 670l6 -1c-11 -47 -85 -100 -161 -100c-66 0 -113 37 -168 37c-26 0 -48 -9 -66 -26l-6 2c32 64 91 98 167 98c73 0 107 -33 165 -33c25 0 49 8 63 23z" />
    <glyph glyph-name="p" unicode="p" horiz-adv-x="468" 
d="M76 537h144l-16 -75c29 25 67 43 117 43c68 0 122 -39 122 -158c0 -135 -52 -353 -246 -353c-50 0 -74 17 -85 36l-52 -244l-151 -36zM166 81c105 0 140 175 140 269c0 77 -32 83 -50 83c-22 0 -50 -17 -69 -49l-59 -280c4 -11 15 -23 38 -23z" />
    <glyph glyph-name="p.salt" horiz-adv-x="482" 
d="M534 282l-13 -58c-32 -2 -69 -8 -106 -17c-34 -118 -106 -213 -183 -213c-57 0 -81 28 -81 75c0 71 69 120 157 154c6 29 10 60 10 88c0 56 -16 102 -64 102c-39 0 -65 -42 -80 -92l-114 -535l-151 -36l167 787h144l-19 -89c42 48 86 56 121 56c74 0 112 -73 112 -161
c0 -28 -3 -56 -7 -83c37 9 74 16 107 22zM212 86c0 -7 6 -14 15 -14c15 0 38 16 59 73l6 17c-47 -24 -80 -51 -80 -76z" />
    <glyph glyph-name="paragraph" unicode="&#xb6;" horiz-adv-x="542" 
d="M239 -81h-94l77 369c-101 20 -150 109 -150 203c0 124 85 258 250 258c100 0 185 -44 185 -165c0 -22 -3 -46 -8 -72l-127 -593h-94l81 380c-15 -5 -29 -8 -43 -11zM327 339h6c12 0 24 1 35 4l48 227c4 19 6 35 6 49c0 31 -9 50 -23 63z" />
    <glyph glyph-name="parenleft" unicode="(" horiz-adv-x="437" 
d="M464 750l13 -40c-149 -74 -266 -377 -266 -637c0 -114 22 -219 73 -294l-33 -29c-78 86 -113 214 -113 350c0 261 128 555 326 650z" />
    <glyph glyph-name="parenright" unicode=")" horiz-adv-x="413" 
d="M-16 -250l-13 40c149 74 266 376 266 637c0 113 -22 219 -73 294l33 29c78 -86 113 -214 113 -350c0 -262 -128 -555 -326 -650z" />
    <glyph glyph-name="percent" unicode="%" horiz-adv-x="644" 
d="M579 750l-386 -750h-72l386 750h72zM269 702c58 0 82 -40 82 -113c0 -85 -52 -215 -148 -215c-78 0 -96 42 -96 114c0 118 62 214 162 214zM181 519c-1 -12 -2 -27 -2 -43c0 -32 5 -65 27 -65c53 0 85 92 85 193c0 35 -4 63 -25 63c-28 0 -77 -51 -85 -148zM517 328
c58 0 92 -40 92 -113c0 -85 -42 -215 -158 -215c-78 0 -96 42 -96 114c0 118 62 214 162 214zM424 145c-1 -12 -2 -27 -2 -43c0 -32 5 -65 27 -65c53 0 82 85 82 186c0 35 -7 68 -28 68c-28 0 -71 -49 -79 -146z" />
    <glyph glyph-name="period" unicode="." horiz-adv-x="263" 
d="M31 75c0 44 35 80 79 80s80 -36 80 -80s-36 -79 -80 -79s-79 35 -79 79z" />
    <glyph glyph-name="periodcentered" unicode="&#xb7;" horiz-adv-x="434" 
d="M120 267c0 53 43 97 96 97s97 -44 97 -97s-44 -96 -97 -96s-96 43 -96 96z" />
    <glyph glyph-name="perthousand" unicode="&#x2030;" horiz-adv-x="911" 
d="M562 750l-386 -750h-72l386 750h72zM252 702c58 0 82 -40 82 -113c0 -85 -52 -215 -148 -215c-78 0 -96 42 -96 114c0 118 62 214 162 214zM164 519c-1 -12 -2 -27 -2 -43c0 -32 5 -65 27 -65c53 0 85 92 85 193c0 35 -4 63 -25 63c-28 0 -77 -51 -85 -148zM500 328
c58 0 92 -40 92 -113c0 -85 -42 -215 -158 -215c-78 0 -96 42 -96 114c0 118 62 214 162 214zM407 145c-1 -12 -2 -27 -2 -43c0 -32 5 -65 27 -65c53 0 82 85 82 186c0 35 -7 68 -28 68c-28 0 -71 -49 -79 -146zM788 328c58 0 92 -40 92 -113c0 -85 -42 -215 -158 -215
c-78 0 -96 42 -96 114c0 118 62 214 162 214zM695 145c-1 -12 -2 -27 -2 -43c0 -32 5 -65 27 -65c53 0 82 85 82 186c0 35 -7 68 -28 68c-28 0 -71 -49 -79 -146z" />
    <glyph glyph-name="plus" unicode="+" horiz-adv-x="515" 
d="M345 439l-27 -122h127l-23 -112h-128l-27 -123h-113l27 123h-128l24 112h128l27 122h113z" />
    <glyph glyph-name="plusminus" unicode="&#xb1;" horiz-adv-x="533" 
d="M375 543l-27 -122h127l-23 -112h-128l-27 -123h-113l27 123h-128l24 112h128l27 122h113zM416 147l-17 -79h-368l18 79h367z" />
    <glyph glyph-name="q" unicode="q" horiz-adv-x="486" 
d="M335 500h144l-152 -714l-151 -36l63 299c-29 -31 -68 -55 -119 -55c-68 0 -133 42 -133 161c0 135 83 350 257 350c57 0 81 -22 81 -53zM275 443c-85 0 -140 -180 -140 -274c0 -77 32 -78 50 -78c26 0 62 24 78 71l53 247c-2 12 -12 34 -41 34z" />
    <glyph glyph-name="question" unicode="?" horiz-adv-x="441" 
d="M425 579c0 -193 -191 -198 -240 -347h-66c0 141 182 193 182 345c0 49 -26 69 -55 69c-38 0 -80 -33 -80 -83c0 -23 10 -58 38 -66c-17 -28 -45 -42 -73 -42c-39 0 -76 28 -76 84c0 68 59 161 210 161c137 0 160 -54 160 -121zM207 80c0 -44 -35 -80 -79 -80
s-80 36 -80 80s36 79 80 79s79 -35 79 -79z" />
    <glyph glyph-name="questiondown" unicode="&#xbf;" horiz-adv-x="439" 
d="M12 -128c0 186 177 197 241 349h66c0 -141 -182 -193 -182 -345c0 -49 26 -69 55 -69c38 0 80 33 80 83c0 23 -10 58 -38 66c17 28 45 42 73 42c39 0 76 -28 76 -84c0 -68 -59 -161 -210 -161c-127 0 -161 57 -161 119zM231 372c0 45 35 81 79 81s80 -36 80 -81
c0 -44 -36 -79 -80 -79s-79 35 -79 79z" />
    <glyph glyph-name="quotedbl" unicode="&#x22;" horiz-adv-x="420" 
d="M62 561l61 189h105l-91 -189h-75zM219 561l61 189h105l-91 -189h-75z" />
    <glyph glyph-name="quotedblbase" unicode="&#x201e;" horiz-adv-x="509" 
d="M76 76c0 38 32 70 73 70s64 -28 64 -66c0 -52 -45 -119 -121 -168c-7 4 -9 9 -9 14l49 70c0 6 -4 12 -12 17c-25 15 -44 35 -44 63zM296 76c0 38 32 70 73 70s64 -28 64 -66c0 -52 -45 -119 -121 -168c-7 4 -9 9 -9 14l49 70c0 6 -4 12 -12 17c-25 15 -44 35 -44 63z" />
    <glyph glyph-name="quotedblleft" unicode="&#x201c;" horiz-adv-x="509" 
d="M433 678c0 -28 -19 -48 -44 -63c-8 -5 -12 -11 -12 -17l49 -70c0 -5 -2 -10 -9 -14c-76 49 -121 116 -121 168c0 38 23 66 64 66s73 -32 73 -70zM213 678c0 -28 -19 -48 -44 -63c-8 -5 -12 -11 -12 -17l49 -70c0 -5 -2 -10 -9 -14c-76 49 -121 116 -121 168
c0 38 23 66 64 66s73 -32 73 -70z" />
    <glyph glyph-name="quotedblright" unicode="&#x201d;" horiz-adv-x="509" 
d="M76 678c0 38 32 70 73 70s64 -28 64 -66c0 -52 -45 -119 -121 -168c-7 4 -9 9 -9 14l49 70c0 6 -4 12 -12 17c-25 15 -44 35 -44 63zM296 678c0 38 32 70 73 70s64 -28 64 -66c0 -52 -45 -119 -121 -168c-7 4 -9 9 -9 14l49 70c0 6 -4 12 -12 17c-25 15 -44 35 -44 63z
" />
    <glyph glyph-name="quoteleft" unicode="&#x2018;" horiz-adv-x="305" 
d="M221 678c0 -28 -19 -48 -44 -63c-8 -5 -12 -11 -12 -17l49 -70c0 -5 -2 -10 -9 -14c-76 49 -121 116 -121 168c0 38 23 66 64 66s73 -32 73 -70z" />
    <glyph glyph-name="quoteright" unicode="&#x2019;" horiz-adv-x="305" 
d="M84 678c0 38 32 70 73 70s64 -28 64 -66c0 -52 -45 -119 -121 -168c-7 4 -9 9 -9 14l49 70c0 6 -4 12 -12 17c-25 15 -44 35 -44 63z" />
    <glyph glyph-name="quotesinglbase" unicode="&#x201a;" horiz-adv-x="283" 
d="M76 76c0 38 32 70 73 70s64 -28 64 -66c0 -52 -45 -119 -121 -168c-7 4 -9 9 -9 14l49 70c0 6 -4 12 -12 17c-25 15 -44 35 -44 63z" />
    <glyph glyph-name="quotesingle" unicode="'" horiz-adv-x="268" 
d="M102 561l61 189h105l-91 -189h-75z" />
    <glyph glyph-name="r" unicode="r" horiz-adv-x="376" 
d="M68 500h144l-13 -62c35 30 73 62 121 62c45 0 69 -37 69 -75c0 -35 -23 -73 -72 -73c-56 0 -28 66 -58 66s-48 -15 -73 -38l-80 -380h-144z" />
    <glyph glyph-name="registered" unicode="&#xae;" horiz-adv-x="553" 
d="M276 79c-132 0 -242 113 -242 255c0 143 110 256 242 256s242 -112 242 -255s-110 -256 -242 -256zM80 334c0 -120 90 -213 198 -213c107 0 197 93 197 213s-90 213 -197 213c-108 0 -198 -93 -198 -213zM176 192l1 291h94c70 0 120 -30 120 -84c0 -37 -24 -67 -59 -77
l65 -125l-47 -7l-62 125h-66v-123h-46zM222 442v-89h52c29 0 71 7 71 44c0 35 -40 45 -73 45h-50z" />
    <glyph glyph-name="ring" unicode="&#x2da;" horiz-adv-x="156" 
d="M85 713c49 0 72 -34 72 -77c0 -44 -25 -84 -87 -84c-43 0 -70 32 -70 70c0 36 25 91 85 91zM120 633c0 19 -1 47 -33 47c-35 0 -47 -31 -47 -56c0 -22 10 -37 34 -37c31 0 46 18 46 46z" />
    <glyph glyph-name="s" unicode="s" horiz-adv-x="382" 
d="M382 179h42c-52 -60 -107 -98 -153 -125c-42 -44 -106 -60 -157 -60c-102 0 -146 67 -146 128c0 46 26 80 53 93c56 99 92 198 123 296l148 20c12 -259 22 -298 22 -364c0 -14 -1 -26 -4 -38c27 16 53 34 72 50zM92 179c0 -24 -18 -49 -44 -49c-10 0 -22 3 -27 13
c0 -47 17 -70 61 -70s87 23 87 93c0 52 -9 83 -19 237c-20 -65 -48 -125 -81 -189c13 -6 23 -18 23 -35z" />
    <glyph glyph-name="s.end" horiz-adv-x="316" 
d="M144 511l148 20c12 -259 22 -298 22 -364c0 -130 -118 -173 -200 -173c-102 0 -146 67 -146 128c0 46 26 80 53 93c56 99 92 198 123 296zM92 179c0 -24 -18 -49 -44 -49c-10 0 -22 3 -27 13c0 -47 17 -70 61 -70s87 23 87 93c0 52 -9 83 -19 237
c-20 -65 -48 -125 -81 -189c13 -6 23 -18 23 -35z" />
    <glyph glyph-name="sacute" unicode="&#x15b;" horiz-adv-x="382" 
d="M382 179h42c-52 -60 -107 -98 -153 -125c-42 -44 -106 -60 -157 -60c-102 0 -146 67 -146 128c0 46 26 80 53 93c56 99 92 198 123 296l148 20c12 -259 22 -298 22 -364c0 -14 -1 -26 -4 -38c27 16 53 34 72 50zM92 179c0 -24 -18 -49 -44 -49c-10 0 -22 3 -27 13
c0 -47 17 -70 61 -70s87 23 87 93c0 52 -9 83 -19 237c-20 -65 -48 -125 -81 -189c13 -6 23 -18 23 -35zM213 561l91 189h105l-121 -189h-75z" />
    <glyph glyph-name="scaron" unicode="&#x161;" horiz-adv-x="369" 
d="M382 179h42c-52 -60 -107 -98 -153 -125c-42 -44 -106 -60 -157 -60c-102 0 -146 67 -146 128c0 46 26 80 53 93c56 99 92 198 123 296l148 20c12 -259 22 -298 22 -364c0 -14 -1 -26 -4 -38c27 16 53 34 72 50zM92 179c0 -24 -18 -49 -44 -49c-10 0 -22 3 -27 13
c0 -47 17 -70 61 -70s87 23 87 93c0 52 -9 83 -19 237c-20 -65 -48 -125 -81 -189c13 -6 23 -18 23 -35zM138 750h32l60 -80l157 80h44l-212 -189h-21z" />
    <glyph glyph-name="section" unicode="&#xa7;" horiz-adv-x="542" 
d="M525 655c0 -46 -25 -81 -66 -81c-12 0 -25 3 -37 16c22 13 36 43 36 69c0 28 -17 54 -56 54c-54 0 -94 -51 -94 -107c0 -124 198 -138 198 -303c0 -76 -42 -152 -116 -167c0 -118 -81 -190 -217 -190c-59 0 -165 14 -165 131c0 73 42 123 96 123c40 0 62 -28 79 -50
c-59 -5 -81 -26 -81 -76c0 -52 23 -78 82 -78c49 0 80 29 80 97c0 163 -180 176 -180 305c0 64 44 114 104 137c-3 13 -5 27 -5 42c0 119 111 173 212 173c37 0 130 -7 130 -95zM403 246c0 116 -135 150 -194 240c-11 -6 -19 -16 -19 -35c0 -83 162 -129 194 -268
c12 15 19 38 19 63z" />
    <glyph glyph-name="semicolon" unicode=";" horiz-adv-x="276" 
d="M94 331c0 44 35 80 79 80s80 -36 80 -80s-36 -79 -80 -79s-79 35 -79 79zM46 91c0 44 35 80 79 80s68 -32 68 -76c0 -60 -48 -148 -130 -205c-7 5 -9 11 -9 17c0 36 52 54 52 91c0 7 -4 14 -13 20c-26 17 -47 40 -47 73z" />
    <glyph glyph-name="seven" unicode="7" horiz-adv-x="464" 
d="M512 750c-52 -77 -273 -420 -301 -485c-22 -50 -32 -93 -32 -129c0 -40 13 -67 49 -97c-12 -32 -50 -39 -92 -39c-60 0 -103 23 -103 125c0 163 147 338 315 532c-29 4 -58 6 -85 6c-87 0 -162 -21 -207 -71c-5 21 -8 41 -8 58c0 65 38 100 136 100h328z" />
    <glyph glyph-name="six" unicode="6" horiz-adv-x="497" 
d="M225 305c-14 20 -20 40 -20 58c0 58 65 100 141 100c95 0 135 -87 135 -165c0 -174 -127 -303 -270 -303c-160 0 -195 92 -195 198c0 12 0 24 1 37c20 301 135 520 357 520c75 0 115 -43 115 -83c0 -33 -28 -64 -89 -67c11 10 16 23 16 36c0 27 -21 54 -50 54
c-23 0 -169 -16 -212 -432c-3 -30 -5 -55 -5 -76c0 -99 33 -109 80 -109c64 0 137 104 137 211c0 41 -10 97 -53 97c-37 0 -65 -29 -88 -76z" />
    <glyph glyph-name="slash" unicode="/" horiz-adv-x="311" 
d="M295 750l-212 -1000h-72l212 1000h72z" />
    <glyph glyph-name="space" unicode=" " horiz-adv-x="217" 
 />
    <glyph glyph-name="sterling" unicode="&#xa3;" horiz-adv-x="465" 
d="M420 423l6 -1c-11 -47 -85 -100 -161 -100h-16l-56 -231c70 9 126 -13 234 67c-10 -96 -50 -158 -104 -158h-295l86 358c-5 0 -11 1 -17 1c-26 0 -48 -9 -66 -26l-6 2c22 45 59 75 105 89l72 295l150 31l-80 -331c28 -9 53 -19 85 -19c25 0 49 8 63 23z" />
    <glyph glyph-name="t" unicode="t" horiz-adv-x="267" 
d="M98 638l148 20l-34 -158h60l-8 -40h-60l-64 -300c-3 -13 -4 -23 -4 -32c0 -28 13 -37 41 -37c39 0 75 38 90 88h42c-57 -163 -156 -185 -210 -185c-60 0 -107 36 -107 120c0 19 3 41 8 65l60 281h-33l8 40h33z" />
    <glyph glyph-name="t.end" horiz-adv-x="276" 
d="M208 460l-64 -300c-3 -12 -5 -24 -5 -35c0 -21 8 -36 35 -36c7 0 18 0 26 3c-28 -86 -72 -98 -106 -98c-70 0 -100 49 -100 113c0 17 2 35 6 53l64 300h-33l8 40h33l30 138l148 20s-15 -68 -34 -158h60l-8 -40h-60z" />
    <glyph glyph-name="thorn" unicode="&#xfe;" horiz-adv-x="473" 
d="M-92 -250l156 735c8 36 12 67 12 93c0 46 -13 82 -43 122h45c65 -36 126 -79 126 -192c0 -15 -1 -31 -4 -49c29 26 69 46 121 46c68 0 122 -39 122 -158c0 -135 -52 -353 -246 -353c-52 0 -76 18 -86 37l-52 -245zM166 81c105 0 140 175 140 269c0 77 -32 83 -50 83
c-22 0 -52 -18 -70 -52l-59 -275c4 -12 15 -25 39 -25z" />
    <glyph glyph-name="three" unicode="3" horiz-adv-x="514" 
d="M205 257c-78 -6 -88 -68 -88 -108c0 -76 39 -89 76 -89c86 0 139 82 139 169c0 76 -40 156 -133 189c113 31 171 125 171 195c0 46 -25 82 -76 82c-48 0 -79 -31 -79 -78c0 -27 10 -63 38 -71c-25 -23 -52 -34 -76 -34c-40 0 -72 31 -72 85c0 91 91 152 207 152
c123 0 186 -68 186 -146c0 -66 -45 -140 -137 -186c88 -29 126 -94 126 -165c0 -121 -111 -257 -282 -257c-58 0 -199 16 -199 170c0 83 41 143 121 143c37 0 70 -13 78 -51z" />
    <glyph glyph-name="threequarters" unicode="&#xbe;" horiz-adv-x="819" 
d="M591 750l-264 -915h-72l264 915h72zM634 150h-141c20 59 84 144 84 223c0 11 -1 22 -4 33c34 0 65 -17 65 -51c0 -69 -56 -115 -85 -166h90l47 206l86 11l-50 -217h38l-12 -39h-35l-34 -149h-83zM177 364c-47 -4 -51 -37 -51 -64c0 -36 21 -44 51 -44c42 0 71 46 71 94
c0 41 -22 84 -75 101c67 16 99 69 99 107c0 24 -13 42 -37 42c-38 0 -52 -16 -52 -43c0 -13 6 -33 22 -37c-15 -13 -31 -19 -45 -19c-23 0 -41 17 -41 49c0 37 38 79 125 79c67 0 102 -37 102 -79c0 -36 -25 -75 -79 -100c51 -15 72 -49 72 -88c0 -65 -63 -140 -149 -140
c-47 0 -129 9 -129 87c0 51 24 82 69 82c26 0 42 -8 47 -27z" />
    <glyph glyph-name="threesuperior" unicode="&#xb3;" horiz-adv-x="316" 
d="M129 484c-47 -4 -51 -37 -51 -64c0 -36 21 -44 51 -44c42 0 71 46 71 94c0 41 -22 84 -75 101c67 16 99 69 99 107c0 24 -13 42 -37 42c-38 0 -52 -16 -52 -43c0 -13 6 -33 22 -37c-15 -13 -31 -19 -45 -19c-23 0 -41 17 -41 49c0 37 38 79 125 79c67 0 102 -37 102 -79
c0 -36 -25 -75 -79 -100c51 -15 72 -49 72 -88c0 -65 -63 -140 -149 -140c-47 0 -129 9 -129 87c0 51 24 82 69 82c26 0 42 -8 47 -27z" />
    <glyph glyph-name="tilde" unicode="&#x2dc;" horiz-adv-x="403" 
d="M433 670l6 -1c-11 -47 -85 -100 -161 -100c-66 0 -113 37 -168 37c-26 0 -48 -9 -66 -26l-6 2c32 64 91 98 167 98c73 0 107 -33 165 -33c25 0 49 8 63 23z" />
    <glyph glyph-name="trademark" unicode="&#x2122;" horiz-adv-x="379" 
d="M333 433h-43l27 156l-63 -156h-41v131l-40 -131h-24l68 210l41 6v-169l66 174h47zM107 628l-42 -195h-43l43 199c-34 -1 -60 -14 -60 -61c0 -15 3 -17 4 -20c-21 0 -32 8 -32 29c0 40 28 78 102 78c12 0 46 -5 75 -5c15 0 28 1 37 5c-2 -12 -8 -39 -25 -39
c-16 0 -37 6 -59 9z" />
    <glyph glyph-name="two" unicode="2" horiz-adv-x="492" 
d="M111 132c59 0 116 -18 191 -18c70 0 87 25 134 69c1 -16 1 -30 1 -44c0 -98 -20 -150 -119 -150c-109 0 -146 36 -248 36c-23 0 -59 -21 -79 -28c-2 11 -2 22 -2 33c0 219 329 317 329 583c0 49 -32 82 -61 82c-67 0 -81 -31 -81 -81c0 -23 10 -60 38 -68
c-26 -23 -52 -34 -76 -34c-41 0 -72 32 -72 90c0 68 55 147 206 147c137 0 190 -64 190 -161c0 -223 -273 -321 -356 -456h5z" />
    <glyph glyph-name="twosuperior" unicode="&#xb2;" horiz-adv-x="300" 
d="M75 416c37 0 74 -10 113 -10c38 0 48 14 75 38c0 -69 -1 -105 -69 -105c-63 0 -84 20 -143 20c-14 0 -35 -12 -46 -16c-1 6 -2 12 -2 18c0 118 191 171 191 315c0 26 -18 44 -35 44c-39 0 -47 -16 -47 -43c0 -13 6 -33 22 -37c-15 -13 -31 -19 -45 -19
c-23 0 -41 17 -41 49c0 37 32 79 120 79c79 0 110 -34 110 -86c0 -121 -159 -174 -207 -247h4z" />
    <glyph glyph-name="u" unicode="u" 
d="M315 500h144l-72 -340c-3 -13 -4 -23 -4 -32c0 -28 13 -37 41 -37c39 0 66 38 81 88h42c-57 -163 -147 -185 -201 -185c-57 0 -93 33 -99 95c-50 -82 -106 -95 -148 -95c-60 0 -107 36 -107 120c0 19 3 41 8 65l68 321h144l-72 -340c-2 -10 -3 -19 -3 -28
c0 -23 8 -41 30 -41c39 0 65 38 80 88z" />
    <glyph glyph-name="u.end" horiz-adv-x="459" 
d="M68 500h144l-72 -340c-2 -8 -3 -17 -3 -25c0 -23 7 -44 30 -44c39 0 65 38 80 88l68 321h144l-72 -340c-3 -13 -4 -23 -4 -32c0 -28 13 -37 41 -37c19 0 24 3 33 6c-5 -72 -57 -103 -111 -103c-55 0 -91 36 -98 95c-50 -82 -107 -95 -149 -95c-60 0 -107 36 -107 120
c0 19 3 41 8 65z" />
    <glyph glyph-name="u_x.end" horiz-adv-x="863" 
d="M68 500h144l-72 -340c-2 -8 -3 -17 -3 -25c0 -23 7 -44 30 -44c39 0 65 38 80 88l68 321h144l-72 -340c-2 -9 -3 -17 -3 -25c0 -25 10 -44 43 -44c52 0 118 43 160 94l-58 315h141l39 -216c59 64 95 123 95 159c0 4 0 8 -1 12c-6 -1 -12 -2 -17 -2c-35 0 -47 25 -47 56
c0 30 25 47 56 47c45 0 68 -40 68 -89c0 -65 -45 -134 -143 -238l9 -50c11 -59 19 -88 63 -88c18 0 26 3 32 6c-5 -71 -56 -97 -110 -97c-63 0 -93 34 -116 128c-75 -95 -154 -134 -235 -134c-55 0 -105 36 -115 96c-50 -83 -107 -96 -149 -96c-60 0 -107 38 -107 121
c0 19 3 40 8 64z" />
    <glyph glyph-name="uacute" unicode="&#xfa;" 
d="M315 500h144l-72 -340c-3 -13 -4 -23 -4 -32c0 -28 13 -37 41 -37c39 0 66 38 81 88h42c-57 -163 -147 -185 -201 -185c-57 0 -93 33 -99 95c-50 -82 -106 -95 -148 -95c-60 0 -107 36 -107 120c0 19 3 41 8 65l68 321h144l-72 -340c-2 -10 -3 -19 -3 -28
c0 -23 8 -41 30 -41c39 0 65 38 80 88zM239 561l91 189h105l-121 -189h-75z" />
    <glyph glyph-name="uacute.end" horiz-adv-x="459" 
d="M68 500h144l-72 -340c-2 -8 -3 -17 -3 -25c0 -23 7 -44 30 -44c39 0 65 38 80 88l68 321h144l-72 -340c-3 -13 -4 -23 -4 -32c0 -28 13 -37 41 -37c19 0 24 3 33 6c-5 -72 -57 -103 -111 -103c-55 0 -91 36 -98 95c-50 -82 -107 -95 -149 -95c-60 0 -107 36 -107 120
c0 19 3 41 8 65zM219 561l91 189h105l-121 -189h-75z" />
    <glyph glyph-name="ucircumflex" unicode="&#xfb;" 
d="M315 500h144l-72 -340c-3 -13 -4 -23 -4 -32c0 -28 13 -37 41 -37c39 0 66 38 81 88h42c-57 -163 -147 -185 -201 -185c-57 0 -93 33 -99 95c-50 -82 -106 -95 -148 -95c-60 0 -107 36 -107 120c0 19 3 41 8 65l68 321h144l-72 -340c-2 -10 -3 -19 -3 -28
c0 -23 8 -41 30 -41c39 0 65 38 80 88zM419 561h-32l-60 80l-157 -80h-44l212 189h21z" />
    <glyph glyph-name="udieresis" unicode="&#xfc;" 
d="M315 500h144l-72 -340c-3 -13 -4 -23 -4 -32c0 -28 13 -37 41 -37c39 0 66 38 81 88h42c-57 -163 -147 -185 -201 -185c-57 0 -93 33 -99 95c-50 -82 -106 -95 -148 -95c-60 0 -107 36 -107 120c0 19 3 41 8 65l68 321h144l-72 -340c-2 -10 -3 -19 -3 -28
c0 -23 8 -41 30 -41c39 0 65 38 80 88zM136 634c0 33 27 61 61 61c33 0 61 -28 61 -61c0 -34 -28 -61 -61 -61c-34 0 -61 27 -61 61zM316 634c0 33 27 61 61 61c33 0 61 -28 61 -61c0 -34 -28 -61 -61 -61c-34 0 -61 27 -61 61z" />
    <glyph glyph-name="ugrave" unicode="&#xf9;" 
d="M315 500h144l-72 -340c-3 -13 -4 -23 -4 -32c0 -28 13 -37 41 -37c39 0 66 38 81 88h42c-57 -163 -147 -185 -201 -185c-57 0 -93 33 -99 95c-50 -82 -106 -95 -148 -95c-60 0 -107 36 -107 120c0 19 3 41 8 65l68 321h144l-72 -340c-2 -10 -3 -19 -3 -28
c0 -23 8 -41 30 -41c39 0 65 38 80 88zM244 561l-59 189h105l29 -189h-75z" />
    <glyph glyph-name="underscore" unicode="_" horiz-adv-x="444" 
d="M404 79l-17 -79h-351l18 79h350z" />
    <glyph glyph-name="uni00AD" unicode="&#xad;" horiz-adv-x="290" 
d="M237 301l-17 -79h-201l18 79h200z" />
    <glyph glyph-name="v" unicode="v" horiz-adv-x="414" 
d="M336 520c48 0 63 -43 63 -87c0 -160 -81 -439 -285 -439c-76 0 -123 39 -123 118c0 11 1 29 5 48l72 340h144l-72 -340c-3 -14 -5 -27 -5 -36c0 -20 10 -33 34 -33c98 0 173 224 173 334c-3 -7 -24 -10 -32 -10c-24 0 -36 29 -36 51c0 31 20 54 62 54z" />
    <glyph glyph-name="w" unicode="w" horiz-adv-x="661" 
d="M68 500h144l-72 -340c-2 -8 -3 -17 -3 -25c0 -23 7 -44 30 -44c39 0 65 38 80 88l68 321h144l-72 -340c-3 -14 -5 -27 -5 -36c0 -20 10 -33 34 -33c98 0 173 224 173 334c-3 -7 -24 -10 -32 -10c-24 0 -36 29 -36 51c0 31 20 54 62 54c48 0 63 -43 63 -87
c0 -160 -81 -439 -285 -439c-65 0 -108 28 -120 84c-49 -72 -102 -84 -142 -84c-60 0 -107 36 -107 120c0 19 3 41 8 65z" />
    <glyph glyph-name="x" unicode="x" horiz-adv-x="522" 
d="M361 248l9 -70c8 -65 27 -87 62 -87c39 0 75 38 90 88h42c-54 -155 -146 -185 -204 -185c-59 0 -102 52 -122 174l-138 -168h-72l202 228l-16 112c-10 67 -20 83 -38 83c-39 0 -99 -79 -134 -244h-42c31 148 102 326 236 326c80 0 102 -68 108 -119l9 -76
c55 62 85 107 87 144c-6 -1 -12 -2 -17 -2c-35 0 -47 25 -47 56c0 34 32 49 68 49c37 0 56 -48 56 -91c0 -63 -46 -116 -139 -218z" />
    <glyph glyph-name="x.end" horiz-adv-x="500" 
d="M366 254l13 -76c11 -65 23 -87 58 -87c19 0 26 2 37 6c-5 -73 -63 -103 -118 -103c-59 0 -98 52 -118 174l-138 -168h-72l202 228l-16 112c-10 67 -20 83 -38 83c-39 0 -99 -79 -134 -244h-42c31 148 102 326 236 326c80 0 99 -68 108 -119l12 -73c53 61 82 104 84 141
c-6 -1 -12 -2 -17 -2c-35 0 -47 25 -47 56c0 34 32 49 68 49c37 0 56 -48 56 -91c0 -62 -44 -114 -134 -212z" />
    <glyph glyph-name="y" unicode="y" horiz-adv-x="486" 
d="M315 500h144l-99 -464c61 22 98 56 126 143h42c-39 -132 -115 -170 -177 -187l-15 -72c-30 -143 -114 -170 -180 -170c-61 0 -112 32 -112 97c0 84 88 126 163 149l12 54c-42 -47 -86 -56 -120 -56c-60 0 -107 36 -107 120c0 19 3 41 8 65l68 321h144l-72 -340
c-2 -8 -3 -17 -3 -25c0 -23 7 -44 30 -44c37 0 63 35 78 82zM99 -139c0 -14 12 -33 34 -33c21 0 45 30 58 89l6 29c-51 -19 -98 -45 -98 -85z" />
    <glyph glyph-name="y.end" horiz-adv-x="460" 
d="M68 500h144l-72 -340c-2 -8 -3 -17 -3 -25c0 -23 7 -44 30 -44c39 0 65 38 80 88l68 321h145l-122 -580c-30 -143 -116 -170 -182 -170c-61 0 -118 43 -118 108c0 93 78 122 173 150l10 44c-43 -49 -88 -58 -122 -58c-60 0 -107 36 -107 120c0 19 3 41 8 65zM93 -128
c0 -14 18 -33 40 -33c20 0 46 19 59 78l12 59c-63 -21 -111 -50 -111 -104z" />
    <glyph glyph-name="yacute" unicode="&#xfd;" 
d="M315 500h144l-99 -464c61 22 98 56 126 143h42c-39 -132 -115 -170 -177 -187l-15 -72c-30 -143 -114 -170 -180 -170c-61 0 -112 32 -112 97c0 84 88 126 163 149l12 54c-42 -47 -86 -56 -120 -56c-60 0 -107 36 -107 120c0 19 3 41 8 65l68 321h144l-72 -340
c-2 -8 -3 -17 -3 -25c0 -23 7 -44 30 -44c37 0 63 35 78 82zM99 -139c0 -14 12 -33 34 -33c21 0 45 30 58 89l6 29c-51 -19 -98 -45 -98 -85zM238 561l91 189h105l-121 -189h-75z" />
    <glyph glyph-name="ydieresis" unicode="&#xff;" 
d="M315 500h144l-99 -464c61 22 98 56 126 143h42c-39 -132 -115 -170 -177 -187l-15 -72c-30 -143 -114 -170 -180 -170c-61 0 -112 32 -112 97c0 84 88 126 163 149l12 54c-42 -47 -86 -56 -120 -56c-60 0 -107 36 -107 120c0 19 3 41 8 65l68 321h144l-72 -340
c-2 -8 -3 -17 -3 -25c0 -23 7 -44 30 -44c37 0 63 35 78 82zM99 -139c0 -14 12 -33 34 -33c21 0 45 30 58 89l6 29c-51 -19 -98 -45 -98 -85zM123 634c0 33 27 61 61 61c33 0 61 -28 61 -61c0 -34 -28 -61 -61 -61c-34 0 -61 27 -61 61zM303 634c0 33 27 61 61 61
c33 0 61 -28 61 -61c0 -34 -28 -61 -61 -61c-34 0 -61 27 -61 61z" />
    <glyph glyph-name="yen" unicode="&#xa5;" horiz-adv-x="474" 
d="M314 307h131l-14 -50h-128l-14 -65h131l-14 -50h-128l-30 -142h-160l30 142h-99l14 50h96l14 65h-99l14 50h96l-112 443h164l88 -361l150 361h66z" />
    <glyph glyph-name="z" unicode="z" horiz-adv-x="428" 
d="M306 91c-13 1 -19 10 -19 21c0 18 19 43 56 43c30 0 44 -21 44 -48c0 -46 -45 -107 -122 -107h-265l255 446h-56c-31 0 -55 -2 -55 -16c0 -5 11 1 11 -22c0 -37 -28 -53 -54 -53c-23 0 -46 15 -46 44c0 41 45 101 116 101h257l-245 -423c17 -1 49 -6 76 -6
c24 0 44 4 47 20z" />
    <glyph glyph-name="zacute" unicode="&#x17a;" horiz-adv-x="428" 
d="M306 91c-13 1 -19 10 -19 21c0 18 19 43 56 43c30 0 44 -21 44 -48c0 -46 -45 -107 -122 -107h-265l255 446h-56c-31 0 -55 -2 -55 -16c0 -5 11 1 11 -22c0 -37 -28 -53 -54 -53c-23 0 -46 15 -46 44c0 41 45 101 116 101h257l-245 -423c17 -1 49 -6 76 -6
c24 0 44 4 47 20zM233 561l91 189h105l-121 -189h-75z" />
    <glyph glyph-name="zcaron" unicode="&#x17e;" horiz-adv-x="428" 
d="M306 91c-13 1 -19 10 -19 21c0 18 19 43 56 43c30 0 44 -21 44 -48c0 -46 -45 -107 -122 -107h-265l255 446h-56c-31 0 -55 -2 -55 -16c0 -5 11 1 11 -22c0 -37 -28 -53 -54 -53c-23 0 -46 15 -46 44c0 41 45 101 116 101h257l-245 -423c17 -1 49 -6 76 -6
c24 0 44 4 47 20zM187 750h32l60 -80l157 80h44l-212 -189h-21z" />
    <glyph glyph-name="zdotaccent" unicode="&#x17c;" horiz-adv-x="428" 
d="M341 634c0 -34 -28 -61 -61 -61c-34 0 -61 27 -61 61c0 33 27 61 61 61c33 0 61 -28 61 -61zM306 91c-13 1 -19 10 -19 21c0 18 19 43 56 43c30 0 44 -21 44 -48c0 -46 -45 -107 -122 -107h-265l255 446h-56c-31 0 -55 -2 -55 -16c0 -5 11 1 11 -22
c0 -37 -28 -53 -54 -53c-23 0 -46 15 -46 44c0 41 45 101 116 101h257l-245 -423c17 -1 49 -6 76 -6c24 0 44 4 47 20z" />
    <glyph glyph-name="zero" unicode="0" horiz-adv-x="546" 
d="M377 750c125 0 178 -93 178 -261c0 -199 -113 -498 -318 -498c-172 0 -207 97 -207 263c0 273 132 496 347 496zM188 325c-2 -27 -5 -62 -5 -99c0 -74 11 -151 59 -151c114 0 182 246 182 478c0 82 -7 145 -54 145c-60 0 -165 -148 -182 -373z" />
    <glyph glyph-name="Ntilde" unicode="&#xd1;" horiz-adv-x="686" 
d="M570 748h144l-159 -748h-121l-85 523l-111 -523h-144l144 679c-87 -36 -139 -112 -139 -218c0 -51 13 -59 14 -68c-69 0 -107 25 -107 97c0 114 111 260 283 260c30 0 64 0 93 -14l79 -530zM703 920l6 -1c-11 -47 -85 -100 -161 -100c-66 0 -113 37 -168 37
c-26 0 -48 -9 -66 -26l-6 2c32 64 91 98 167 98c73 0 107 -33 165 -33c25 0 49 8 63 23z" />
    </font>
</defs>
</svg>
